<svg width="202" height="133" viewBox="0 0 202 133" fill="none" xmlns="http://www.w3.org/2000/svg">
<path fill-rule="evenodd" clip-rule="evenodd" d="M163.092 132.077C162.148 132.077 161.344 131.771 160.68 131.158C160.016 130.546 159.684 129.754 159.684 128.785V108.111H156.238V104.704H166.498V108.111H163.092V132.077ZM167.57 126.832V109.795C167.57 109.107 167.699 108.449 167.953 107.824C168.209 107.199 168.566 106.656 169.025 106.197C169.484 105.738 170.021 105.374 170.633 105.106C171.246 104.838 171.91 104.704 172.625 104.704H177.754V108.111H170.939V114.926H174.348V118.333H170.939V128.518H177.754V131.924H172.625C171.91 131.924 171.246 131.79 170.633 131.521C170.021 131.254 169.484 130.884 169.025 130.412C168.566 129.939 168.209 129.396 167.953 128.785C167.699 128.172 167.57 127.521 167.57 126.832ZM188.934 109.834V119.481C188.934 120.171 188.799 120.822 188.531 121.434C188.264 122.047 187.9 122.583 187.441 123.042C186.98 123.502 186.445 123.871 185.832 124.152C185.221 124.434 184.568 124.573 183.879 124.573H182.158V131.924H178.75V104.704H183.879C184.568 104.704 185.221 104.838 185.832 105.106C186.445 105.374 186.98 105.738 187.441 106.197C187.9 106.656 188.264 107.199 188.531 107.824C188.799 108.449 188.934 109.119 188.934 109.834ZM185.564 121.166V108.111H182.158V121.166H185.564ZM0 131.694V104.32H3.40729V114.505H6.89069V109.26C6.89069 108.545 7.01859 107.868 7.274 107.23C7.52879 106.592 7.88629 106.037 8.34569 105.564C8.80519 105.094 9.34129 104.723 9.95359 104.455C10.5659 104.188 11.2295 104.053 11.9449 104.053C12.6592 104.053 13.3291 104.188 13.9541 104.455C14.5796 104.723 15.1221 105.094 15.5811 105.564C16.0406 106.037 16.4048 106.592 16.6724 107.23C16.9409 107.868 17.0747 108.545 17.0747 109.26V126.603C17.0747 127.343 16.9409 128.02 16.6724 128.632C16.4048 129.244 16.0406 129.78 15.5811 130.24C15.1221 130.699 14.5796 131.057 13.9541 131.312C13.3291 131.566 12.6592 131.694 11.9449 131.694C11.2295 131.694 10.5659 131.566 9.95359 131.312C9.34129 131.057 8.80519 130.699 8.34569 130.24C7.88629 129.78 7.52879 129.244 7.274 128.632C7.01859 128.02 6.89069 127.343 6.89069 126.603V118.026H3.40729V128.402C3.40729 129.372 3.06839 130.162 2.39259 130.775C1.71589 131.389 0.91849 131.694 0 131.694ZM10.2598 107.729V128.134H13.6675V107.729H10.2598ZM19.6783 104.283H23.0469V111.098C23.0469 112.041 23.2193 112.846 23.564 113.509C23.9082 114.173 24.2979 114.505 24.7315 114.505H26.4541V104.32V104.283H29.8618V114.543H31.585C32.0181 114.543 32.4073 114.211 32.752 113.547C33.0967 112.884 33.2691 112.08 33.2691 111.136V104.32H36.6377V111.174C36.6377 111.863 36.5869 112.508 36.4849 113.107C36.3828 113.707 36.2105 114.236 35.9683 114.696C35.7256 115.156 35.3809 115.52 34.9341 115.787C34.4878 116.055 33.92 116.201 33.231 116.228C33.92 116.253 34.4878 116.406 34.9341 116.688C35.3809 116.967 35.7256 117.338 35.9683 117.797C36.2105 118.256 36.3828 118.785 36.4849 119.387C36.5869 119.985 36.6377 120.631 36.6377 121.318V131.541H33.2691V121.318C33.2691 120.375 33.0967 119.577 32.752 118.926C32.4073 118.275 32.0181 117.95 31.585 117.95H29.8618V131.541H26.4541V117.912H24.7315C24.2979 117.912 23.9082 118.237 23.564 118.889C23.2193 119.539 23.0469 120.336 23.0469 121.28V131.503H19.6783V121.28C19.6783 120.592 19.729 119.947 19.8311 119.348C19.9331 118.748 20.1118 118.219 20.3667 117.759C20.6221 117.299 20.9668 116.93 21.4009 116.648C21.835 116.368 22.3833 116.215 23.0469 116.189C22.3579 116.164 21.7964 116.017 21.3628 115.749C20.9287 115.48 20.5899 115.117 20.3477 114.658C20.1055 114.198 19.9331 113.668 19.8311 113.068C19.729 112.469 19.6783 111.824 19.6783 111.136L19.6783 104.283ZM46.0557 128.058V124.727H44.333C43.6441 124.727 42.9873 124.592 42.3618 124.324C41.7364 124.057 41.1939 123.699 40.7344 123.253C40.2754 122.806 39.9053 122.276 39.6241 121.664C39.3433 121.051 39.2036 120.4 39.2036 119.711V104.32H42.649V121.28H46.0557V104.32H49.4634V128.134C49.4634 128.798 49.3936 129.334 49.2525 129.742C49.1128 130.15 48.8955 130.482 48.6016 130.738C48.3086 130.992 47.9512 131.178 47.5298 131.293C47.1084 131.408 46.6177 131.49 46.0557 131.541H39.2036V128.058L46.0557 128.058ZM62.1739 109.451V119.098C62.1739 119.788 62.0401 120.439 61.772 121.051C61.5039 121.664 61.1402 122.199 60.6807 122.659C60.2212 123.119 59.6856 123.488 59.0728 123.77C58.46 124.051 57.8091 124.191 57.1201 124.191H55.3975V131.541H51.9903V104.32H57.1201C57.8091 104.32 58.46 104.455 59.0728 104.723C59.6856 104.99 60.2212 105.355 60.6807 105.814C61.1402 106.273 61.5039 106.816 61.772 107.441C62.0401 108.066 62.1739 108.736 62.1739 109.451ZM58.8047 120.783V107.729H55.3975V120.783H58.8047ZM64.854 109.145C64.854 108.455 64.9942 107.799 65.2749 107.173C65.5557 106.548 65.9258 106.006 66.3848 105.546C66.8448 105.086 67.3872 104.723 68.0122 104.455C68.6372 104.188 69.2945 104.053 69.9839 104.053C70.6729 104.053 71.3301 104.188 71.9556 104.455C72.5811 104.723 73.1231 105.086 73.5826 105.546C74.042 106.006 74.4058 106.548 74.6739 107.173C74.9414 107.799 75.0757 108.455 75.0757 109.145V131.541H71.668V124.191H68.2989V131.541H64.854V109.145ZM68.2989 120.783H71.668V107.729H68.2989V120.783ZM82.7325 104.359H87.8623V131.541H84.4551V107.767H81.0484V131.541H77.6792V109.451C77.6792 108.762 77.813 108.111 78.0806 107.498C78.3487 106.887 78.7129 106.344 79.1719 105.871C79.6314 105.399 80.1675 105.029 80.7798 104.762C81.3926 104.493 82.0435 104.359 82.7325 104.359ZM100.611 104.32V111.174C100.611 111.889 100.572 112.553 100.496 113.164C100.42 113.777 100.26 114.313 100.018 114.772C99.7754 115.231 99.4317 115.59 98.9844 115.844C98.5371 116.1 97.9571 116.228 97.2422 116.228C97.9317 116.228 98.5 116.361 98.9453 116.629C99.3926 116.897 99.7364 117.262 99.9785 117.721C100.223 118.18 100.389 118.723 100.477 119.348C100.566 119.973 100.611 120.631 100.611 121.318V131.541H97.2422V121.318C97.2422 120.375 97.0703 119.577 96.7246 118.926C96.3809 118.275 95.9922 117.95 95.5586 117.95H93.835V131.541H90.4278V104.32H93.835V114.543H95.5196C95.9532 114.543 96.3496 114.211 96.7071 113.547C97.0645 112.884 97.2422 112.08 97.2422 111.136V104.32H100.611ZM106.584 107.729V128.134H109.99V107.729H106.584ZM113.398 126.603C113.398 127.343 113.264 128.02 112.996 128.632C112.728 129.244 112.365 129.78 111.906 130.24C111.445 130.699 110.904 131.057 110.277 131.312C109.652 131.566 108.982 131.694 108.268 131.694C107.553 131.694 106.891 131.566 106.277 131.312C105.664 131.057 105.129 130.699 104.67 130.24C104.209 129.78 103.853 129.244 103.598 128.632C103.342 128.02 103.215 127.343 103.215 126.603V109.26C103.215 108.545 103.342 107.868 103.598 107.23C103.853 106.592 104.209 106.037 104.67 105.564C105.129 105.094 105.664 104.723 106.277 104.455C106.891 104.188 107.553 104.053 108.268 104.053C108.982 104.053 109.652 104.188 110.277 104.455C110.904 104.723 111.445 105.094 111.906 105.564C112.365 106.037 112.728 106.592 112.996 107.23C113.264 107.868 113.398 108.545 113.398 109.26V126.603ZM115.963 104.32H119.371V114.543H122.777V104.32H126.146V131.541H122.777V117.95H119.371V131.541H115.963V104.32ZM133.727 107.729V128.134H137.135V107.729H133.727ZM140.543 104.053V128.134H143.949V131.541H126.912V128.096H130.357V109.184C130.357 108.494 130.486 107.836 130.742 107.211C130.996 106.586 131.353 106.044 131.812 105.584C132.273 105.125 132.809 104.755 133.422 104.475C134.033 104.193 134.697 104.053 135.412 104.053H140.543ZM149.654 131.924H154.783V104.704H151.377V128.518H147.969V104.704H144.6V126.832C144.6 127.521 144.734 128.172 145.002 128.785C145.27 129.396 145.635 129.939 146.094 130.412C146.553 130.884 147.09 131.254 147.701 131.521C148.314 131.79 148.965 131.924 149.654 131.924Z" fill="#E64415"/>
<path fill-rule="evenodd" clip-rule="evenodd" d="M201.098 103.639C201.098 104.855 200.666 105.896 199.805 106.763C198.943 107.629 197.904 108.063 196.687 108.063C195.48 108.063 194.441 107.627 193.57 106.756C192.701 105.885 192.266 104.846 192.266 103.639C192.266 102.432 192.701 101.396 193.57 100.529C194.441 99.6631 195.48 99.2305 196.687 99.2305C197.904 99.2305 198.943 99.6602 199.805 100.522C200.666 101.385 201.098 102.423 201.098 103.639ZM200.447 103.639C200.447 102.607 200.076 101.719 199.334 100.972C198.594 100.225 197.711 99.8516 196.687 99.8516C195.666 99.8516 194.783 100.225 194.041 100.972C193.299 101.719 192.928 102.607 192.928 103.639C192.928 104.672 193.297 105.563 194.033 106.313C194.771 107.064 195.656 107.439 196.687 107.439C197.721 107.439 198.603 107.064 199.342 106.313C200.078 105.563 200.447 104.672 200.447 103.639ZM198.996 106.196H197.297C197.195 105.957 197.135 105.398 197.117 104.523C197.107 104.229 197.029 104.026 196.881 103.916C196.762 103.832 196.555 103.791 196.26 103.791V106.196H194.711V101.109H196.908C198.172 101.109 198.803 101.547 198.803 102.423C198.803 103.031 198.475 103.432 197.82 103.625C198.189 103.791 198.43 104.04 198.541 104.371C198.586 104.5 198.637 104.818 198.691 105.325C198.738 105.713 198.84 106.002 198.996 106.196ZM197.311 102.451C197.311 101.889 197.043 101.607 196.508 101.607H196.26V103.279H196.508C197.043 103.279 197.311 103.004 197.311 102.451Z" fill="#E64415"/>
<path fill-rule="evenodd" clip-rule="evenodd" d="M111.362 2.48557C117.153 5.99338 121.997 12.7884 121.569 26.0047C120.745 51.4427 99.1769 76.2586 73.0739 73.9187C54.9962 72.2976 44.049 58.7957 44.4894 46.2054C44.9294 33.615 53.695 24.3997 56.9689 21.5193C61.4831 17.5472 67.1593 15.2049 71.9308 16.3157C76.7023 17.4265 84.3649 24.2625 81.2531 35.7596C80.0358 32.8147 73.4025 28.9788 71.9665 34.9016C71.1115 38.4295 75.1637 41.8875 79.5998 42.3128C84.0358 42.7381 89.3341 39.8489 90.4069 39.2532C93.7145 37.4178 102.025 28.9353 104.292 24.6555C107.323 18.9358 109.249 14.0804 108.142 10.7337C106.622 6.14768 101.327 4.58378 96.2179 9.62528C94.9137 3.73368 98.1398 1.58568 101.394 0.459682C105.128 -0.833218 108.651 0.844482 111.362 2.48557Z" fill="#E64415"/>
<path fill-rule="evenodd" clip-rule="evenodd" d="M98.0248 83.1799C99.3394 84.3654 100.119 85.842 100.097 87.4181C100.054 90.7756 96.4037 93.422 91.7109 93.6955C93.8139 92.3205 95.1615 90.2453 95.1791 87.9103C95.1908 86.3527 94.6103 84.8986 93.6044 83.6818C94.5038 83.2209 95.4877 82.9709 96.517 82.9787C97.0346 82.9826 97.5385 83.0519 98.0248 83.1799Z" fill="#E64415"/>
<path fill-rule="evenodd" clip-rule="evenodd" d="M86.5718 83.1799C87.8867 84.3654 88.665 85.842 88.644 87.4181C88.6006 90.7756 84.9502 93.422 80.2578 93.6955C82.3613 92.3205 83.708 90.2453 83.7261 87.9103C83.7383 86.3527 83.1572 84.8986 82.1518 83.6818C83.0512 83.2209 84.0356 82.9709 85.0644 82.9787C85.5815 82.9826 86.0849 83.0519 86.5718 83.1799Z" fill="#E64415"/>
<path fill-rule="evenodd" clip-rule="evenodd" d="M133.637 29.207C135.649 29.1426 141.245 29.1455 146.184 33.1396C152.739 38.4409 155.678 50.6342 146.1 51.4429C150.788 46.5142 147.864 42.0757 144.684 41.1636C142.645 40.5786 140.68 42.1152 139.956 43.687C138.688 46.4355 133.335 54.5698 129.723 59.3467C126.112 64.1235 112.157 75.6889 102.952 78.7943C93.7461 81.8998 85.6177 82.2104 77.3965 79.9604C72.853 78.7162 68.7173 76.7349 65.0703 74.1732C85.3389 79.7632 105.858 68.2007 115.67 50.4541C119.092 44.2695 121.913 38.019 122.418 31.5806C125.442 30.415 128.315 29.3779 133.637 29.207Z" fill="#E64415"/>
<path fill-rule="evenodd" clip-rule="evenodd" d="M151.664 6.21403C150.15 6.59003 148.744 6.10083 148.539 5.07633C148.332 4.05143 149.795 3.72333 151.443 3.44263C152.154 3.32103 152.844 3.14713 153.154 2.89763C153.557 2.57443 153.148 2.43823 152.705 2.32243C146.064 0.581729 138.055 3.40943 131.971 10.1286C128.488 13.9758 125.035 19.5798 123.166 24.8322C123.064 23.7433 122.93 22.6833 122.766 21.6579C125.133 16.1315 128.447 10.8693 132.936 6.66673C138.949 1.03483 146.572 -0.494871 152.281 0.369329C156.895 1.06803 154.621 5.47923 151.664 6.21403Z" fill="#E64415"/>
<path fill-rule="evenodd" clip-rule="evenodd" d="M148.781 15.3256C147.311 15.6474 145.711 15.2148 145.363 14.2461C145.016 13.2778 146.627 12.9008 148.277 12.6303C148.99 12.5136 149.223 12.5781 149.535 12.3305C149.939 12.0102 149.533 11.8715 149.092 11.7529C142.461 9.97163 136.309 10.9174 130.049 17.4712C127.779 19.8481 126.154 23.0224 124.732 26.354C124.613 26.6347 124.555 26.8862 124.539 27.1128C125.705 25.6137 126.557 24.498 127.574 23.4663C129.66 21.3491 132.42 19.8369 134.855 18.9975C138.914 17.5986 142.742 17.8422 145.982 18.6147C149.998 19.5717 148.496 23.1059 145.676 23.77C144.242 24.1069 142.689 23.3852 142.566 22.4126C142.48 21.7231 143.635 21.4248 144.814 21.313C145.623 21.2368 146.465 21.3525 146.84 21.0727C147.236 20.7758 146.748 20.4682 146.291 20.3354C143.697 19.58 139.99 19.0615 136.42 20.039C133.156 20.9331 128.936 23.7085 126.717 26.7944L125.299 28.769C124.141 29.2866 123.115 29.7265 122.703 29.8364L123.158 25.7778C125.053 21.748 127.463 17.7319 130.291 14.9292C135.934 9.33593 143.125 8.57963 148.729 9.96823C152.754 10.9653 151.758 14.6748 148.781 15.3256Z" fill="#E64415"/>
<path fill-rule="evenodd" clip-rule="evenodd" d="M116.965 44.7392C109.217 62.077 92.3424 75.3061 72.9649 73.5697C54.8873 71.9486 43.94 58.4472 44.38 45.8568C44.5816 40.0922 46.5294 35.0355 48.8951 30.9701C47.5621 34.1454 46.6178 37.7367 46.481 41.6557C46.0406 54.246 56.9879 67.7475 75.0655 69.3686C92.8443 70.9623 108.516 59.9564 116.965 44.7392ZM81.8409 29.3173C81.9405 31.1723 81.7403 33.206 81.1436 35.411C80.2452 33.2372 76.3961 30.578 73.8643 31.7167C73.8199 31.267 73.8468 30.81 73.9581 30.3515C75.0894 25.685 79.4478 27.0761 81.8409 29.3173ZM106.856 20.7152C108.68 16.6986 108.876 12.935 108.032 10.3852C106.514 5.79919 101.329 4.5844 96.2193 9.6259C95.3932 5.893 96.3619 4.1298 98.0279 2.7108C97.9518 3.6283 98.0533 4.2143 98.3209 5.42419C103.428 0.383194 108.616 1.5976 110.131 6.184C111.239 9.53019 110.038 14.7235 107.006 20.4433C106.96 20.5321 106.909 20.6229 106.856 20.7152Z" fill="#E2001A"/>
<path fill-rule="evenodd" clip-rule="evenodd" d="M75.898 20.7172C77.9551 22.537 77.5615 24.0175 77.0552 24.3783C76.1509 25.0214 74.5747 24.3838 72.9502 23.1504C64.3394 16.6157 57.0264 25.0419 55.3281 26.2631C55.7124 23.0897 67.0601 12.9037 75.898 20.7172ZM72.0254 39.5702C72.4839 42.4814 75.9649 45.0176 79.7217 45.3774C84.1572 45.8032 89.4028 42.8065 90.5293 42.3182C87.4771 46.5985 81.9917 48.3652 79.4688 48.1694C76.9453 47.9731 70.9263 44.6147 72.0254 39.5702Z" fill="white"/>
<path fill-rule="evenodd" clip-rule="evenodd" d="M108.458 2.66636C106.372 1.74306 104.469 2.38416 104.508 2.95636C104.579 3.97786 108.038 4.99256 110.13 6.18346C116.467 9.78796 118.28 17.724 117.88 22.6703C117.88 22.6703 120.856 8.15516 108.458 2.66636Z" fill="white"/>
<path fill-rule="evenodd" clip-rule="evenodd" d="M139.09 44.0957C133.508 55.7168 113.831 70.8969 101.592 75.52C92.4047 78.9897 85.5805 80.7036 77.7109 80.0923C85.6743 82.1196 93.8857 81.8501 102.95 78.7934C112.012 75.7358 125.915 64.376 129.526 59.5996C134.114 53.5302 135.471 52.1318 139.09 44.0957Z" fill="#E2001A"/>
<path fill-rule="evenodd" clip-rule="evenodd" d="M95.1484 70.7094C103.631 66.2583 110.854 59.1386 115.586 50.5815C119.006 44.3969 121.826 38.146 122.332 31.708C124.586 30.8388 126.756 30.0415 129.918 29.6211C129.199 35.6753 126.506 41.5688 123.279 47.4033C117.17 58.4511 106.912 67.1001 95.1484 70.7094Z" fill="#E2001A"/>
<path fill-rule="evenodd" clip-rule="evenodd" d="M145.287 35.5752C146.914 37.1723 147.021 39.1772 146.475 39.352C145.5 39.664 143.279 36.8237 141.4 35.3178C135.711 30.7588 127.666 32.0039 123.219 34.2031C123.219 34.2031 135.609 26.0786 145.287 35.5752Z" fill="white"/>
</svg>
