<svg xmlns="http://www.w3.org/2000/svg" width="1322" height="296" fill="none"><path fill="#231F20" d="M60.085 146.864a31.782 31.782 0 0 1 19.675-29.495 31.796 31.796 0 0 1 12.224-2.399h124.672a23.625 23.625 0 0 0 17.306-7.314 24.462 24.462 0 0 0 7.314-17.838 22.573 22.573 0 0 0-7.314-16.946 24.158 24.158 0 0 0-17.306-7.135H33.502A31.938 31.938 0 0 1 3.034 46.29 31.926 31.926 0 0 1 20.958 4.028a31.94 31.94 0 0 1 12.544-2.116h179.586a91.853 91.853 0 0 1 34.932 6.672 84.693 84.693 0 0 1 28.224 18.587 89.954 89.954 0 0 1 18.947 27.934 84.936 84.936 0 0 1 7.137 34.57 85.614 85.614 0 0 1-21.409 57.082 86.444 86.444 0 0 1 21.409 57.082 84.933 84.933 0 0 1-7.137 34.57 89.957 89.957 0 0 1-18.947 27.935 84.694 84.694 0 0 1-28.224 18.587 91.171 91.171 0 0 1-34.932 6.671H33.502a31.929 31.929 0 0 1-30.468-19.447 31.924 31.924 0 0 1 17.924-42.261 31.93 31.93 0 0 1 12.544-2.116h183.154a24.164 24.164 0 0 0 17.306-7.135 22.573 22.573 0 0 0 7.314-16.947 24.545 24.545 0 0 0-7.314-17.838 23.781 23.781 0 0 0-17.306-7.135H92.127a31.727 31.727 0 0 1-22.609-9.289 31.713 31.713 0 0 1-9.29-22.605l-.143.035Zm636.203 0a171.218 171.218 0 0 1-7.992 50.66 161.997 161.997 0 0 1-22.944 46.878 124.866 124.866 0 0 1-36.538 34.213 90.098 90.098 0 0 1-48.205 13.165H383.04a31.724 31.724 0 0 1-31.9-32.109V33.877A31.712 31.712 0 0 1 370.796 4.33a31.725 31.725 0 0 1 12.244-2.383h190.932a99.203 99.203 0 0 1 51.167 13.307 132.607 132.607 0 0 1 38.572 34.25 155.077 155.077 0 0 1 24.264 46.842 165.336 165.336 0 0 1 8.313 50.518ZM414.939 65.772v162.183h145.046a74.58 74.58 0 0 0 37.251-8.312 68.546 68.546 0 0 0 22.943-20.264 71.347 71.347 0 0 0 11.276-26.258 116.495 116.495 0 0 0 0-52.515 71.343 71.343 0 0 0-11.276-26.258 68.933 68.933 0 0 0-22.943-20.264 74.939 74.939 0 0 0-37.251-8.312H414.939ZM1201.08 4.873a31.522 31.522 0 0 0-23.9-3.21 31.506 31.506 0 0 0-19.17 14.626l-124.89 214.77a1.14 1.14 0 0 1-.43.335 1.224 1.224 0 0 1-1.06 0 1.14 1.14 0 0 1-.43-.335L906.311 16.289a31.568 31.568 0 0 0-19.225-14.618 31.563 31.563 0 0 0-33.154 11.413 31.538 31.538 0 0 0-6.151 23.352 31.565 31.565 0 0 0 4.008 11.64l124.886 214.771a64.206 64.206 0 0 0 23.485 23.271 64.246 64.246 0 0 0 63.9 0 64.23 64.23 0 0 0 23.48-23.271l124.88-214.77a31.6 31.6 0 0 0 4.03-11.65c.56-4.11.31-8.29-.75-12.303a31.487 31.487 0 0 0-5.39-11.08 31.624 31.624 0 0 0-9.23-8.171ZM803.44 262.847a31.917 31.917 0 0 1-8.961 23.265 31.93 31.93 0 0 1-22.956 9.733 31.939 31.939 0 0 1-29.801-20.455 31.917 31.917 0 0 1-2.116-12.543V114.435a31.92 31.92 0 0 1 8.961-23.265 31.934 31.934 0 0 1 35.423-7.199 31.934 31.934 0 0 1 19.45 30.464v148.412Z"/><path fill="#EF3D33" d="M749.989 1.02h25.584a27.832 27.832 0 0 1 27.831 27.827v17.16a10.382 10.382 0 0 1-10.383 10.382h-25.584a27.827 27.827 0 0 1-27.832-27.827v-17.16a10.377 10.377 0 0 1 3.042-7.342 10.387 10.387 0 0 1 7.342-3.04Z"/><path fill="#231F20" d="M1321.29 262.846c0 8.459-3.36 16.572-9.35 22.553a31.886 31.886 0 0 1-22.55 9.342c-8.46 0-16.58-3.361-22.56-9.342a31.898 31.898 0 0 1-9.34-22.553V114.434a31.9 31.9 0 0 1 9.34-22.553 31.907 31.907 0 0 1 22.56-9.342c8.46 0 16.57 3.36 22.55 9.342a31.867 31.867 0 0 1 9.35 22.553v148.412Z"/><path fill="#EF3D33" d="M1285.32 1.02h25.58c2.76 0 5.4 1.093 7.35 3.04a10.41 10.41 0 0 1 3.04 7.341v17.16a27.82 27.82 0 0 1-8.15 19.677 27.838 27.838 0 0 1-19.68 8.15h-25.59a10.39 10.39 0 0 1-7.34-3.04 10.368 10.368 0 0 1-3.04-7.34V28.846c0-7.38 2.93-14.458 8.15-19.677a27.837 27.837 0 0 1 19.68-8.15Z"/></svg>