<svg xmlns="http://www.w3.org/2000/svg" xml:space="preserve" width="284.451" height="209.548" style="shape-rendering:geometricPrecision;text-rendering:geometricPrecision;image-rendering:optimizeQuality;fill-rule:evenodd;clip-rule:evenodd" viewBox="0 0 978 721"><defs><style>.fil3{fill:#5b5b5b;fill-rule:nonzero}</style><mask id="id0"><linearGradient id="id1" gradientUnits="userSpaceOnUse" x1="441.593" y1="204.32" x2="635.983" y2="612.392"><stop offset="0" style="stop-opacity:.305882;stop-color:white"/><stop offset="1" style="stop-opacity:0;stop-color:white"/></linearGradient><path style="fill:url(#id1)" d="M98 95h881v627H98z"/></mask></defs><g id="Слой_x0020_1"><path style="mask:url(#id0);fill:#abbfcd" d="M588 96c0-3 390 625 390 625H264L99 458l162-155h325l2-207z"/><g id="_1340879248"><path d="m25 282 61 1c2 0 4 2 4 5v145c0 2 1 4 3 4 2 1 3 1 5-1l153-153c1-1 2-1 3-1l358 1c1 0 3-1 3-3 1-1 1-3 0-4l-45-46c-1-1-1-2-1-3V106c0-3-2-5-4-5h-72c-2 0-4 2-4 5v50c0 2-2 4-4 4h-65c-1 0-2 0-3-1L281 22c-2-2-5-2-6 0L22 275c-1 1-2 3-1 4 1 2 2 3 4 3z" style="fill:none"/><path d="M469 348c0-11 9-20 20-20 12 0 21 9 21 20v53h21l66-67c8-8 21-8 29 0 9 8 9 21 0 29l-57 58 84 71 8 6v101c0 11-9 21-20 21-12 0-21-9-21-21v-81l-89-76h-21v45c0 11-9 20-21 20-11 0-20-9-20-20V348zM64 262l23 1c6 0 12 3 17 7 4 5 7 11 7 18v106l125-125c3-3 5-5 8-6 4-1 7-2 10-2l319 1-18-18c-2-2-4-5-5-8s-2-6-2-9V122h-38v34c0 6-3 13-8 17-4 5-11 8-17 8h-65c-3 0-6-1-9-2-3-2-6-3-8-6L278 48 64 262zm6 42-46-2c-5 0-9-1-13-4s-7-6-9-11-2-10-2-14c1-5 4-9 7-13L260 7c5-5 11-7 18-7 6 0 12 2 17 7l132 132h41v-33c0-7 3-13 7-18 5-4 11-7 18-7h72c7 0 13 3 17 7 5 5 8 11 8 18v114l39 41c4 4 6 8 7 13s0 10-2 14c-2 5-5 9-9 11-4 3-8 4-13 4H261L112 451c-3 4-8 6-13 7-4 1-9 0-14-2s-8-5-11-9-4-9-4-14V304zm354 23c11 0 21 10 21 21 0 12-10 21-21 21H297v97h129c11 0 21 9 21 21 0 11-10 20-21 20H279c-6 0-12-2-16-7-5-4-7-10-7-17V351c0-6 2-12 7-17 4-4 10-6 16-6v-1h145z" style="fill:#ad1b32;fill-rule:nonzero"/><path class="fil3" d="M95 570c-2 1-6 2-10 2-6 0-10-2-14-6-3-3-5-8-5-13s2-10 5-14c4-3 9-5 14-5 4 0 8 0 11 2v8c-4-3-7-4-11-4-3 0-6 1-8 4-2 2-4 5-4 9s2 7 4 9 5 3 8 3c4 0 7-1 10-3v8z"/><path id="_1" class="fil3" d="M142 571h-7v-30h-15v30h-7v-36h29z"/><path id="_2" class="fil3" d="M180 571h-21v-36h21v6h-14v8h13v6h-13v10h14z"/><path id="_3" class="fil3" d="M231 578h-7v-7h-25v-36h7v30h14v-30h7v30h4z"/><path id="_4" class="fil3" d="M276 571h-9l-13-18v18h-7v-36h7v15l13-15h8l-15 16z"/><path id="_5" class="fil3" d="M324 553c0 5-2 10-6 14-4 3-8 5-14 5-5 0-10-2-13-5-4-4-6-9-6-14 0-6 2-10 6-14 3-4 8-5 13-5 6 0 10 1 14 5s6 8 6 14zm-8 0c0-4-1-7-3-9-2-3-5-4-9-4-3 0-6 1-8 4-2 2-3 5-3 9s1 7 3 9 5 3 8 3c4 0 7-1 9-3s3-5 3-9z"/><path id="_6" class="fil3" d="M379 571h-7l-3-18-10 20-11-20-3 18h-7l7-38 14 26 13-26z"/><path id="_7" class="fil3" d="M425 571h-8v-30h-14v30h-8l1-36h29z"/><path id="_8" class="fil3" d="M470 571h-7v-30h-10v18c0 4-1 8-2 10-2 2-4 3-7 3-1 0-3-1-4-1v-6c1 0 2 1 3 1s2-1 2-1c0-1 1-3 1-6v-24h24v36z"/><path id="_9" class="fil3" d="M508 571h-21v-36h21v6h-14v8h13v6h-13v10h14z"/><path id="_10" class="fil3" d="M556 571h-9l-13-18v18h-7v-36h7v15l13-15h8l-15 16z"/><path id="_11" class="fil3" d="M597 541h-9v30h-7v-30h-9v-6h25z"/></g></g></svg>