<?xml version="1.0" encoding="UTF-8"?>
<!DOCTYPE svg PUBLIC "-//W3C//DTD SVG 1.1//EN" "http://www.w3.org/Graphics/SVG/1.1/DTD/svg11.dtd">
<!-- Creator: CorelDRAW X7 -->
<svg xmlns="http://www.w3.org/2000/svg" xml:space="preserve" width="75.261mm" height="55.443mm" version="1.1" style="shape-rendering:geometricPrecision; text-rendering:geometricPrecision; image-rendering:optimizeQuality; fill-rule:evenodd; clip-rule:evenodd"
viewBox="0 0 978 721"
 xmlns:xlink="http://www.w3.org/1999/xlink">
 <defs>
  <style type="text/css">
   <![CDATA[
    .fil1 {fill:none}
    .fil0 {fill:#ABBFCD}
    .fil3 {fill:#5B5B5B;fill-rule:nonzero}
    .fil2 {fill:#AD1B32;fill-rule:nonzero}
   ]]>
  </style>
   <mask id="id0">
  <linearGradient id="id1" gradientUnits="userSpaceOnUse" x1="441.593" y1="204.32" x2="635.983" y2="612.392">
   <stop offset="0" style="stop-opacity:0.305882; stop-color:white"/>
   <stop offset="1" style="stop-opacity:0; stop-color:white"/>
  </linearGradient>
    <rect style="fill:url(#id1)" x="98" y="95" width="881" height="627"/>
   </mask>
 </defs>
 <g id="Слой_x0020_1">
  <metadata id="CorelCorpID_0Corel-Layer"/>
  <path class="fil0" style="mask:url(#id0)" d="M588 96c0,-3 390,625 390,625l-714 0 -165 -263 162 -155 325 0 2 -207z"/>
  <g id="_1340879248">
   <path class="fil1" d="M25 282l61 1c2,0 4,2 4,5l0 145c0,2 1,4 3,4 2,1 3,1 5,-1l153 -153c1,-1 2,-1 3,-1l358 1c1,0 3,-1 3,-3 1,-1 1,-3 0,-4l-45 -46c-1,-1 -1,-2 -1,-3l0 -121c0,-3 -2,-5 -4,-5l-72 0c-2,0 -4,2 -4,5l0 50c0,2 -2,4 -4,4l-65 0c-1,0 -2,0 -3,-1l-136 -137c-2,-2 -5,-2 -6,0l-253 253c-1,1 -2,3 -1,4 1,2 2,3 4,3z"/>
   <path class="fil2" d="M469 348c0,-11 9,-20 20,-20 12,0 21,9 21,20l0 53 21 0 66 -67c8,-8 21,-8 29,0 9,8 9,21 0,29l-57 58 84 71 8 6 0 10 0 91c0,11 -9,21 -20,21 -12,0 -21,-9 -21,-21l0 -81 -89 -76 -21 0 0 45c0,11 -9,20 -21,20 -11,0 -20,-9 -20,-20l0 -64c0,0 0,-1 0,-2 0,0 0,-1 0,-1l0 -72zm-405 -86l23 1c6,0 12,3 17,7 4,5 7,11 7,18l0 106 125 -125 0 0c3,-3 5,-5 8,-6 4,-1 7,-2 10,-2l0 0 319 1 -18 -18 0 0c-2,-2 -4,-5 -5,-8 -1,-3 -2,-6 -2,-9l0 -105 -38 0 0 34c0,6 -3,13 -8,17l0 0c-4,5 -11,8 -17,8l-65 0c-3,0 -6,-1 -9,-2 -3,-2 -6,-3 -8,-6l0 0 -125 -125 -214 214zm6 42l-46 -2c-5,0 -9,-1 -13,-4l0 0c-4,-3 -7,-6 -9,-11 -2,-5 -2,-10 -2,-14 1,-5 4,-9 7,-13l0 0 253 -253 0 0c5,-5 11,-7 18,-7 6,0 12,2 17,7l132 132 41 0 0 -33c0,-7 3,-13 7,-18 5,-4 11,-7 18,-7l72 0c7,0 13,3 17,7 5,5 8,11 8,18l0 114 39 41 0 0c4,4 6,8 7,13 1,5 0,10 -2,14l0 0c-2,5 -5,9 -9,11l0 0c-4,3 -8,4 -13,4l-351 0 -149 148 0 0c-3,4 -8,6 -13,7 -4,1 -9,0 -14,-2l0 0c-5,-2 -8,-5 -11,-9 -3,-4 -4,-9 -4,-14l0 -129zm354 23c11,0 21,10 21,21 0,12 -10,21 -21,21l-124 0 -3 0 0 1 0 0 0 96 129 0c11,0 21,9 21,21 0,11 -10,20 -21,20l-147 0c-6,0 -12,-2 -16,-7 -5,-4 -7,-10 -7,-17l0 -113 0 0 0 -19c0,-6 2,-12 7,-17 4,-4 10,-6 16,-6l0 -1 21 0 124 0z"/>
   <path class="fil3" d="M95 570c-2,1 -6,2 -10,2 -6,0 -10,-2 -14,-6 -3,-3 -5,-8 -5,-13 0,-5 2,-10 5,-14 4,-3 9,-5 14,-5 4,0 8,0 11,2l0 8c-4,-3 -7,-4 -11,-4 -3,0 -6,1 -8,4 -2,2 -4,5 -4,9 0,4 2,7 4,9 2,2 5,3 8,3 4,0 7,-1 10,-3l0 8z"/>
   <polygon id="_1" class="fil3" points="142,571 135,571 135,541 120,541 120,571 113,571 113,535 142,535 "/>
   <polygon id="_2" class="fil3" points="180,571 159,571 159,535 180,535 180,541 166,541 166,549 179,549 179,555 166,555 166,565 180,565 "/>
   <polygon id="_3" class="fil3" points="231,578 224,578 224,571 199,571 199,535 206,535 206,565 220,565 220,535 227,535 227,565 231,565 "/>
   <polygon id="_4" class="fil3" points="276,571 267,571 254,553 254,571 247,571 247,535 254,535 254,550 267,535 275,535 260,551 "/>
   <path id="_5" class="fil3" d="M324 553c0,5 -2,10 -6,14 -4,3 -8,5 -14,5 -5,0 -10,-2 -13,-5 -4,-4 -6,-9 -6,-14 0,-6 2,-10 6,-14 3,-4 8,-5 13,-5 6,0 10,1 14,5 4,4 6,8 6,14zm-8 0c0,-4 -1,-7 -3,-9 -2,-3 -5,-4 -9,-4 -3,0 -6,1 -8,4 -2,2 -3,5 -3,9 0,4 1,7 3,9 2,2 5,3 8,3 4,0 7,-1 9,-3 2,-2 3,-5 3,-9z"/>
   <polygon id="_6" class="fil3" points="379,571 372,571 369,553 359,573 348,553 345,571 338,571 345,533 359,559 372,533 "/>
   <polygon id="_7" class="fil3" points="425,571 417,571 417,541 403,541 403,571 395,571 396,535 425,535 "/>
   <path id="_8" class="fil3" d="M470 571l-7 0 0 -30 -10 0 0 18c0,4 -1,8 -2,10 -2,2 -4,3 -7,3 -1,0 -3,-1 -4,-1l0 -6c1,0 2,1 3,1 1,0 2,-1 2,-1 0,-1 1,-3 1,-6l0 -24 24 0 0 36 0 0z"/>
   <polygon id="_9" class="fil3" points="508,571 487,571 487,535 508,535 508,541 494,541 494,549 507,549 507,555 494,555 494,565 508,565 "/>
   <polygon id="_10" class="fil3" points="556,571 547,571 534,553 534,571 527,571 527,535 534,535 534,550 547,535 555,535 540,551 "/>
   <polygon id="_11" class="fil3" points="597,541 588,541 588,571 581,571 581,541 572,541 572,535 597,535 "/>
  </g>
 </g>
</svg>
