<svg xmlns="http://www.w3.org/2000/svg" width="232" height="70" fill="none" viewBox="0 0 232 89"><path fill="gold" fill-rule="evenodd" d="M33.17 1.934a14.71 14.71 0 0 1 14.579 0c7.326 4.188 18.557 10.602 25.883 14.79 4.51 2.577 7.287 7.337 7.287 12.492v29.573c0 5.155-2.776 9.915-7.287 12.493-7.326 4.187-18.557 10.601-25.883 14.789a14.71 14.71 0 0 1-14.578 0c-7.327-4.188-18.558-10.602-25.884-14.79C2.777 68.705 0 63.945 0 58.79V29.211c0-5.15 2.777-9.915 7.287-12.492C14.613 12.536 25.844 6.117 33.17 1.934Z" clip-rule="evenodd"/><path fill="#fff" fill-rule="evenodd" d="m23.107 59.332-5.15-2.962V38.29c0-4.944 2.665-9.517 6.994-11.989l15.82-9.04 15.82 9.04c4.33 2.472 6.996 7.045 6.996 11.99V56.37l-15.75 9a14.308 14.308 0 0 1-14.14.018" clip-rule="evenodd"/><path fill="#000" d="M40.754 69.65c-2.857 0-5.718-.727-8.269-2.175a2.396 2.396 0 0 1-.898-3.286 2.45 2.45 0 0 1 3.321-.889c3.613 2.057 8.1 2.048 11.713-.013l14.538-8.305V38.29c0-4.074-2.215-7.867-5.779-9.906L40.771 20.04l-14.604 8.348c-3.564 2.035-5.78 5.833-5.78 9.906v16.697l3.94 2.267a2.39 2.39 0 0 1 .88 3.29 2.443 2.443 0 0 1-3.325.87l-5.151-2.961a2.408 2.408 0 0 1-1.212-2.083V38.29c0-5.789 3.149-11.18 8.211-14.072l15.82-9.04a2.46 2.46 0 0 1 2.433 0l15.82 9.04c5.063 2.892 8.21 8.283 8.21 14.072v18.08c0 .857-.463 1.653-1.215 2.082l-15.75 9a16.751 16.751 0 0 1-8.294 2.197Z"/><path fill="#000" d="M63.237 57.638a1.42 1.42 0 0 1-.716-.192l-22.44-12.82a1.41 1.41 0 0 1-.716-1.23V17.751c0-.783.646-1.422 1.437-1.422.792 0 1.437.64 1.437 1.422v24.823l21.723 12.413c.686.394.925 1.26.527 1.943a1.46 1.46 0 0 1-1.252.708Z"/><path fill="#000" d="M18.363 57.638c-.496 0-.982-.253-1.247-.713a1.412 1.412 0 0 1 .526-1.943l22.44-12.82a1.443 1.443 0 0 1 1.962.52 1.412 1.412 0 0 1-.526 1.944l-22.44 12.82a1.42 1.42 0 0 1-.715.192Z"/><path fill="#fff" fill-rule="evenodd" d="m27.304 60.023 7.742 4.415-7.587 3.325-7.897-.135-3.378-3.076 8.79-5.159 2.33.63Z" clip-rule="evenodd"/><path fill="#000" d="M15.644 66.03c-.495 0-.982-.253-1.247-.713a1.412 1.412 0 0 1 .526-1.942l9.029-5.16a1.443 1.443 0 0 1 1.963.522 1.412 1.412 0 0 1-.526 1.942l-9.029 5.159a1.42 1.42 0 0 1-.716.193Z"/><path fill="#000" d="M24.49 70.48c-1.649 0-3.081-.249-4.253-.577-3.497-.984-5.492-2.87-5.708-3.08a2.392 2.392 0 0 1-.018-3.404 2.454 2.454 0 0 1 3.427-.031c.256.24 5.593 5.071 14.366-.123a2.443 2.443 0 0 1 3.333.832 2.39 2.39 0 0 1-.84 3.299c-3.948 2.345-7.454 3.085-10.306 3.085ZM110.326 53.889c-.176.822-.557 1.592-1.14 2.305-.584.714-1.428 1.313-2.534 1.808-1.105.494-2.582.743-4.439.743-.792 0-1.601-.096-2.423-.293a7.685 7.685 0 0 1-2.25-.914 5.616 5.616 0 0 1-1.69-1.593c-.446-.648-.703-1.426-.765-2.336h4.409c.207.822.614 1.395 1.22 1.715.606.32 1.3.477 2.096.477 1.251 0 2.162-.372 2.732-1.112.571-.743.849-1.68.827-2.813V49.77h-.062a4.384 4.384 0 0 1-2.047 1.873 6.677 6.677 0 0 1-2.799.604c-1.207 0-2.25-.21-3.126-.635a5.944 5.944 0 0 1-2.158-1.732c-.561-.731-.972-1.589-1.233-2.569-.261-.98-.39-2.017-.39-3.106 0-1.033.151-2.026.456-2.985.3-.958.743-1.802 1.327-2.537a6.441 6.441 0 0 1 2.17-1.746c.863-.433 1.862-.648 2.985-.648 1.061 0 1.994.197 2.799.587.8.393 1.472 1.05 2.016 1.977h.062V36.72h4.218v14.969c.005.647-.084 1.378-.261 2.2Zm-6.079-5.317c.477-.249.875-.577 1.189-.989.314-.41.548-.879.703-1.408a5.813 5.813 0 0 0 .235-1.654 9.08 9.08 0 0 0-.186-1.873 4.642 4.642 0 0 0-.624-1.562 3.172 3.172 0 0 0-1.158-1.08c-.478-.268-1.083-.403-1.813-.403-.623 0-1.163.122-1.609.371-.447.25-.823.583-1.123 1.007-.301.424-.522.906-.655 1.453a7.038 7.038 0 0 0-.203 1.715c0 .577.057 1.15.172 1.715a4.68 4.68 0 0 0 .593 1.531c.283.455.65.823 1.11 1.112.459.288 1.03.433 1.72.433.619 0 1.171-.123 1.649-.368ZM118.904 48.879c.668.639 1.623.958 2.874.958.898 0 1.667-.223 2.313-.665.645-.442 1.043-.91 1.189-1.41h3.905c-.624 1.917-1.583 3.291-2.874 4.114-1.292.823-2.857 1.238-4.687 1.238-1.274 0-2.419-.201-3.436-.604a7.226 7.226 0 0 1-2.595-1.715 7.712 7.712 0 0 1-1.641-2.66c-.384-1.033-.579-2.166-.579-3.404 0-1.195.199-2.31.593-3.339a7.752 7.752 0 0 1 1.689-2.673 7.961 7.961 0 0 1 2.608-1.777c1.013-.433 2.131-.647 3.361-.647 1.375 0 2.573.262 3.594.787a7.143 7.143 0 0 1 2.516 2.118 8.716 8.716 0 0 1 1.42 3.032 11.32 11.32 0 0 1 .314 3.558h-11.656c.062 1.422.425 2.45 1.092 3.089Zm5.019-8.41c-.531-.578-1.34-.866-2.423-.866-.708 0-1.296.118-1.764.354-.469.236-.845.53-1.123.88a3.2 3.2 0 0 0-.593 1.11 5.092 5.092 0 0 0-.203 1.051h7.22c-.217-1.107-.584-1.951-1.114-2.529ZM140.968 36.728v2.936h-3.25v7.915c0 .744.124 1.238.376 1.483.252.25.752.372 1.499.372a7.096 7.096 0 0 0 1.375-.123v3.4c-.376.062-.791.106-1.251.123-.46.022-.906.03-1.344.03-.686 0-1.34-.047-1.955-.14-.614-.091-1.154-.27-1.622-.542a2.846 2.846 0 0 1-1.11-1.146c-.27-.495-.407-1.147-.407-1.947v-9.425h-2.688v-2.936h2.688v-4.796h4.439v4.796h3.25ZM149.718 30.633v18h10.877v4.083h-15.781V30.633h4.904ZM162.342 41.257c.393-1.042.959-1.93 1.689-2.66a7.597 7.597 0 0 1 2.626-1.703c1.021-.402 2.167-.604 3.436-.604 1.269 0 2.423.202 3.453.604 1.03.403 1.91.971 2.639 1.702.73.73 1.292 1.62 1.69 2.66.393 1.042.592 2.201.592 3.48 0 1.277-.199 2.432-.592 3.465-.398 1.032-.96 1.911-1.69 2.642a7.349 7.349 0 0 1-2.639 1.685c-1.03.39-2.184.586-3.453.586-1.274 0-2.419-.197-3.436-.586a7.374 7.374 0 0 1-2.626-1.685c-.73-.73-1.292-1.614-1.689-2.643-.398-1.032-.593-2.183-.593-3.465 0-1.278.199-2.437.593-3.478Zm4.032 5.35c.124.609.34 1.156.641 1.642.301.485.703.87 1.203 1.16.499.288 1.123.432 1.875.432.751 0 1.379-.144 1.892-.433a3.395 3.395 0 0 0 1.22-1.16 4.954 4.954 0 0 0 .641-1.64 9.558 9.558 0 0 0 0-3.759 4.81 4.81 0 0 0-.641-1.64 3.502 3.502 0 0 0-1.22-1.16c-.513-.298-1.141-.45-1.892-.45-.752 0-1.376.148-1.875.45-.5.297-.902.687-1.203 1.16a4.76 4.76 0 0 0-.641 1.64 9.558 9.558 0 0 0 0 3.759ZM189.061 39.603c-.707 0-1.304.161-1.782.48-.477.32-.871.732-1.172 1.24a5.367 5.367 0 0 0-.641 1.67 8.678 8.678 0 0 0 0 3.57c.124.6.327 1.139.61 1.624.283.486.664.88 1.141 1.19.478.311 1.061.464 1.751.464 1.061 0 1.879-.293 2.454-.88.57-.585.933-1.373 1.079-2.366h4.28c-.292 2.122-1.123 3.74-2.498 4.856-1.375 1.112-3.135 1.672-5.28 1.672-1.207 0-2.316-.201-3.329-.604-1.012-.402-1.87-.963-2.578-1.684a7.747 7.747 0 0 1-1.658-2.582c-.398-1.002-.592-2.096-.592-3.295 0-1.238.181-2.384.548-3.448a7.734 7.734 0 0 1 1.609-2.752 7.297 7.297 0 0 1 2.596-1.807c1.021-.429 2.189-.648 3.502-.648.959 0 1.879.123 2.768.372.884.25 1.675.622 2.374 1.13a6.064 6.064 0 0 1 1.702 1.885c.438.753.686 1.645.752 2.674h-4.342c-.305-1.843-1.397-2.761-3.294-2.761ZM210.219 52.716v-2.227h-.093c-.562.928-1.291 1.597-2.189 2.008a6.532 6.532 0 0 1-2.75.617c-1.189 0-2.162-.153-2.923-.464-.76-.31-1.362-.748-1.795-1.312-.438-.565-.747-1.256-.92-2.074a12.813 12.813 0 0 1-.265-2.704v-9.832h4.439v9.03c0 1.322.208 2.307.624 2.954.416.648 1.158.976 2.22.976 1.207 0 2.082-.354 2.626-1.068.539-.708.813-1.881.813-3.509v-8.383h4.44v15.988h-4.227ZM221.547 48.743c.199.341.451.617.765.836.314.218.672.376 1.079.481a5.02 5.02 0 0 0 1.264.153c.314 0 .641-.035.986-.11.345-.07.654-.183.937-.34.283-.154.518-.36.703-.617.186-.259.283-.582.283-.976 0-.66-.442-1.155-1.326-1.483-.884-.329-2.118-.661-3.705-.99a21.82 21.82 0 0 1-1.893-.511 6.5 6.5 0 0 1-1.64-.775 3.792 3.792 0 0 1-1.159-1.207c-.291-.486-.437-1.077-.437-1.777 0-1.032.203-1.877.61-2.533a4.496 4.496 0 0 1 1.609-1.562 7.192 7.192 0 0 1 2.251-.805 14.14 14.14 0 0 1 2.56-.232c.871 0 1.724.083 2.547.25.822.165 1.556.441 2.202.835.645.394 1.18.91 1.609 1.562.429.652.681 1.47.765 2.459h-4.218c-.062-.845-.385-1.418-.968-1.715-.584-.298-1.274-.447-2.065-.447-.248 0-.522.018-.814.049a2.65 2.65 0 0 0-.796.2 1.72 1.72 0 0 0-.61.447c-.168.197-.252.46-.252.788 0 .394.146.709.438.958.292.25.672.45 1.141.604.468.153 1.003.293 1.609.416.606.122 1.22.258 1.844.402.645.144 1.273.32 1.892.525a6.303 6.303 0 0 1 1.641.818c.477.342.866.762 1.158 1.27.292.507.438 1.128.438 1.872 0 1.05-.212 1.934-.641 2.643a5.151 5.151 0 0 1-1.672 1.715c-.685.433-1.472.735-2.361.91a13.888 13.888 0 0 1-5.452-.017 7.266 7.266 0 0 1-2.392-.928 5.351 5.351 0 0 1-1.72-1.715c-.446-.71-.694-1.602-.734-2.674h4.219c.008.473.106.88.305 1.221Z"/></svg>