<svg xmlns="http://www.w3.org/2000/svg" width="122" height="32" fill="none"><path fill="#fff" d="M71.311 3.729C69.014 1.341 65.9 0 62.653 0s-6.361 1.341-8.659 3.729a12.326 12.326 0 0 0-2.666 4.128 12.727 12.727 0 0 0-.875 4.889 12.727 12.727 0 0 0 .875 4.89 12.326 12.326 0 0 0 2.666 4.127c1.968 2.083 4.574 3.386 7.366 3.685h.154c.35-.003.696-.079 1.018-.222.322-.143.614-.352.858-.613.249-.26.445-.568.577-.908a2.84 2.84 0 0 0 .19-1.07 3.004 3.004 0 0 0-.188-.995 2.667 2.667 0 0 0-.59-.934 2.721 2.721 0 0 0-1.488-.761 6.546 6.546 0 0 1-4.155-2.076 6.944 6.944 0 0 1-1.541-2.338 7.175 7.175 0 0 1-.513-2.785c-.015-.953.16-1.9.513-2.779a6.918 6.918 0 0 1 1.541-2.331 6.93 6.93 0 0 1 2.255-1.573 6.706 6.706 0 0 1 2.662-.552c.913 0 1.818.188 2.661.552.844.365 1.61.9 2.255 1.573A7.238 7.238 0 0 1 68.927 9.6c.321.689.533 1.427.625 2.187.016.529.178 1.042.467 1.478.289.436.693.776 1.162.979.483.21 1.016.266 1.53.158a2.592 2.592 0 0 0 1.35-.76c.263-.26.468-.576.602-.926.135-.35.195-.725.178-1.101-.242-2.981-1.493-5.776-3.53-7.887ZM0 10.682h5.69v3.01A7.36 7.36 0 0 1 7.885 11.1a5.076 5.076 0 0 1 2.928-.836 4.905 4.905 0 0 1 2.916.836 5.352 5.352 0 0 1 1.853 2.346 5.912 5.912 0 0 1 2.19-2.393 5.598 5.598 0 0 1 3.075-.825 4.696 4.696 0 0 1 2.88.909 5.856 5.856 0 0 1 1.913 2.64c.48 1.293.712 2.67.684 4.055v7.37H20.34v-7.37a4.215 4.215 0 0 0-.495-2.273 1.599 1.599 0 0 0-.586-.576 1.521 1.521 0 0 0-.784-.198c-.32.003-.636.082-.922.231a2.122 2.122 0 0 0-.73.63 3.175 3.175 0 0 0-.697 2.063v7.494h-5.902v-7.371a4.214 4.214 0 0 0-.496-2.273 1.619 1.619 0 0 0-.629-.598 1.541 1.541 0 0 0-.835-.176 2 2 0 0 0-.917.23c-.285.15-.532.365-.724.63a3.214 3.214 0 0 0-.684 2.064v7.494H0v-14.52ZM34.93 31.677l.484-4.361c.675.111 1.358.169 2.042.172.473.033.947-.043 1.388-.224.44-.18.837-.46 1.162-.82a6.48 6.48 0 0 0 .909-3.932 5.093 5.093 0 0 1-1.932 2.22 4.807 4.807 0 0 1-2.79.729 5.008 5.008 0 0 1-2.403-.492 5.222 5.222 0 0 1-1.918-1.584 9.005 9.005 0 0 1-1.546-5.59v-7.37h5.902v8.28c-.024.607.17 1.202.543 1.67.181.22.408.394.664.51.256.114.533.167.812.153.31.003.615-.075.889-.224.273-.15.508-.369.68-.636a3.796 3.796 0 0 0 .615-2.236v-7.469h5.973V21.53c0 3.423-.736 6.027-2.208 7.813a7.866 7.866 0 0 1-2.858 2.063 7.586 7.586 0 0 1-3.434.578c-.999.01-1.996-.093-2.974-.307ZM99.359 7.415a2.773 2.773 0 0 1-.688-.963 2.874 2.874 0 0 1-.233-1.175 2.77 2.77 0 0 1 .248-1.18c.168-.367.414-.691.72-.945a3.23 3.23 0 0 1 2.208-.86 3.183 3.183 0 0 1 2.266.872c.3.26.541.584.707.952a2.867 2.867 0 0 1 0 2.347 2.757 2.757 0 0 1-.707.952 3.265 3.265 0 0 1-2.243.86 3.148 3.148 0 0 1-2.278-.86Zm.578 16.498a6.55 6.55 0 0 1-1.334-4.337v-9.103h6.009v8.82a1.455 1.455 0 0 0 .354 1.045c.121.124.265.22.424.284.158.063.327.092.497.085a2.29 2.29 0 0 0 1.18-.357l.354 4.103a4.306 4.306 0 0 1-1.629.762c-.679.18-1.377.27-2.077.27a4.56 4.56 0 0 1-2.063-.352 4.72 4.72 0 0 1-1.715-1.245v.025ZM109.889 22.095l4.981-7.838h-4.793v-3.784h11.805v3.182l-4.722 7.813H122v3.772h-12.111v-3.145ZM88.782 10.473v8.342a2.18 2.18 0 0 1-.496 1.523 1.663 1.663 0 0 1-.576.411 1.608 1.608 0 0 1-.687.13 1.72 1.72 0 0 1-.715-.128 1.777 1.777 0 0 1-.607-.413 2.067 2.067 0 0 1-.41-.706 2.127 2.127 0 0 1-.11-.817v-4.128a4.876 4.876 0 0 1-.33.418l-5.288 5.503c.157.612.408 1.192.743 1.72a6.338 6.338 0 0 0 2.704 2.285c1.253.57 2.61.85 3.978.823a8.843 8.843 0 0 0 3.907-.823 6.337 6.337 0 0 0 2.644-2.31c.64-1.021.97-2.22.945-3.44v-8.39h-5.702Z"/><path fill="#65C15D" d="M82.432 10.236a1.69 1.69 0 0 0-1.229-.54c-.46 0-.903.194-1.229.54l-9.205 9.762-3.409-3.615a1.755 1.755 0 0 0-.564-.459 1.66 1.66 0 0 0-1.987.361 1.86 1.86 0 0 0-.388.633 1.946 1.946 0 0 0 .057 1.476c.105.228.253.431.436.596l5.866 6.222 11.652-12.37c.326-.346.509-.814.509-1.303s-.183-.957-.509-1.303Z"/></svg>