<svg width="297" height="78" viewBox="0 0 297 78" fill="none" xmlns="http://www.w3.org/2000/svg">
<path fill-rule="evenodd" clip-rule="evenodd" d="M11.143 25.2358C12.1794 25.0084 13.421 24.8929 14.8324 24.8929C16.2842 24.8929 17.9171 25.0165 19.6865 25.2609C25.4498 26.0567 32.3948 27.9674 40.3282 30.941C40.4618 30.991 41.232 31.285 41.3334 31.3247C41.8235 31.5155 42.308 31.7069 42.7869 31.8987L43.5249 36.981C42.3005 36.4647 41.0284 35.9492 39.7092 35.4355C39.6235 35.4019 38.8693 35.1143 38.7574 35.0725C30.9441 32.1438 24.3075 30.357 19.0736 29.6343C17.3156 29.3911 15.9202 29.3083 14.8324 29.3083C13.4849 29.3083 12.6105 29.4361 12.1051 29.5471C11.8454 29.6101 11.328 29.7655 11.1609 30.1945C10.9945 30.6242 11.2717 31.0836 11.4241 31.3068C12.378 32.6433 14.2206 34.2842 16.6133 35.9246C20.968 38.9108 27.1313 41.9018 34.8873 44.9428C34.9762 44.9775 35.9308 45.3425 36.0258 45.3772C38.3793 46.2538 40.6223 47.0371 42.7513 47.7225L42.2877 52.2129C39.8538 51.4488 37.2502 50.5497 34.4628 49.5119C34.3464 49.4686 33.3629 49.0931 33.2539 49.0498C24.8855 45.7694 18.6152 42.6641 14.0847 39.5578C12.0969 38.1947 9.39216 36.0991 7.79358 33.8579L7.76851 33.8232L7.74438 33.788C7.40062 33.2853 7.1452 32.7836 6.96296 32.2537C6.54262 31.031 6.55855 29.7704 7.01045 28.6073C7.46235 27.4429 8.3038 26.4965 9.44445 25.8692C9.93735 25.5989 10.4657 25.3978 11.059 25.256L11.1009 25.2457L11.143 25.2358Z" fill="#64CCE2"/>
<path fill-rule="evenodd" clip-rule="evenodd" d="M55.0233 25.2609C56.7927 25.0165 58.4262 24.8929 59.878 24.8929C61.2898 24.8929 62.5304 25.0084 63.5674 25.2358L63.6094 25.2457L63.6508 25.256C64.2447 25.3978 64.7724 25.5989 65.2652 25.8692C66.4065 26.4965 67.2485 27.4429 67.7 28.6073C68.1512 29.7704 68.1672 31.031 67.7475 32.2537C67.5652 32.7836 67.3092 33.2859 66.9654 33.7885L66.9413 33.8232L66.9168 33.8579C65.3183 36.0991 62.6127 38.1947 60.6251 39.5578C56.0946 42.6641 49.8248 45.7694 41.457 49.0498C41.3469 49.0931 40.3628 49.4686 40.247 49.5119C37.2967 50.6105 34.5522 51.5536 31.9967 52.3458L31.2406 47.9513C33.5816 47.2132 36.0646 46.3529 38.6845 45.3772C38.7795 45.3425 39.734 44.9775 39.823 44.9428C47.5789 41.9018 53.7424 38.9108 58.0965 35.9246C60.4892 34.2842 62.3329 32.6433 63.2863 31.3068C63.4379 31.0836 63.7153 30.6242 63.5489 30.1945C63.3824 29.7655 62.8644 29.6101 62.6047 29.5471C62.0993 29.4361 61.2249 29.3083 59.878 29.3083C58.7902 29.3083 57.3942 29.3911 55.6362 29.6343C50.4023 30.357 43.7657 32.1438 35.9524 35.0725C35.841 35.1143 35.0862 35.4019 35.0011 35.4355C33.3882 36.0635 31.8459 36.6942 30.3751 37.3257L29.6016 32.8507C30.8203 32.3388 32.079 31.83 33.3768 31.3247C33.4789 31.285 34.2484 30.991 34.3812 30.941C42.315 27.9674 49.2604 26.0567 55.0233 25.2609Z" fill="#EF3148"/>
<path d="M40.3563 40.2105C40.3563 41.8563 39.0126 43.1907 37.3546 43.1907C35.6966 43.1907 34.3528 41.8563 34.3528 40.2105C34.3528 38.5646 35.6966 37.2309 37.3546 37.2309C39.0126 37.2309 40.3563 38.5646 40.3563 40.2105Z" fill="#EF3148"/>
<path d="M63.5485 50.2238C63.3825 50.6529 62.8657 50.8093 62.6026 50.8728C61.8195 51.0461 60.8322 51.1328 59.6931 51.1328C58.4887 51.1328 57.1144 51.0363 55.6331 50.8424C52.2614 50.4025 48.3284 49.4615 43.88 48.0767C43.3992 48.2735 42.9063 48.4711 42.4097 48.6689C42.0931 53.4564 41.52 57.5726 40.7271 60.9456C39.8233 64.7866 38.8212 66.6579 38.3037 67.4314C38.1515 67.6504 37.8197 68.0735 37.3559 68.0735C36.8924 68.0735 36.5594 67.6509 36.4056 67.4303C35.4915 66.0668 34.611 63.7686 33.9289 60.964C33.0485 57.3435 32.4923 52.8788 32.2179 47.6385C27.193 49.2675 22.7962 50.3575 19.0768 50.8424C17.595 51.0363 16.2213 51.1328 15.0168 51.1328C13.8778 51.1328 12.8899 51.0461 12.1072 50.8728C11.8442 50.8093 11.3279 50.6529 11.1609 50.2238C10.9944 49.7941 11.2727 49.3342 11.4234 49.1147C11.9653 48.3573 13.3642 46.757 16.6508 44.5392C20.4713 41.9614 25.637 39.2727 32.07 36.6117C32.2485 29.6896 32.8412 23.9302 33.9289 19.457C34.611 16.6523 35.4915 14.3547 36.4056 12.9906C36.5594 12.77 36.8924 12.3474 37.3559 12.3474C37.8197 12.3474 38.1515 12.7711 38.3037 12.99C38.8212 13.7632 39.8233 15.6344 40.7271 19.4759C41.7777 23.9421 42.4483 29.6939 42.6377 36.611C49.0718 39.2722 54.2387 41.9609 58.0591 44.5392C61.3458 46.757 62.7445 48.3573 63.286 49.1147C63.4365 49.3342 63.7155 49.7941 63.5485 50.2238ZM67.7443 48.1586C67.5621 47.6299 67.3061 47.1297 66.9623 46.6286L66.9377 46.5928L66.9126 46.5583C66.0404 45.3382 64.2295 43.3634 60.5604 40.8871C56.9469 38.4493 52.3869 36.021 46.9783 33.6536C46.6961 27.7935 46.0527 22.6967 45.0583 18.4714C44.0497 14.1824 42.8445 11.7955 42.0107 10.5488L41.9867 10.5131L41.9626 10.4774C41.6149 9.97895 41.2362 9.56232 40.8046 9.20312C39.8058 8.37155 38.6132 7.93219 37.3559 7.93219C36.101 7.93219 34.9102 8.37047 33.9115 9.19882C33.4786 9.55802 33.0988 9.97572 32.7501 10.4741L32.7259 10.5094L32.702 10.5445C31.169 12.8313 30.1717 16.0905 29.6047 18.4211C28.6126 22.5021 27.9925 27.5069 27.7218 33.6575C22.3165 36.0243 17.761 38.4503 14.1501 40.8871C10.4798 43.3634 8.66946 45.3382 7.79675 46.5583L7.77169 46.5928L7.74771 46.6286C7.4038 47.1297 7.14791 47.6299 6.96551 48.1591C6.54254 49.3835 6.55786 50.6458 7.00976 51.8104C7.46104 52.9731 8.3011 53.9191 9.43897 54.5458C9.93186 54.8178 10.4607 55.0193 11.0555 55.1635L11.0971 55.1731L11.139 55.183C12.2355 55.4251 13.5399 55.5486 15.0168 55.5486C16.4286 55.5486 17.9901 55.438 19.6564 55.2203C22.2204 54.8861 25.0443 54.301 28.2 53.4487C28.5323 56.6787 28.9978 59.5045 29.6047 62.0003C30.1717 64.3315 31.169 67.5896 32.702 69.8764L32.7259 69.9117L32.7501 69.9468C33.0988 70.4463 33.4786 70.8629 33.9115 71.2221C34.9102 72.0515 36.101 72.4893 37.3559 72.4893C38.6132 72.4893 39.8058 72.05 40.8046 71.2178C41.2362 70.8586 41.6149 70.442 41.9626 69.9436L41.9867 69.9078L42.0107 69.8721C42.8445 68.6255 44.0497 66.2391 45.0583 61.9495C45.652 59.427 46.1225 56.5774 46.4647 53.4363C49.6384 54.2955 52.4769 54.8844 55.0529 55.2203C56.7198 55.438 58.2808 55.5486 59.6931 55.5486C61.1701 55.5486 62.4749 55.4251 63.5708 55.183L63.6123 55.1731L63.6544 55.1635C64.2492 55.0199 64.7775 54.8178 65.2709 54.5458C66.4094 53.9191 67.2488 52.9731 67.7001 51.8104C68.152 50.6458 68.1669 49.3835 67.7443 48.1586Z" fill="#3065B4"/>
<path d="M81.1226 50.6522H82.1982L84.7662 55.4999L87.3351 50.6522H88.3666V58.278H87.3351V52.5033L85.1285 56.6435H84.3601L82.1546 52.5033V58.278H81.1226V50.6522Z" fill="#0F234D"/>
<path d="M92.6608 53.2662C92.4332 53.2662 92.2149 53.2971 92.002 53.3593C91.7892 53.421 91.6015 53.5192 91.4372 53.6535C91.2718 53.7879 91.1382 53.9564 91.0367 54.1595C90.9335 54.3632 90.8821 54.606 90.8821 54.8898H94.3833C94.3768 54.5918 94.3265 54.3394 94.236 54.1319C94.1436 53.9255 94.0214 53.7586 93.8675 53.6313C93.7146 53.504 93.533 53.4114 93.3251 53.3539C93.1161 53.2954 92.8944 53.2662 92.6608 53.2662ZM92.7154 58.3868C92.3427 58.3868 91.9873 58.3283 91.6512 58.2124C91.3144 58.0964 91.0175 57.9166 90.7616 57.6729C90.5056 57.4296 90.3009 57.1234 90.1476 56.7524C89.9932 56.3823 89.9167 55.9462 89.9167 55.4451V55.2273C89.9167 54.7479 89.9898 54.3318 90.1366 53.9802C90.2829 53.6276 90.4777 53.334 90.7234 53.0976C90.9689 52.8621 91.2539 52.6848 91.5797 52.5689C91.9044 52.4536 92.2471 52.3951 92.6057 52.3951C93.4615 52.3951 94.124 52.6269 94.5923 53.0922C95.0606 53.5571 95.2942 54.2148 95.2942 55.0638V55.6737H90.8821C90.8821 56.0162 90.9373 56.3021 91.0475 56.5346C91.1567 56.7676 91.2997 56.9556 91.4754 57.1018C91.6512 57.2464 91.8466 57.3521 92.0621 57.417C92.2782 57.4826 92.4954 57.5145 92.7154 57.5145C93.1541 57.5145 93.4931 57.4431 93.7311 57.2968C93.9685 57.1521 94.1382 56.9523 94.2414 56.6988H95.185C95.1267 56.974 95.0218 57.2172 94.8717 57.4279C94.7216 57.6392 94.5394 57.8148 94.3233 57.9562C94.1071 58.0981 93.8621 58.2053 93.5881 58.2779C93.3136 58.35 93.0226 58.3868 92.7154 58.3868Z" fill="#0F234D"/>
<path d="M98.0906 55.3038L96.0052 52.5033H97.0809L98.8591 54.9223H99.5287V52.5033H100.495V54.9223H101.152L102.963 52.5033H104.017L101.932 55.2706L104.127 58.2779H102.985L101.152 55.7501H100.495V58.2779H99.5287V55.7501H98.8591L97.0148 58.2779H95.8955L98.0906 55.3038Z" fill="#0F234D"/>
<path d="M109.367 57.428V53.3539H107.216V54.2468C107.216 54.5518 107.205 54.8552 107.183 55.1568C107.161 55.4586 107.128 55.7447 107.084 56.0177C107.041 56.2897 106.988 56.5471 106.926 56.7908C106.864 57.034 106.792 57.2464 106.711 57.428H109.367ZM105.01 57.428H105.724C105.804 57.3191 105.878 57.1521 105.943 56.9273C106.009 56.702 106.068 56.4371 106.119 56.1315C106.169 55.8265 106.208 55.4939 106.233 55.1352C106.26 54.7755 106.272 54.4067 106.272 54.029V52.5033H110.333V57.428H111.156V59.6393H110.234V58.2779H105.932V59.6393H105.01V57.428Z" fill="#0F234D"/>
<path d="M113.045 60.5658C112.934 60.5658 112.825 60.5549 112.716 60.5333V59.6616C112.825 59.6833 112.934 59.6942 113.045 59.6942C113.154 59.6942 113.249 59.6762 113.329 59.6393C113.41 59.6036 113.487 59.5343 113.56 59.4329C113.633 59.3311 113.712 59.1875 113.796 59.0028C113.88 58.817 113.977 58.5759 114.087 58.2779L111.617 52.5033H112.692L114.581 57.1885L116.293 52.5033H117.325L115.129 58.2779C114.977 58.6847 114.829 59.0332 114.69 59.3236C114.551 59.614 114.404 59.8523 114.246 60.0375C114.089 60.2229 113.915 60.3573 113.725 60.44C113.534 60.524 113.308 60.5658 113.045 60.5658Z" fill="#0F234D"/>
<path d="M118.5 52.5033H119.465V54.9114H122.473V52.5033H123.439V58.2779H122.473V55.7614H119.465V58.2779H118.5V52.5033Z" fill="#0F234D"/>
<path d="M127.086 57.5145C127.312 57.5145 127.527 57.4848 127.728 57.423C127.929 57.3613 128.106 57.2698 128.261 57.1506C128.414 57.0303 128.535 56.8835 128.623 56.7091C128.71 56.5346 128.755 56.3315 128.755 56.099V55.7067H127.031C126.672 55.7067 126.391 55.7777 126.186 55.9191C125.981 56.061 125.878 56.2843 125.878 56.5893C125.878 56.8585 125.976 57.0796 126.169 57.2535C126.363 57.4279 126.669 57.5145 127.086 57.5145ZM126.877 58.3868C126.556 58.3868 126.271 58.3418 126.027 58.2509C125.782 58.1605 125.575 58.0342 125.406 57.8748C125.238 57.7151 125.111 57.5259 125.023 57.3082C124.934 57.0899 124.891 56.8504 124.891 56.5893C124.891 56.0162 125.06 55.6017 125.4 55.3476C125.741 55.0929 126.229 54.9656 126.866 54.9656H128.755V54.5734C128.755 54.0798 128.643 53.7386 128.42 53.5496C128.196 53.361 127.861 53.2662 127.415 53.2662C126.998 53.2662 126.694 53.3443 126.505 53.5003C126.314 53.6568 126.208 53.8334 126.186 54.029H125.22C125.235 53.7965 125.299 53.5809 125.412 53.381C125.525 53.1805 125.679 53.0082 125.874 52.8636C126.066 52.7178 126.299 52.6036 126.57 52.5202C126.841 52.4368 127.141 52.3951 127.47 52.3951C128.158 52.3951 128.705 52.5564 129.111 52.8799C129.517 53.2033 129.72 53.7309 129.72 54.4652V56.8071C129.72 57.1121 129.721 57.3791 129.726 57.6078C129.729 57.8364 129.745 58.0602 129.775 58.2779H128.929C128.908 58.1105 128.893 57.9528 128.886 57.8045C128.878 57.6549 128.875 57.4864 128.875 57.2968C128.721 57.6028 128.473 57.8602 128.128 58.0709C127.784 58.2818 127.367 58.3868 126.877 58.3868Z" fill="#0F234D"/>
<path d="M134.184 57.5368C134.417 57.5368 134.637 57.4918 134.841 57.4014C135.046 57.3103 135.224 57.1776 135.375 57.0032C135.524 56.8287 135.641 56.611 135.725 56.3493C135.81 56.0882 135.852 55.7869 135.852 55.4451V55.2273C135.852 54.9159 135.81 54.6358 135.725 54.3882C135.641 54.1416 135.524 53.933 135.375 53.7624C135.224 53.5912 135.046 53.4623 134.841 53.3756C134.637 53.2883 134.417 53.2444 134.184 53.2444C133.92 53.2444 133.679 53.2862 133.459 53.3696C133.24 53.4536 133.053 53.5695 132.9 53.7185C132.745 53.8675 132.624 54.0436 132.537 54.2468C132.449 54.4499 132.405 54.6682 132.405 54.9007V55.7723C132.405 56.0334 132.449 56.2734 132.537 56.4912C132.624 56.7091 132.745 56.8943 132.9 57.0465C133.053 57.1993 133.24 57.3191 133.459 57.4063C133.679 57.4929 133.92 57.5368 134.184 57.5368ZM131.44 52.5033H132.34V53.5933C132.537 53.2082 132.813 52.9124 133.168 52.7054C133.523 52.4986 133.934 52.3951 134.403 52.3951C135.135 52.3951 135.72 52.6329 136.159 53.1085C136.598 53.5841 136.817 54.2901 136.817 55.2273V55.4451C136.817 55.9392 136.759 56.3694 136.641 56.7361C136.525 57.1035 136.36 57.4078 136.148 57.6511C135.935 57.8949 135.681 58.078 135.385 58.2016C135.089 58.3255 134.761 58.3868 134.403 58.3868C133.905 58.3868 133.49 58.2779 133.157 58.0602C132.824 57.8424 132.574 57.5698 132.405 57.2432V60.4563H131.44V52.5033Z" fill="#0F234D"/>
<path d="M140.744 57.5145C140.963 57.5145 141.182 57.4766 141.402 57.4014C141.621 57.325 141.816 57.2046 141.984 57.0411C142.152 56.8786 142.289 56.6656 142.396 56.4039C142.501 56.1424 142.554 55.8227 142.554 55.4451V55.2273C142.554 54.879 142.501 54.5809 142.396 54.334C142.289 54.0869 142.152 53.8837 141.984 53.7234C141.816 53.5646 141.621 53.4482 141.402 53.3756C141.182 53.3025 140.963 53.2662 140.744 53.2662C140.524 53.2662 140.305 53.3025 140.085 53.3756C139.865 53.4482 139.672 53.5646 139.503 53.7234C139.335 53.8837 139.198 54.0869 139.092 54.334C138.986 54.5809 138.932 54.879 138.932 55.2273V55.4451C138.932 55.8227 138.986 56.1424 139.092 56.4039C139.198 56.6656 139.335 56.8786 139.503 57.0411C139.672 57.2046 139.865 57.325 140.085 57.4014C140.305 57.4766 140.524 57.5145 140.744 57.5145ZM140.744 58.3868C140.37 58.3868 140.016 58.3272 139.679 58.207C139.342 58.0872 139.046 57.9057 138.791 57.6624C138.534 57.4192 138.329 57.112 138.175 56.7421C138.022 56.3709 137.945 55.9392 137.945 55.4451V55.2273C137.945 54.7625 138.022 54.3524 138.175 53.9965C138.329 53.6405 138.534 53.3443 138.791 53.1085C139.046 52.8728 139.342 52.6947 139.679 52.5744C140.016 52.4551 140.37 52.3951 140.744 52.3951C141.117 52.3951 141.472 52.4551 141.808 52.5744C142.145 52.6947 142.441 52.8728 142.697 53.1085C142.953 53.3443 143.158 53.6405 143.312 53.9965C143.466 54.3524 143.542 54.7625 143.542 55.2273V55.4451C143.542 55.9392 143.466 56.3709 143.312 56.7421C143.158 57.112 142.953 57.4192 142.697 57.6624C142.441 57.9057 142.145 58.0872 141.808 58.207C141.472 58.3272 141.117 58.3868 140.744 58.3868Z" fill="#0F234D"/>
<path d="M148.617 57.428V53.3539H146.466V54.2468C146.466 54.5518 146.456 54.8552 146.434 55.1568C146.412 55.4586 146.379 55.7447 146.335 56.0177C146.291 56.2897 146.238 56.5471 146.176 56.7908C146.114 57.034 146.042 57.2464 145.962 57.428H148.617ZM144.261 57.428H144.974C145.054 57.3191 145.128 57.1521 145.194 56.9273C145.26 56.702 145.318 56.4371 145.369 56.1315C145.421 55.8265 145.458 55.4939 145.485 55.1352C145.51 54.7755 145.523 54.4067 145.523 54.029V52.5033H149.584V57.428H150.407V59.6393H149.485V58.2779H145.183V59.6393H144.261V57.428Z" fill="#0F234D"/>
<path d="M151.64 52.5033H152.605V54.9114H155.613V52.5033H156.579V58.2779H155.613V55.7614H152.605V58.2779H151.64V52.5033Z" fill="#0F234D"/>
<path d="M163.534 52.5033H164.5V58.2779H163.534V52.5033ZM160.439 57.4279C160.893 57.4279 161.211 57.3482 161.394 57.1885C161.577 57.0287 161.669 56.7925 161.669 56.4804C161.669 56.1678 161.577 55.9322 161.394 55.7723C161.211 55.6125 160.893 55.5323 160.439 55.5323H159.32V57.4279H160.439ZM158.354 52.5033H159.32V54.6829H160.494C161.226 54.6829 161.765 54.8426 162.113 55.1624C162.46 55.4819 162.634 55.9245 162.634 56.4912C162.634 57.0433 162.46 57.4794 162.113 57.799C161.765 58.1181 161.226 58.2779 160.494 58.2779H158.354V52.5033Z" fill="#0F234D"/>
<path d="M168.746 51.7959C168.175 51.7959 167.758 51.6739 167.495 51.4307C167.23 51.1874 167.099 50.837 167.099 50.3798H168.043C168.043 50.8739 168.277 51.1203 168.746 51.1203C169.229 51.1203 169.469 50.8739 169.469 50.3798H170.392C170.392 50.837 170.26 51.1874 169.997 51.4307C169.734 51.6739 169.316 51.7959 168.746 51.7959ZM166.276 52.5034H167.241V56.8613L170.249 52.5034H171.215V58.278H170.249V53.9202L167.241 58.278H166.276V52.5034Z" fill="#0F234D"/>
<path d="M177.581 57.5145C177.808 57.5145 178.02 57.4848 178.223 57.423C178.424 57.3613 178.601 57.2698 178.755 57.1506C178.908 57.0303 179.029 56.8835 179.117 56.7091C179.205 56.5346 179.249 56.3315 179.249 56.099V55.7067H177.526C177.167 55.7067 176.885 55.7777 176.681 55.9191C176.476 56.061 176.373 56.2843 176.373 56.5893C176.373 56.8585 176.47 57.0796 176.664 57.2535C176.859 57.4279 177.164 57.5145 177.581 57.5145ZM177.372 58.3868C177.05 58.3868 176.766 58.3418 176.521 58.2509C176.276 58.1605 176.07 58.0342 175.901 57.8748C175.733 57.7151 175.605 57.5259 175.517 57.3082C175.429 57.0899 175.385 56.8504 175.385 56.5893C175.385 56.0162 175.555 55.6017 175.896 55.3476C176.236 55.0929 176.724 54.9656 177.361 54.9656H179.249V54.5734C179.249 54.0798 179.137 53.7386 178.915 53.5496C178.691 53.361 178.356 53.2662 177.91 53.2662C177.493 53.2662 177.189 53.3443 176.999 53.5003C176.809 53.6568 176.703 53.8334 176.681 54.029H175.715C175.729 53.7965 175.793 53.5809 175.906 53.381C176.02 53.1805 176.174 53.0082 176.367 52.8636C176.562 52.7178 176.793 52.6036 177.065 52.5202C177.336 52.4368 177.635 52.3951 177.965 52.3951C178.653 52.3951 179.2 52.5564 179.605 52.8799C180.012 53.2033 180.215 53.7309 180.215 54.4652V56.8071C180.215 57.1121 180.216 57.3791 180.221 57.6078C180.224 57.8364 180.24 58.0602 180.27 58.2779H179.425C179.403 58.1105 179.387 57.9528 179.381 57.8045C179.373 57.6549 179.37 57.4864 179.37 57.2968C179.216 57.6028 178.967 57.8602 178.623 58.0709C178.279 58.2818 177.862 58.3868 177.372 58.3868Z" fill="#0F234D"/>
<path d="M183.92 58.3868C183.313 58.3868 182.793 58.2216 182.361 57.8911C181.93 57.5606 181.644 57.1084 181.505 56.5346H182.493C182.595 56.8396 182.769 57.0796 183.015 57.2535C183.26 57.4279 183.561 57.5145 183.92 57.5145C184.139 57.5145 184.342 57.4826 184.529 57.417C184.715 57.3521 184.88 57.2503 185.022 57.112C185.165 56.974 185.284 56.794 185.379 56.5726C185.475 56.3514 185.533 56.0811 185.555 55.7614H183.261V54.9114H185.555C185.503 54.3308 185.328 53.9109 185.028 53.6535C184.728 53.3957 184.359 53.2662 183.92 53.2662C183.715 53.2662 183.536 53.2916 183.382 53.3426C183.227 53.3935 183.094 53.4623 182.981 53.5496C182.868 53.6368 182.771 53.7408 182.69 53.8599C182.61 53.9802 182.544 54.1086 182.493 54.2468H181.505C181.556 53.9855 181.648 53.7423 181.779 53.5175C181.91 53.2916 182.077 53.0961 182.278 52.9287C182.48 52.7618 182.718 52.6306 182.993 52.5365C183.266 52.4422 183.576 52.3951 183.92 52.3951C184.293 52.3951 184.638 52.4551 184.956 52.5744C185.275 52.6947 185.553 52.8728 185.791 53.1085C186.028 53.3443 186.215 53.6405 186.35 53.9965C186.486 54.3524 186.554 54.7625 186.554 55.2273V55.4451C186.554 55.9392 186.488 56.3709 186.356 56.7421C186.225 57.112 186.044 57.4192 185.813 57.6624C185.582 57.9057 185.304 58.0872 184.978 58.207C184.654 58.3272 184.299 58.3868 183.92 58.3868Z" fill="#0F234D"/>
<path d="M190.753 57.5368C190.987 57.5368 191.207 57.4918 191.411 57.4014C191.616 57.3103 191.793 57.1776 191.943 57.0032C192.094 56.8287 192.21 56.611 192.295 56.3493C192.379 56.0882 192.421 55.7869 192.421 55.4451V55.2273C192.421 54.9159 192.379 54.6358 192.295 54.3882C192.21 54.1416 192.094 53.933 191.943 53.7624C191.793 53.5912 191.616 53.4623 191.411 53.3756C191.207 53.2883 190.987 53.2444 190.753 53.2444C190.489 53.2444 190.248 53.2862 190.028 53.3696C189.81 53.4536 189.622 53.5695 189.469 53.7185C189.315 53.8675 189.194 54.0436 189.107 54.2468C189.019 54.4499 188.975 54.6682 188.975 54.9007V55.7723C188.975 56.0334 189.019 56.2734 189.107 56.4912C189.194 56.7091 189.315 56.8943 189.469 57.0465C189.622 57.1993 189.81 57.3191 190.028 57.4063C190.248 57.4929 190.489 57.5368 190.753 57.5368ZM188.009 52.5033H188.91V53.5933C189.107 53.2082 189.382 52.9124 189.737 52.7054C190.093 52.4986 190.504 52.3951 190.972 52.3951C191.704 52.3951 192.289 52.6329 192.728 53.1085C193.167 53.5841 193.387 54.2901 193.387 55.2273V55.4451C193.387 55.9392 193.328 56.3694 193.211 56.7361C193.094 57.1035 192.93 57.4078 192.717 57.6511C192.505 57.8949 192.251 58.078 191.955 58.2016C191.659 58.3255 191.331 58.3868 190.972 58.3868C190.475 58.3868 190.06 58.2779 189.727 58.0602C189.393 57.8424 189.143 57.5698 188.975 57.2432V60.4563H188.009V52.5033Z" fill="#0F234D"/>
<path d="M197.313 57.5145C197.533 57.5145 197.752 57.4766 197.972 57.4014C198.191 57.325 198.385 57.2046 198.554 57.0411C198.722 56.8786 198.859 56.6656 198.965 56.4039C199.072 56.1424 199.123 55.8227 199.123 55.4451V55.2273C199.123 54.879 199.072 54.5809 198.965 54.334C198.859 54.0869 198.722 53.8837 198.554 53.7234C198.385 53.5646 198.191 53.4482 197.972 53.3756C197.752 53.3025 197.533 53.2662 197.313 53.2662C197.094 53.2662 196.874 53.3025 196.655 53.3756C196.435 53.4482 196.241 53.5646 196.073 53.7234C195.905 53.8837 195.768 54.0869 195.662 54.334C195.555 54.5809 195.502 54.879 195.502 55.2273V55.4451C195.502 55.8227 195.555 56.1424 195.662 56.4039C195.768 56.6656 195.905 56.8786 196.073 57.0411C196.241 57.2046 196.435 57.325 196.655 57.4014C196.874 57.4766 197.094 57.5145 197.313 57.5145ZM197.313 58.3868C196.94 58.3868 196.585 58.3272 196.249 58.207C195.912 58.0872 195.616 57.9057 195.36 57.6624C195.103 57.4192 194.899 57.112 194.745 56.7421C194.591 56.3709 194.514 55.9392 194.514 55.4451V55.2273C194.514 54.7625 194.591 54.3524 194.745 53.9965C194.899 53.6405 195.103 53.3443 195.36 53.1085C195.616 52.8728 195.912 52.6947 196.249 52.5744C196.585 52.4551 196.94 52.3951 197.313 52.3951C197.687 52.3951 198.041 52.4551 198.378 52.5744C198.714 52.6947 199.01 52.8728 199.267 53.1085C199.523 53.3443 199.728 53.6405 199.881 53.9965C200.034 54.3524 200.112 54.7625 200.112 55.2273V55.4451C200.112 55.9392 200.034 56.3709 199.881 56.7421C199.728 57.112 199.523 57.4192 199.267 57.6624C199.01 57.9057 198.714 58.0872 198.378 58.207C198.041 58.3272 197.687 58.3868 197.313 58.3868Z" fill="#0F234D"/>
<path d="M201.55 52.5033H206.379V58.2779H205.413V53.3539H202.515V58.2779H201.55V52.5033Z" fill="#0F234D"/>
<path d="M210.621 57.5145C210.84 57.5145 211.06 57.4766 211.279 57.4014C211.499 57.325 211.692 57.2046 211.86 57.0411C212.029 56.8786 212.166 56.6656 212.272 56.4039C212.378 56.1424 212.431 55.8227 212.431 55.4451V55.2273C212.431 54.879 212.378 54.5809 212.272 54.334C212.166 54.0869 212.029 53.8837 211.86 53.7234C211.692 53.5646 211.499 53.4482 211.279 53.3756C211.06 53.3025 210.84 53.2662 210.621 53.2662C210.401 53.2662 210.181 53.3025 209.962 53.3756C209.742 53.4482 209.549 53.5646 209.38 53.7234C209.212 53.8837 209.075 54.0869 208.969 54.334C208.863 54.5809 208.81 54.879 208.81 55.2273V55.4451C208.81 55.8227 208.863 56.1424 208.969 56.4039C209.075 56.6656 209.212 56.8786 209.38 57.0411C209.549 57.2046 209.742 57.325 209.962 57.4014C210.181 57.4766 210.401 57.5145 210.621 57.5145ZM210.621 58.3868C210.248 58.3868 209.892 58.3272 209.556 58.207C209.22 58.0872 208.923 57.9057 208.667 57.6624C208.41 57.4192 208.205 57.112 208.053 56.7421C207.899 56.3709 207.821 55.9392 207.821 55.4451V55.2273C207.821 54.7625 207.899 54.3524 208.053 53.9965C208.205 53.6405 208.41 53.3443 208.667 53.1085C208.923 52.8728 209.22 52.6947 209.556 52.5744C209.892 52.4551 210.248 52.3951 210.621 52.3951C210.993 52.3951 211.349 52.4551 211.685 52.5744C212.021 52.6947 212.318 52.8728 212.574 53.1085C212.831 53.3443 213.036 53.6405 213.188 53.9965C213.342 54.3524 213.42 54.7625 213.42 55.2273V55.4451C213.42 55.9392 213.342 56.3709 213.188 56.7421C213.036 57.112 212.831 57.4192 212.574 57.6624C212.318 57.9057 212.021 58.0872 211.685 58.207C211.349 58.3272 210.993 58.3868 210.621 58.3868Z" fill="#0F234D"/>
<path d="M217.601 57.5368C217.835 57.5368 218.054 57.4918 218.259 57.4014C218.464 57.3103 218.641 57.1776 218.792 57.0032C218.941 56.8287 219.058 56.611 219.142 56.3493C219.227 56.0882 219.269 55.7869 219.269 55.4451V55.2273C219.269 54.9159 219.227 54.6358 219.142 54.3882C219.058 54.1416 218.941 53.933 218.792 53.7624C218.641 53.5912 218.464 53.4623 218.259 53.3756C218.054 53.2883 217.835 53.2444 217.601 53.2444C217.337 53.2444 217.096 53.2862 216.876 53.3696C216.657 53.4536 216.47 53.5695 216.316 53.7185C216.163 53.8675 216.042 54.0436 215.954 54.2468C215.866 54.4499 215.823 54.6682 215.823 54.9007V55.7723C215.823 56.0334 215.866 56.2734 215.954 56.4912C216.042 56.7091 216.163 56.8943 216.316 57.0465C216.47 57.1993 216.657 57.3191 216.876 57.4063C217.096 57.4929 217.337 57.5368 217.601 57.5368ZM214.857 52.5033H215.757V53.5933C215.954 53.2082 216.23 52.9124 216.586 52.7054C216.94 52.4986 217.352 52.3951 217.82 52.3951C218.551 52.3951 219.137 52.6329 219.576 53.1085C220.015 53.5841 220.235 54.2901 220.235 55.2273V55.4451C220.235 55.9392 220.176 56.3694 220.059 56.7361C219.941 57.1035 219.777 57.4078 219.565 57.6511C219.353 57.8949 219.098 58.078 218.803 58.2016C218.506 58.3255 218.179 58.3868 217.82 58.3868C217.322 58.3868 216.907 58.2779 216.574 58.0602C216.241 57.8424 215.991 57.5698 215.823 57.2432V60.4563H214.857V52.5033Z" fill="#0F234D"/>
<path d="M223.02 53.3539H221.032V52.5033H225.971V53.3539H223.985V58.2779H223.02V53.3539Z" fill="#0F234D"/>
<path d="M234.159 54.9223C233.969 55.0458 233.702 55.1585 233.358 55.2599C233.014 55.3623 232.619 55.4127 232.173 55.4127C231.273 55.4127 230.618 55.211 230.208 54.8075C229.798 54.405 229.594 53.7641 229.594 52.8854V50.6522H230.625V52.8854C230.625 53.459 230.753 53.8709 231.009 54.1216C231.265 54.372 231.69 54.4976 232.282 54.4976C232.736 54.4976 233.115 54.4434 233.419 54.334C233.722 54.2251 233.969 54.1086 234.159 53.9856V50.6522H235.191V58.278H234.159V54.9223Z" fill="#0F234D"/>
<path d="M239.486 53.2662C239.259 53.2662 239.038 53.2971 238.827 53.3593C238.614 53.421 238.426 53.5192 238.261 53.6535C238.097 53.7879 237.964 53.9564 237.86 54.1595C237.759 54.3632 237.708 54.606 237.708 54.8898H241.209C241.201 54.5918 241.151 54.3394 241.06 54.1319C240.969 53.9255 240.846 53.7586 240.692 53.6313C240.539 53.504 240.358 53.4114 240.149 53.3539C239.941 53.2954 239.719 53.2662 239.486 53.2662ZM239.54 58.3868C239.167 58.3868 238.812 58.3283 238.476 58.2124C238.139 58.0964 237.842 57.9166 237.587 57.6729C237.331 57.4296 237.126 57.1234 236.971 56.7524C236.818 56.3823 236.742 55.9462 236.742 55.4451V55.2273C236.742 54.7479 236.814 54.3318 236.961 53.9802C237.107 53.6276 237.303 53.334 237.548 53.0976C237.793 52.8621 238.078 52.6848 238.404 52.5689C238.73 52.4536 239.072 52.3951 239.431 52.3951C240.286 52.3951 240.948 52.6269 241.417 53.0922C241.886 53.5571 242.12 54.2148 242.12 55.0638V55.6737H237.708C237.708 56.0162 237.762 56.3021 237.872 56.5346C237.982 56.7676 238.124 56.9556 238.3 57.1018C238.476 57.2464 238.671 57.3521 238.887 57.417C239.103 57.4826 239.32 57.5145 239.54 57.5145C239.979 57.5145 240.318 57.4431 240.556 57.2968C240.792 57.1521 240.964 56.9523 241.066 56.6988H242.01C241.951 56.974 241.847 57.2172 241.697 57.4279C241.547 57.6392 241.364 57.8148 241.148 57.9562C240.932 58.0981 240.687 58.2053 240.413 58.2779C240.138 58.35 239.848 58.3868 239.54 58.3868Z" fill="#0F234D"/>
<path d="M243.322 58.3868C243.212 58.3868 243.103 58.3755 242.992 58.3538V57.3954C243.03 57.4025 243.084 57.4063 243.158 57.4063C243.319 57.4063 243.46 57.3559 243.581 57.2535C243.701 57.1521 243.798 56.974 243.871 56.7205C243.944 56.4658 243.999 56.1206 244.035 55.6851C244.072 55.249 244.091 54.6975 244.091 54.029V52.5033H248.261V58.2779H247.295V53.3539H245.057V54.2468C245.057 55.0529 245.02 55.7213 244.946 56.2513C244.874 56.7822 244.765 57.2047 244.623 57.5206C244.48 57.8364 244.299 58.0602 244.08 58.1907C243.86 58.3219 243.608 58.3868 243.322 58.3868Z" fill="#0F234D"/>
<path d="M250.777 54.2901C250.777 54.5957 250.866 54.828 251.046 54.9873C251.225 55.1472 251.527 55.2273 251.951 55.2273H253.565V53.3539H251.951C251.527 53.3539 251.225 53.4336 251.046 53.5934C250.866 53.7532 250.777 53.9856 250.777 54.2901ZM251.173 55.9901C250.69 55.8812 250.342 55.6834 250.129 55.3964C249.917 55.1092 249.811 54.7408 249.811 54.2901C249.811 53.7234 249.985 53.2847 250.333 52.9726C250.68 52.6604 251.238 52.5033 252.006 52.5033H254.531V58.2779H253.565V56.0773H252.083L250.667 58.2779H249.592L251.173 55.9901Z" fill="#0F234D"/>
<path d="M258.801 57.5146C259.314 57.5146 259.734 57.3391 260.064 56.9869C260.393 56.6343 260.558 56.1207 260.558 55.4451V55.2274C260.558 54.944 260.514 54.69 260.427 54.4652C260.339 54.2402 260.218 54.0452 260.064 53.8816C259.91 53.7185 259.726 53.5934 259.51 53.5057C259.294 53.4189 259.058 53.3756 258.801 53.3756C258.545 53.3756 258.31 53.4189 258.094 53.5057C257.878 53.5934 257.693 53.7185 257.54 53.8816C257.386 54.0452 257.266 54.2402 257.178 54.4652C257.089 54.69 257.046 54.944 257.046 55.2274V55.4451C257.046 55.7648 257.091 56.0536 257.183 56.3114C257.274 56.5692 257.401 56.7876 257.562 56.9653C257.723 57.1436 257.909 57.2795 258.121 57.3738C258.334 57.4687 258.561 57.5146 258.801 57.5146ZM258.801 58.3869C258.414 58.3869 258.054 58.3138 257.721 58.1691C257.388 58.0238 257.099 57.811 256.854 57.5315C256.608 57.2518 256.415 56.9089 256.272 56.5021C256.129 56.0947 256.058 55.6341 256.058 55.1191V54.9007C256.058 54.2468 256.105 53.6639 256.201 53.1525C256.295 52.6399 256.458 52.2044 256.689 51.8447C256.92 51.4849 257.223 51.2037 257.6 51.0001C257.977 50.7969 258.451 50.6804 259.022 50.6522C259.482 50.63 259.885 50.61 260.229 50.5921C260.572 50.5736 260.865 50.5027 261.106 50.3798V51.3057C260.989 51.3711 260.776 51.4215 260.464 51.4579C260.154 51.4941 259.727 51.5196 259.186 51.5342C258.835 51.5413 258.525 51.5846 258.258 51.6647C257.992 51.745 257.765 51.8717 257.578 52.0462C257.391 52.2206 257.245 52.4476 257.139 52.7271C257.033 53.0068 256.965 53.3497 256.936 53.7571C257.112 53.3713 257.383 53.0668 257.748 52.842C258.114 52.6167 258.539 52.5034 259.022 52.5034C259.394 52.5034 259.734 52.5674 260.042 52.6947C260.35 52.8214 260.614 53.0012 260.838 53.2337C261.061 53.4661 261.235 53.7511 261.359 54.0886C261.483 54.4266 261.545 54.8058 261.545 55.2274V55.4451C261.545 55.8958 261.477 56.3006 261.338 56.6603C261.198 57.0195 261.007 57.3283 260.766 57.5862C260.524 57.844 260.236 58.0423 259.9 58.1799C259.563 58.3176 259.197 58.3869 258.801 58.3869Z" fill="#0F234D"/>
<path d="M262.983 52.5033H263.949V56.8613L266.957 52.5033H267.922V58.2779H266.957V53.9201L263.949 58.2779H262.983V52.5033Z" fill="#0F234D"/>
<path d="M269.698 52.5033H270.663V54.9114H273.671V52.5033H274.637V58.2779H273.671V55.7614H270.663V58.2779H269.698V52.5033Z" fill="#0F234D"/>
<path d="M278.732 58.3868C278.358 58.3868 278.01 58.3272 277.689 58.207C277.367 58.0872 277.089 57.9057 276.855 57.6624C276.621 57.4192 276.436 57.112 276.301 56.7421C276.166 56.3709 276.098 55.9392 276.098 55.4451V55.2273C276.098 54.7625 276.171 54.3524 276.317 53.9965C276.463 53.6405 276.657 53.3443 276.899 53.1085C277.141 52.8728 277.42 52.6947 277.739 52.5744C278.056 52.4551 278.388 52.3951 278.732 52.3951C279.076 52.3951 279.384 52.4422 279.659 52.5365C279.933 52.6306 280.171 52.7618 280.373 52.9287C280.573 53.0961 280.739 53.2916 280.867 53.5175C280.994 53.7423 281.088 53.9855 281.146 54.2468H280.158C280.1 54.1086 280.033 53.9802 279.955 53.8599C279.879 53.7408 279.784 53.6368 279.67 53.5496C279.557 53.4623 279.423 53.3935 279.269 53.3426C279.116 53.2916 278.937 53.2662 278.732 53.2662C278.519 53.2662 278.314 53.3046 278.117 53.381C277.919 53.4568 277.744 53.5734 277.59 53.7288C277.437 53.8854 277.314 54.0869 277.222 54.334C277.131 54.5809 277.085 54.879 277.085 55.2273V55.4451C277.085 55.8162 277.131 56.1337 277.222 56.3986C277.314 56.6635 277.437 56.8786 277.59 57.0411C277.744 57.2046 277.919 57.325 278.117 57.4014C278.314 57.4766 278.519 57.5145 278.732 57.5145C279.09 57.5145 279.392 57.4279 279.638 57.2535C279.883 57.0796 280.056 56.8396 280.158 56.5346H281.146C281.007 57.1084 280.721 57.5606 280.29 57.8911C279.858 58.2216 279.339 58.3868 278.732 58.3868Z" fill="#0F234D"/>
<path d="M282.518 52.5033H283.484V54.9223H284.253L286.426 52.5033H287.567L285.043 55.2706L287.677 58.2779H286.448L284.253 55.7501H283.484V58.2779H282.518V52.5033Z" fill="#0F234D"/>
<path d="M120.655 33.9753L113.886 22.7145L113.863 22.675H108.243L117.943 38.4188L117.736 38.7227C117.362 39.2705 116.95 39.6812 116.513 39.9444C116.053 40.218 114.35 40.3655 113.755 40.3655C113.197 40.3655 112.489 40.2348 111.651 39.9769L111.521 39.9368L110.249 43.923L110.365 43.9708C111.58 44.4611 112.772 44.7108 113.907 44.7108C115.274 44.7108 117.897 44.3072 119.185 43.4414C120.481 42.5704 121.607 41.2918 122.443 39.7483L132.836 22.675H127.402L120.655 33.9753Z" fill="#0F234D"/>
<path d="M154.49 23.6307L154.47 23.6219C153.061 22.9935 151.383 22.675 149.485 22.675H134.774V44.2552H139.932V38.4026H149.485C151.393 38.4026 153.076 38.0868 154.487 37.4638C155.903 36.8386 157.009 35.9203 157.776 34.7387C158.542 33.5561 158.931 32.1562 158.931 30.576C158.931 28.9778 158.542 27.5714 157.776 26.3989C157.01 25.2293 155.906 24.3133 154.49 23.6755V23.6307ZM139.932 27.0643H149.276C150.731 27.0643 151.847 27.3764 152.597 27.9917C153.338 28.6023 153.713 29.4951 153.713 30.6447C153.713 31.7759 153.338 32.6589 152.597 33.2685C151.848 33.8838 150.731 34.1969 149.276 34.1969H139.932V27.0643Z" fill="#0F234D"/>
<path d="M180.093 32.3107C179.356 32.4048 173.164 33.1926 171.469 33.1926C170.02 33.1926 168.903 32.8317 168.147 32.1199C167.394 31.4107 167.012 30.3348 167.012 28.9208V22.675H161.854V29.4686C161.854 32.0695 162.641 34.0924 164.194 35.4831C165.742 36.8663 167.997 37.5678 170.895 37.5678C173.263 37.5678 179.27 36.7096 180.093 36.5904V44.2552H185.251V22.675H180.093V32.3107Z" fill="#0F234D"/>
<path d="M284.664 32.3576C285.019 32.025 286.31 30.636 286.138 28.1462C285.956 25.5013 283.964 22.675 278.919 22.675H265.698V44.2552H280.591C280.649 44.253 282.018 44.2222 282.97 43.9485C284.728 43.4431 287.677 41.969 287.677 37.7715C287.677 34.3238 285.203 32.6757 284.664 32.3576ZM281.19 30.7942C280.268 31.6789 278.668 31.6377 278.649 31.6366H270.672V26.6985H278.656C278.672 26.6974 280.241 26.5924 281.166 27.4445C281.613 27.8563 281.839 28.4278 281.839 29.1445C281.839 29.8256 281.62 30.3803 281.19 30.7942ZM270.672 35.294H279.433C279.45 35.2929 281.136 35.2003 282.115 36.1142C282.578 36.5454 282.812 37.1372 282.812 37.8723C282.812 38.5597 282.589 39.1216 282.15 39.5419C281.177 40.4699 279.446 40.4158 279.431 40.4148H270.672V35.294Z" fill="#0F234D"/>
<path d="M197.366 35.5952L201.063 27.1477L204.762 35.5952H197.366ZM197.889 22.7248L188.039 44.2546H193.653L195.57 39.7322H206.526L208.444 44.2546H214.181L204.3 22.7248H197.889Z" fill="#0F234D"/>
<path d="M211.527 27.2375H221.168V44.2552H226.426V27.2375H236.067V22.7243H211.527V27.2375Z" fill="#0F234D"/>
<path d="M256.448 36.8522C255.903 37.8284 255.142 38.601 254.19 39.1503L254.153 39.172C253.13 39.7549 250.766 39.9982 249.73 39.9982C248.694 39.9982 246.331 39.7549 245.3 39.167C244.333 38.6171 243.563 37.8381 243.013 36.8522C242.461 35.8667 242.181 34.7252 242.181 33.4614C242.181 32.1984 242.461 31.0576 243.013 30.07C243.564 29.0845 244.334 28.3055 245.3 27.7556C246.331 27.1677 248.694 26.9251 249.73 26.9251C250.765 26.9251 253.128 27.1677 254.159 27.7556C255.127 28.3055 255.896 29.0845 256.448 30.07C256.999 31.0576 257.278 32.1974 257.278 33.4614C257.278 34.7242 256.999 35.8656 256.448 36.8522ZM256.903 23.7769C255.064 22.7865 251.897 22.3343 249.73 22.3343C247.563 22.3343 244.39 22.7865 242.543 23.7769C240.756 24.7369 239.337 26.0761 238.327 27.7599C237.315 29.4437 236.802 31.3626 236.802 33.4614C236.802 35.5611 237.315 37.479 238.327 39.1627C239.263 40.7224 240.551 41.9886 242.152 42.9273L242.354 43.0466L242.543 43.1468C244.388 44.1371 247.562 44.5885 249.73 44.5885C251.898 44.5885 255.066 44.1371 256.903 43.1457C258.677 42.189 260.095 40.8497 261.119 39.1638C262.14 37.4801 262.659 35.5611 262.659 33.4614C262.659 31.3626 262.14 29.4437 261.119 27.7588C260.098 26.0761 258.68 24.7369 256.903 23.7769Z" fill="#0F234D"/>
<path d="M106.127 22.7048H100.252L94.7004 31.2352H86.3135V22.7048H81.0261V44.2357H86.3135V35.7344H94.7718L100.263 44.2357H106.33L99.0699 33.1103L106.127 22.7048Z" fill="#0F234D"/>
</svg>
