<svg width="239" height="32" viewBox="0 0 239 32" fill="none" xmlns="http://www.w3.org/2000/svg">
<path d="M13.6791 15.6365L20.856 26H16.8381L10.6587 17.1605H7.69376V26H4.17459V9.62339H1.51443L3.28787 6.3259H7.69376V14.1124H10.6587L16.5332 6.3259H20.5235L13.6791 15.6365ZM19.7753 18.9062C19.7753 17.373 20.1263 16.0336 20.8283 14.8883C21.5118 13.8168 22.4447 12.9948 23.627 12.4221C24.8093 11.8494 26.084 11.5631 27.451 11.5631C28.855 11.5631 30.1204 11.8402 31.2473 12.3944C32.4296 12.9671 33.3625 13.8168 34.046 14.9437C34.7295 16.0521 35.0712 17.373 35.0712 18.9062C35.0712 20.458 34.7295 21.7973 34.046 22.9242C33.3625 24.0326 32.4296 24.8916 31.2473 25.5012C30.0834 26.0924 28.818 26.3879 27.451 26.3879C26.1024 26.3879 24.837 26.0924 23.6547 25.5012C22.454 24.9101 21.5026 24.0511 20.8006 22.9242C20.1171 21.7788 19.7753 20.4395 19.7753 18.9062ZM79.5458 12.0065H82.677V13.9184C83.1573 13.1795 83.7947 12.6161 84.589 12.2281C85.4018 11.8217 86.4456 11.6185 87.7202 11.6185C89.0318 11.6185 90.1957 11.9141 91.2117 12.5052C92.1908 13.1148 92.9482 13.9831 93.4839 15.11C94.0381 16.2184 94.3152 17.493 94.3152 18.9339C94.3152 20.3933 94.0381 21.6865 93.4839 22.8134C92.9482 23.9217 92.1908 24.7808 91.2117 25.3904C90.7499 25.7044 90.2049 25.9353 89.5768 26.0831C88.9672 26.2494 88.3483 26.3325 87.7202 26.3325C86.6303 26.3325 85.8175 26.2494 85.2818 26.0831C84.1734 25.7506 83.3882 25.1964 82.9264 24.4205V30.9601H79.5458V12.0065ZM36.8724 12.0065H40.2253V17.3268H45.9613V12.0065H49.2865V26H45.9613V20.0978H40.2253V26H36.8724V12.0065ZM50.7551 12.0065H63.6403V14.6666H58.8741V26H55.4658V14.6666H50.7551V12.0065ZM68.2678 12.0065C69.524 15.4425 70.6694 18.8416 71.7039 22.2037C72.6829 18.8785 73.7913 15.4794 75.0291 12.0065H78.4097L73.2556 26.2771C72.8307 27.4409 72.4243 28.3369 72.0364 28.965C71.6115 29.5931 71.085 30.0641 70.4569 30.3782C69.8473 30.7107 69.0345 30.877 68.0184 30.877C67.4458 30.877 67.1317 30.8677 67.0763 30.8493L65.9402 28.1891C66.2912 28.263 66.7253 28.2999 67.2425 28.2999C67.8706 28.2999 68.3787 28.2076 68.7666 28.0228C69.1176 27.875 69.3855 27.6718 69.5702 27.4132C69.7549 27.1731 69.9119 26.8682 70.0413 26.4988L64.7209 12.0065H68.2678ZM23.1836 18.8785C23.1836 20.4118 23.5531 21.5849 24.292 22.3977C25.031 23.1921 26.0563 23.5892 27.3679 23.5892C28.6979 23.5892 29.7324 23.1921 30.4714 22.3977C31.2288 21.5849 31.6075 20.4118 31.6075 18.8785C31.6075 17.3822 31.238 16.2553 30.4991 15.4979C29.7602 14.722 28.7164 14.3341 27.3679 14.3341C26.0378 14.3341 25.0033 14.722 24.2643 15.4979C23.5439 16.2553 23.1836 17.3822 23.1836 18.8785ZM82.8433 18.9062C82.8802 20.2917 83.2497 21.4001 83.9517 22.2314C84.6537 23.0627 85.642 23.4784 86.9166 23.4784C88.1913 23.4784 89.1704 23.0627 89.8539 22.2314C90.5559 21.4001 90.9161 20.2917 90.9346 18.9062C90.9161 17.5392 90.5559 16.4493 89.8539 15.6365C89.1704 14.8052 88.1913 14.3895 86.9166 14.3895C85.642 14.3895 84.6537 14.7959 83.9517 15.6087C83.2497 16.4216 82.8802 17.5207 82.8433 18.9062Z" fill="#222222"/>
<path d="M115.901 6.3259V23.8663H118.256V30.1011H115.79V26H100.993V30.1011H98.4988V23.8663H100.134C101.279 22.333 101.99 20.1994 102.267 17.4653C102.378 16.1907 102.443 14.916 102.461 13.6413L102.517 6.3259H115.901ZM113.351 8.45957H104.872L104.817 13.863C104.798 16.3569 104.613 18.4075 104.262 20.0146C103.911 21.6033 103.413 22.8872 102.766 23.8663H113.351V8.45957ZM133.683 23.5615C132.704 24.5776 131.725 25.3073 130.746 25.7506C129.767 26.1755 128.622 26.3879 127.31 26.3879C125.832 26.3879 124.548 26.0831 123.458 25.4735C122.35 24.8639 121.491 24.0049 120.881 22.8965C120.272 21.7881 119.967 20.4949 119.967 19.0171C119.967 17.6131 120.262 16.3384 120.854 15.1931C121.463 14.0662 122.304 13.1887 123.375 12.5607C124.465 11.9326 125.731 11.6185 127.171 11.6185C129.204 11.6185 130.783 12.2189 131.91 13.4197C133.055 14.6204 133.628 16.2738 133.628 18.3798C133.628 18.5091 133.609 18.8508 133.572 19.405H122.433C122.525 20.4026 122.756 21.2616 123.126 21.982C123.532 22.7395 124.096 23.3306 124.816 23.7555C125.537 24.1804 126.405 24.3928 127.421 24.3928C128.381 24.3928 129.231 24.2173 129.97 23.8663C130.728 23.5153 131.494 22.9242 132.27 22.0929L133.683 23.5615ZM131.356 17.6593C131.3 16.3846 130.894 15.3778 130.136 14.6389C129.398 13.8815 128.4 13.5028 127.144 13.5028C125.906 13.5028 124.872 13.8815 124.04 14.6389C123.209 15.3778 122.701 16.3846 122.516 17.6593H131.356ZM140.855 19.8207H138.444V26H136.061V12.0065H138.444V17.881H140.883L145.482 12.0065H148.032L142.795 18.74L148.475 26H145.759L140.855 19.8207ZM149.1 23.9495C149.377 24.0234 149.673 24.0603 149.987 24.0603C150.504 24.0603 150.892 23.9218 151.151 23.6447C151.409 23.3491 151.585 22.8503 151.677 22.1483C151.769 21.354 151.834 20.3287 151.871 19.0725L152.037 12.0065H162.401V26H160.018V13.9461H154.171L154.032 19.2388C153.977 21.1415 153.857 22.5363 153.672 23.423C153.469 24.3836 153.1 25.0763 152.564 25.5012C152.047 25.9261 151.261 26.1386 150.208 26.1386L149.654 26.0831L149.1 25.9723V23.9495ZM174.864 26V24.1157C174.365 24.8547 173.7 25.4273 172.869 25.8337C172.037 26.2217 171.077 26.4157 169.987 26.4157C168.435 26.4157 167.216 26.0647 166.329 25.3627C165.461 24.6607 165.027 23.6724 165.027 22.3977V22.2591C165.027 20.8552 165.516 19.793 166.495 19.0725C167.493 18.3336 169.026 17.9087 171.095 17.7978L174.753 17.5485V16.6063C174.753 15.6088 174.466 14.8606 173.894 14.3618C173.321 13.8445 172.49 13.5859 171.4 13.5859C170.495 13.5859 169.673 13.7707 168.934 14.1401C168.213 14.4911 167.474 15.0823 166.717 15.9136L165.193 14.5281C166.8 12.5884 168.851 11.6185 171.344 11.6185C173.136 11.6185 174.531 12.0434 175.529 12.8932C176.526 13.7429 177.025 14.9252 177.025 16.44V26H174.864ZM171.261 19.4881C169.82 19.562 168.804 19.8022 168.213 20.2086C167.622 20.615 167.327 21.2616 167.327 22.1483V22.2869C167.327 23.0073 167.594 23.5615 168.13 23.9495C168.684 24.3374 169.46 24.5314 170.458 24.5314C171.252 24.5314 171.982 24.3743 172.647 24.0603C173.312 23.7463 173.829 23.3121 174.199 22.7579C174.568 22.1853 174.753 21.5387 174.753 20.8182V19.3219L171.261 19.4881ZM194.822 19.0171C194.822 20.458 194.545 21.7327 193.991 22.8411C193.418 23.9495 192.615 24.8085 191.58 25.4181C190.546 26.0277 189.364 26.3325 188.033 26.3325C185.54 26.3325 183.785 25.5474 182.769 23.9772V30.9878H180.386V12.0065H182.602V14.4726C183.692 12.5884 185.512 11.6462 188.061 11.6462C189.354 11.6462 190.518 11.9418 191.553 12.5329C192.587 13.161 193.391 14.02 193.963 15.11C194.536 16.1999 194.822 17.4561 194.822 18.8785V19.0171ZM192.412 18.8785C192.412 17.844 192.218 16.9296 191.83 16.1352C191.423 15.3594 190.851 14.7497 190.112 14.3064C189.391 13.863 188.569 13.6413 187.646 13.6413C186.703 13.6413 185.854 13.8538 185.096 14.2787C184.32 14.722 183.72 15.3316 183.295 16.1075C182.87 16.8834 182.658 17.8071 182.658 18.8785V19.0171C182.658 20.6243 183.11 21.9174 184.016 22.8965C184.921 23.8571 186.121 24.3374 187.618 24.3374C188.541 24.3374 189.373 24.1065 190.112 23.6447C190.832 23.2013 191.396 22.5824 191.802 21.7881C192.208 20.9753 192.412 20.0516 192.412 19.0171V18.8785ZM206.633 26V24.1157C206.134 24.8547 205.469 25.4273 204.638 25.8337C203.806 26.2217 202.846 26.4157 201.756 26.4157C200.204 26.4157 198.985 26.0647 198.098 25.3627C197.23 24.6607 196.796 23.6724 196.796 22.3977V22.2591C196.796 20.8552 197.285 19.793 198.264 19.0725C199.262 18.3336 200.795 17.9087 202.864 17.7978L206.522 17.5485V16.6063C206.522 15.6088 206.236 14.8606 205.663 14.3618C205.09 13.8445 204.259 13.5859 203.169 13.5859C202.264 13.5859 201.442 13.7707 200.703 14.1401C199.982 14.4911 199.243 15.0823 198.486 15.9136L196.962 14.5281C198.569 12.5884 200.62 11.6185 203.114 11.6185C204.905 11.6185 206.3 12.0434 207.298 12.8932C208.295 13.7429 208.794 14.9252 208.794 16.44V26H206.633ZM203.03 19.4881C201.59 19.562 200.573 19.8022 199.982 20.2086C199.391 20.615 199.096 21.2616 199.096 22.1483V22.2869C199.096 23.0073 199.363 23.5615 199.899 23.9495C200.453 24.3374 201.229 24.5314 202.227 24.5314C203.021 24.5314 203.751 24.3743 204.416 24.0603C205.081 23.7463 205.598 23.3121 205.968 22.7579C206.337 22.1853 206.522 21.5387 206.522 20.8182V19.3219L203.03 19.4881ZM221.576 26V19.793H214.565V26H212.182V12.0065H214.565V17.8533H221.576V12.0065H223.959V26H221.576ZM233.402 13.9461V26H231.019V13.9461H226.114V12.0065H238.307V13.9461H233.402Z" fill="#26AD50"/>
</svg>
