<svg xmlns="http://www.w3.org/2000/svg" width="463" height="180" fill="none"><path d="M286.34 52.94h-93.62v90.52h11.38V64.29h82.24V52.94Z" fill="#fff"/><path d="M397.3 75.49v22.86h-17.18V75.49h-11.17v56.62h-11.38V75.49h-90.88v56.62h-11.38V75.49h-39.73v11.36h28.29v11.5h-28.29v45.11h62.27V120.9h28.66V86.85h39.78v11.5h-28.66v45.11h62.49V109.5h17.18v33.96h11.27V86.85h16.96v56.61h11.49V86.85h17.08V75.49h-56.8ZM243.88 132.1H226.9v-22.6h16.98v22.6Zm51.1-22.6H277.86V86.85H294.98v22.65Zm51.32 22.6h-17.33v-22.6h17.33v22.6ZM360.31 52.94h-71.02v11.35h71.02V52.94ZM400.04 52.94h-36.93v11.35h36.93V52.94ZM445.61 52.94h-14.39v11.35h14.39V52.94ZM454.09 52.94h-5.54v11.35h5.54V52.94ZM428.48 52.94h-25.44v11.35h25.44V52.94Z" fill="#fff"/><path d="M455.38 98.2c-3.72 0-6.98 3.22-6.98 7.16 0 3.73 3.26 7 6.98 7 3.98 0 7.24-3.27 7.24-7 0-3.89-3.26-7.16-7.24-7.16Zm0 12.73c-2.85 0-5.38-2.56-5.38-5.57 0-3.23 2.4-5.73 5.38-5.73 2.99 0 5.43 2.57 5.43 5.73 0 3.01-2.33 5.57-5.43 5.57Z" fill="#fff"/><path d="M457.2 105.36c.35-.21 1.09-.57 1.09-1.64 0-.88-.47-1.95-2.28-1.95h-3.1v6.95h1.66v-2.66h.35c.16 0 .32.05.47.05 1.82.21.41 1.64 1.34 2.6h1.76c-.36-.36-.2-.46-.36-1.52-.01-.61-.01-1.47-.93-1.83Zm-1.82-.57h-.82V103h.72s1.45-.22 1.45.72c-.01.92-.99 1.07-1.35 1.07ZM195.62 146.27v2.87h14.12V69.87h250.09V55.8h-2.84v11.31H206.95v79.16h-11.33Z" fill="#fff"/><path d="M218.32 146.27v2.87h65.34v-22.67h28.44V92.52h31.24v-2.81h-34.13v33.9h-28.35v22.66h-62.54ZM229.65 129.29v-16.93h11.33v2.77h-8.49v14.16h-2.84ZM240.99 89.71h-22.66v2.81h22.66v-2.81Z" fill="#fff"/><path d="M260.9 78.46h-2.79v50.83h2.79V78.46ZM280.86 89.71v16.97h2.8V92.52h8.53v-2.81h-11.33ZM331.91 129.29v-16.93h11.43v2.77h-8.53v14.16h-2.9ZM363.16 78.46h-2.8v50.83h2.8V78.46ZM385.9 78.46h-2.78v16.93h2.78V78.46Z" fill="#fff"/><path d="M394.45 112.36h-11.33v33.91h-62.53v2.87h65.32v-34.01h8.54v-2.77ZM400.14 146.27v2.87h14.22V92.52h8.48v-2.81h-11.32v56.56h-11.38ZM428.54 146.27h11.38V89.71h17.07V78.46h2.84v14.06h-17.07v56.62h-14.22v-2.87ZM84.64 51.08c-16.76 0-30.34 13.59-30.34 30.34 0 16.76 13.59 30.35 30.35 30.35s30.34-13.58 30.34-30.35c-.01-16.74-13.59-30.34-30.35-30.34ZM58.46 80.97s-.65-17.6 16.68-24.44c-9.32 8.84-12.49 11.18-16.68 24.44Z" fill="#fff"/><path d="M11.98 72.66c19 24.59 44.54 39.67 72.66 39.67 28.12 0 53.66-15.08 72.66-39.67h10.12v76.03H42.08c76.52-6.79 112.07-60.7 116.12-71.12l4.77.08h-5.01s-26.36 39.18-74.85 39.18c-48.49 0-72.22-39.18-72.22-39.18-2.9-.28-5.54.27-5.54.27v70.77H1.86V72.66h10.12ZM1.76 161.87v11.19l-.08 1.81h.06l.83-1.51 7.12-11.49h1.58v14.9H9.88v-11.2l.08-1.81H9.9l-.74 1.4-7.2 11.61H.38v-14.9h1.38ZM16.87 161.87v6.57h7.68v-6.57h1.39v14.9h-1.39v-7.12h-7.68v7.12h-1.38v-14.9h1.38ZM37.74 160.97v1.76h.65c4.17 0 6.49 3.22 6.49 6.45 0 3.24-2.32 6.45-6.49 6.45h-.65v1.81h-1.39v-1.81h-.65c-4.17 0-6.49-3.21-6.49-6.45 0-3.23 2.32-6.45 6.49-6.45h.65v-1.76h1.39Zm-1.39 2.98h-.65c-2.87 0-5 1.9-5 5.24 0 3.35 2.13 5.24 5 5.24h.65v-10.48Zm1.39 10.47h.65c2.86 0 5-1.89 5-5.24 0-3.34-2.13-5.24-5-5.24h-.65v10.48ZM53.88 161.69c4.51 0 6.68 3.64 6.68 7.64 0 4.92-2.93 7.6-6.68 7.6-3.75 0-6.68-2.67-6.68-7.6 0-4 2.17-7.64 6.68-7.64Zm0 14.03c2.57 0 5.18-1.92 5.18-6.38 0-4.47-2.61-6.43-5.18-6.43s-5.18 1.96-5.18 6.43c0 4.46 2.61 6.38 5.18 6.38ZM67.66 161.87c2.74 0 4.43 1.74 4.43 4.29 0 2.56-1.66 4.3-4.43 4.3h-2.44v6.3h-1.39v-14.9h3.83v.01Zm-2.44 7.38h2.17c.8 0 3.2-.15 3.2-3.09 0-3.07-2.83-3.08-3.2-3.08h-2.17v6.17ZM82.83 175.42l.62-1.98 4.91-11.57h2.19v14.9h-1.39v-11.54l.04-2.02h-.09l-.71 1.95-4.89 11.61h-1.43l-4.89-11.61-.72-1.95h-.08l.04 2.02v11.54h-1.39v-14.9h2.19l4.91 11.57.61 1.98h.08ZM100.64 161.87l6.22 14.9h-1.5l-1.71-4.11h-7.54l-1.64 4.11h-1.49l5.85-14.9h1.81Zm-.95 1.38-.46 1.4-2.68 6.79h6.6l-2.87-6.79-.53-1.4h-.06ZM110.67 161.87v13.68h7.84v-13.68h1.39v13.68h1.75V180h-1.39v-3.23h-10.98v-14.9h1.39ZM126 161.87v11.19l-.09 1.81h.06l.83-1.51 7.12-11.49h1.58v14.9h-1.39v-11.2l.08-1.81h-.06l-.74 1.4-7.21 11.61h-1.58v-14.9h1.4ZM145.45 161.69c4.51 0 6.68 3.64 6.68 7.64 0 4.92-2.93 7.6-6.68 7.6-3.75 0-6.68-2.67-6.68-7.6-.01-4 2.17-7.64 6.68-7.64Zm0 14.03c2.57 0 5.18-1.92 5.18-6.38 0-4.47-2.61-6.43-5.18-6.43s-5.19 1.96-5.19 6.43c0 4.46 2.61 6.38 5.19 6.38ZM156.78 161.87v6.57h7.68v-6.57h1.38v14.9h-1.38v-7.12h-7.68v7.12h-1.39v-14.9h1.39ZM171.45 161.87v6.57h7.67v-6.57h1.39v14.9h-1.39v-7.12h-7.67v7.12h-1.39v-14.9h1.39ZM190.46 161.69c4.51 0 6.68 3.64 6.68 7.64 0 4.92-2.93 7.6-6.68 7.6-3.75 0-6.68-2.67-6.68-7.6 0-4 2.17-7.64 6.68-7.64Zm0 14.03c2.57 0 5.18-1.92 5.18-6.38 0-4.47-2.61-6.43-5.18-6.43s-5.19 1.96-5.19 6.43c0 4.46 2.61 6.38 5.19 6.38ZM205.04 169.05h-4.63v1.13h4.63v-1.13ZM219.73 161.87v14.9h-1.39v-13.69h-7.69v13.69h-1.39v-14.9h10.47ZM227.78 161.87c2.74 0 4.42 1.74 4.42 4.29 0 2.56-1.66 4.3-4.42 4.3h-2.44v6.3h-1.39v-14.9h3.83v.01Zm-2.44 7.38h2.17c.8 0 3.2-.15 3.2-3.09 0-3.07-2.83-3.08-3.2-3.08h-2.17v6.17ZM241.03 161.87l6.22 14.9h-1.5l-1.7-4.11h-7.55l-1.64 4.11h-1.5l5.86-14.9h1.81Zm-.94 1.38-.47 1.4-2.68 6.79h6.6l-2.87-6.79-.52-1.4h-.06ZM253.62 161.87c3.07 0 4.32 1.72 4.32 3.74 0 1.4-.63 2.72-2.56 3.37v.06c1.77.34 2.98 1.76 2.98 3.53 0 4.16-4.17 4.2-4.87 4.2h-3.81v-14.9h3.94Zm-2.55 6.59h2.36c1.96 0 3.02-1.21 3.02-2.83 0-1.81-1.35-2.55-2.97-2.55h-2.4v5.38h-.01Zm0 7.09h2.23c1.25 0 3.56-.23 3.56-2.96 0-1.85-1.43-2.91-3.41-2.91h-2.38v5.87ZM267.57 161.69c4.51 0 6.68 3.64 6.68 7.64 0 4.92-2.93 7.6-6.68 7.6-3.75 0-6.69-2.67-6.69-7.6 0-4 2.18-7.64 6.69-7.64Zm0 14.03c2.57 0 5.18-1.92 5.18-6.38 0-4.47-2.62-6.43-5.18-6.43-2.57 0-5.19 1.96-5.19 6.43 0 4.46 2.61 6.38 5.19 6.38ZM281.45 161.87c3.08 0 4.32 1.72 4.32 3.74 0 1.4-.63 2.72-2.55 3.37v.06c1.77.34 2.97 1.76 2.97 3.53 0 4.16-4.17 4.2-4.86 4.2h-3.82v-14.9h3.94Zm-2.55 6.59h2.36c1.96 0 3.02-1.21 3.02-2.83 0-1.81-1.35-2.55-2.97-2.55h-2.4v5.38h-.01Zm0 7.09h2.23c1.25 0 3.56-.23 3.56-2.96 0-1.85-1.43-2.91-3.41-2.91h-2.38v5.87ZM295.41 161.69c4.51 0 6.68 3.64 6.68 7.64 0 4.92-2.93 7.6-6.68 7.6-3.75 0-6.68-2.67-6.68-7.6-.01-4 2.17-7.64 6.68-7.64Zm0 14.03c2.57 0 5.18-1.92 5.18-6.38 0-4.47-2.61-6.43-5.18-6.43-2.58 0-5.19 1.96-5.19 6.43 0 4.46 2.61 6.38 5.19 6.38ZM312.52 161.87v1.21h-5.78v5.38h5.51v1.21h-5.51v5.88h6.18v1.22h-7.57v-14.9h7.17ZM326.72 161.69c4.51 0 6.68 3.64 6.68 7.64 0 4.92-2.93 7.6-6.68 7.6-3.75 0-6.68-2.67-6.68-7.6 0-4 2.17-7.64 6.68-7.64Zm0 14.03c2.57 0 5.18-1.92 5.18-6.38 0-4.47-2.61-6.43-5.18-6.43-2.58 0-5.19 1.96-5.19 6.43 0 4.46 2.61 6.38 5.19 6.38ZM344.55 161.87v1.21h-6.49v5.3h2.53c4.32 0 4.81 2.96 4.81 4.17 0 2.73-1.96 4.22-4.91 4.22h-3.81v-14.9h7.87Zm-6.49 13.68h2.15c3.05 0 3.69-1.69 3.69-3 0-1.42-.72-2.96-3.67-2.96h-2.17v5.96ZM355.93 161.87v1.21h-5.77v5.38h5.5v1.21h-5.5v5.88h6.17v1.22h-7.56v-14.9h7.16ZM369.62 176.36c-.59.19-2.19.58-4.09.58-5.06 0-7-4.03-7-7.39 0-3.52 1.78-7.86 7.17-7.86 1.39 0 2.57.13 3.77.58l-.13 1.28c-1.03-.43-2.32-.64-3.52-.64-3.54 0-5.79 2.85-5.79 6.66 0 3.39 2.19 6.15 5.71 6.15 1.35 0 2.76-.25 3.88-.7v1.34ZM382.84 161.87v14.9h-1.39v-13.69h-7.69v13.69h-1.39v-14.9h10.47ZM394.22 161.87v1.21h-5.78v5.38h5.51v1.21h-5.51v5.88h6.18v1.22h-7.57v-14.9h7.17ZM398.33 161.87v4.93c0 2.72 2.7 2.68 3.58 2.68.93 0 1.86-.07 2.79-.19l.84-.1v-7.32h1.39v14.9h-1.39v-6.37l-.84.09c-.99.1-1.96.21-2.96.21-4.43 0-4.8-2.53-4.8-3.87v-4.96h1.39ZM418.3 161.87v1.21h-5.77v5.38h5.5v1.21h-5.5v5.88h6.18v1.22h-7.57v-14.9h7.16ZM423.26 161.87v6.57h7.67v-6.57h1.39v14.9h-1.39v-7.12h-7.67v7.12h-1.4v-14.9h1.4ZM437.92 161.87v11.19l-.08 1.81h.06l.82-1.51 7.13-11.49h1.58v14.9h-1.39v-11.2l.09-1.81h-.07l-.74 1.4-7.2 11.61h-1.59v-14.9h1.39ZM458.8 161.87v1.21h-5.77v5.38h5.51v1.21h-5.51v5.88h6.18v1.22h-7.57v-14.9h7.16ZM3.84.27l4.92 10.65h.19L13.57.27h2.62L9 16.47c-.41.92-.97 1.76-1.62 2.24-.49.38-1.27.76-2.38.76-.76 0-1.65-.19-2.24-.38l.3-2.35c.46.19 1.11.35 1.62.35.68 0 1.08-.24 1.27-.38.27-.19.73-.78.87-1.14l.62-1.54L.79.27h3.05ZM17.95.27h5.11c1.62 0 3.65.19 5.08 1.3 1.08.84 1.54 1.97 1.54 3.46 0 .81-.14 1.95-.95 2.89-.7.84-1.92 1.41-2.95 1.62v.05c1.24.08 2.38.59 3.11 1.3.76.73 1.27 1.87 1.27 3.24 0 1.81-.73 2.95-1.46 3.57-1.57 1.35-4.22 1.49-5.73 1.49h-5.03V.27h.01Zm2.7 8.09h1.49c1.19 0 3.14 0 4.11-.95.68-.65.73-1.54.73-2 0-.92-.24-1.68-.97-2.22-.68-.51-1.65-.7-2.51-.7h-2.84v5.87h-.01Zm0 8.62h2.03c1.16 0 2.95-.08 3.89-1.05.38-.41.73-1.05.73-2.08 0-1.22-.43-2.14-1.62-2.73-.97-.49-2.16-.54-3.27-.54h-1.76v6.4ZM33.54.27h10.57v2.38h-7.87v5.54h7.17v2.38h-7.17v6.25h7.87v2.38H33.54V.27ZM47.6.27h4.95c1.43 0 3.62.16 5.19 1.38.92.7 1.89 1.97 1.89 4.22 0 1.7-.6 2.97-1.27 3.76-1.62 1.89-4.22 2-5.41 2H50.3v7.57h-2.7V.27Zm2.7 8.98h2.68c1.03 0 2.19-.32 2.87-.95.43-.41.92-1.16.92-2.33 0-1.14-.43-1.92-1.24-2.51-.97-.7-2.08-.81-2.92-.81h-2.3v6.6h-.01ZM62.25.27h10.57v2.38h-7.87v5.54h7.17v2.38h-7.17v6.25h7.87v2.38H62.25V.27ZM76.61.27h2.7v7.92h9.03V.27h2.7V19.2h-2.7v-8.63h-9.03v8.63h-2.7V.27ZM95.45.27h2.7v7.92h9.03V.27h2.7V19.2h-2.7v-8.63h-9.03v8.63h-2.7V.27ZM129.02 2.87c1.41 1.6 2.33 3.98 2.33 6.87 0 2.95-.97 5.35-2.33 6.89-1.19 1.38-3.3 2.84-6.76 2.84s-5.57-1.46-6.76-2.84c-1.35-1.54-2.32-3.95-2.32-6.89 0-2.89.92-5.27 2.32-6.87 1.54-1.78 3.73-2.87 6.76-2.87s5.22 1.08 6.76 2.87Zm-11.38 1.67c-.97 1.24-1.6 3.24-1.6 5.19 0 1.6.43 3.7 1.6 5.19.92 1.19 2.35 2.16 4.62 2.16s3.7-.97 4.62-2.16c1.16-1.49 1.6-3.6 1.6-5.19 0-1.95-.62-3.95-1.6-5.19-.87-1.11-2.41-2.16-4.62-2.16s-3.75 1.05-4.62 2.16ZM147.24 3.43a7.676 7.676 0 0 0-3.89-1.05c-1.68 0-3.35.51-4.62 1.51-1.51 1.19-2.62 3.22-2.62 5.84 0 2.3.84 3.95 1.78 5.03 1.3 1.51 3.16 2.33 5.73 2.33.92 0 2.22-.19 3.7-.89l.16 2.6c-1.57.59-2.84.68-3.95.68-2.51 0-5.49-.51-7.71-2.79-1.41-1.46-2.6-3.89-2.6-6.98 0-1.97.49-5.3 3.51-7.62 1.95-1.49 4.38-2.08 6.6-2.08 2.06 0 3.24.41 4.11.81l-.2 2.61ZM154.19 2.65h-5.87V.27h14.44v2.38h-5.87V19.2h-2.7V2.65ZM164.92.27h2.7V7.9h1.46c1.65 0 4.08-.05 5.76 1.19 1.22.89 2.14 2.51 2.14 4.52 0 2.06-.87 3.38-1.65 4.08-1.51 1.35-3.62 1.51-5.54 1.51h-4.87V.27Zm2.7 16.55h1.87c1.05 0 2.68 0 3.65-.81.38-.32.97-1.05.97-2.43 0-1.24-.51-1.97-.95-2.38-1.05-.97-2.65-.92-3.62-.92h-1.92v6.54ZM186.6.27h5.11c1.62 0 3.65.19 5.08 1.3 1.08.84 1.54 1.97 1.54 3.46 0 .81-.14 1.95-.95 2.89-.7.84-1.92 1.41-2.95 1.62v.05c1.24.08 2.38.59 3.11 1.3.76.73 1.27 1.87 1.27 3.24 0 1.81-.73 2.95-1.46 3.57-1.57 1.35-4.22 1.49-5.73 1.49h-5.03V.27h.01Zm2.7 8.09h1.49c1.19 0 3.14 0 4.11-.95.68-.65.73-1.54.73-2 0-.92-.24-1.68-.97-2.22-.68-.51-1.65-.7-2.51-.7h-2.84v5.87h-.01Zm0 8.62h2.03c1.16 0 2.95-.08 3.89-1.05.38-.41.73-1.05.73-2.08 0-1.22-.43-2.14-1.62-2.73-.97-.49-2.16-.54-3.27-.54h-1.76v6.4ZM209.1.27h2.7V8.6l8.06-8.33h3.6l-8.87 8.95 9.57 9.98h-3.95l-8.41-9.27v9.27h-2.7V.27Z" fill="#fff"/><path d="M231.62.27h2.84l7.98 18.93h-2.95l-1.92-4.79h-9.25l-1.92 4.79h-2.84L231.62.27Zm1.32 2.54-3.76 9.38h7.52l-3.76-9.38Z" fill="#fff"/><path d="M255.41 8.6h.19l6.79-8.33h3.19l-7.38 8.95 8.06 9.98h-3.52l-7.14-9.27h-.19v9.27h-2.7V9.93h-.19l-7.14 9.27h-3.51l8.06-9.98-7.38-8.95h3.19l6.79 8.33h.19V.27h2.7V8.6h-.01Z" fill="#fff"/><path d="M267.65 16.82a17.56 17.56 0 0 0 2.03-5.22c.24-1.16.49-2.97.59-6.49l.13-4.84h10.92v16.55h2.16v6.6h-2.65V19.2H268.7v4.22h-2.65v-6.6h1.6Zm5.16-14.17-.16 4c-.08 1.87-.14 3.43-.59 5.57-.38 1.73-.87 3.11-1.76 4.6h8.33V2.65h-5.82ZM300.63 2.87c1.41 1.6 2.33 3.98 2.33 6.87 0 2.95-.97 5.35-2.33 6.89-1.19 1.38-3.3 2.84-6.76 2.84s-5.57-1.46-6.76-2.84c-1.35-1.54-2.32-3.95-2.32-6.89 0-2.89.92-5.27 2.32-6.87 1.54-1.78 3.73-2.87 6.76-2.87s5.22 1.08 6.76 2.87Zm-11.38 1.67c-.97 1.24-1.6 3.24-1.6 5.19 0 1.6.43 3.7 1.6 5.19.92 1.19 2.35 2.16 4.62 2.16s3.7-.97 4.62-2.16c1.16-1.49 1.6-3.6 1.6-5.19 0-1.95-.62-3.95-1.6-5.19-.87-1.11-2.41-2.16-4.62-2.16-2.22 0-3.76 1.05-4.62 2.16ZM306.25.27h4.46l5.92 15.74L322.44.27h4.46V19.2h-2.7V2.81h-.05L317.9 19.2h-2.65L309 2.81h-.05V19.2h-2.7V.27ZM338.08.27h4.95c1.43 0 3.62.16 5.19 1.38.92.7 1.89 1.97 1.89 4.22 0 1.7-.59 2.97-1.27 3.76-1.62 1.89-4.22 2-5.41 2h-2.65v7.57h-2.7V.27Zm2.7 8.98h2.68c1.03 0 2.19-.32 2.87-.95.43-.41.92-1.16.92-2.33 0-1.14-.43-1.92-1.24-2.51-.97-.7-2.08-.81-2.92-.81h-2.3v6.6h-.01ZM352.73.27h10.57v2.38h-7.87v5.54h7.17v2.38h-7.17v6.25h7.87v2.38h-10.57V.27ZM369.79.27v16.55h5.62V.27h2.7v16.55h5.62V.27h2.7V19.2h-19.36V.27h2.72ZM390.85.27h10.57v2.38h-7.87v5.54h7.17v2.38h-7.17v6.25h7.87v2.38h-10.57V.27ZM405.2.27h2.7v7.92h9.03V.27h2.7V19.2h-2.7v-8.63h-9.03v8.63h-2.7V.27ZM424.04.27h2.7v12.9l-.08 2.35h.14c.65-1.3 1.03-1.89 1.7-2.97L436.07.27h3.03V19.2h-2.7V6.3l.08-2.35h-.14c-.7 1.49-1.14 2.05-1.7 2.97l-7.57 12.28h-3.03V.27ZM443.5.27h2.7v12.9l-.08 2.35h.14c.65-1.3 1.03-1.89 1.7-2.97L455.53.27h3.03V19.2h-2.7V6.3l.08-2.35h-.14c-.7 1.49-1.14 2.05-1.7 2.97l-7.57 12.28h-3.03V.27Z" fill="#fff"/></svg>