<svg xmlns="http://www.w3.org/2000/svg" viewBox="0 0 180 22"><path fill-opacity=".85" d="M17.024.924 10.388 12.46V21H6.972v-8.54L.28.924h3.808l4.76 8.624 4.9-8.624h3.276Zm5.697 7.952c-1.605 0-3.229.448-4.872 1.344V7.504c.71-.392 1.55-.71 2.52-.952.971-.243 1.932-.364 2.884-.364 1.867 0 3.304.392 4.312 1.176 1.027.784 1.54 2.016 1.54 3.696v7.588c0 .317.01.728.028 1.232.038.485.075.859.112 1.12h-3.024a12.787 12.787 0 0 1-.168-1.092 16.754 16.754 0 0 1-.056-1.26l-.028-.168a5.147 5.147 0 0 1-.896 1.316c-.373.43-.858.784-1.456 1.064-.597.28-1.344.42-2.24.42-1.25 0-2.314-.355-3.192-1.064-.858-.728-1.288-1.783-1.288-3.164 0-1.568.588-2.753 1.764-3.556 1.176-.803 2.838-1.204 4.984-1.204h2.212v-.896c0-.933-.242-1.587-.728-1.96-.485-.373-1.288-.56-2.408-.56Zm3.136 6.524v-.98h-2.016c-1.306 0-2.258.205-2.856.616-.578.392-.868.952-.868 1.68 0 .635.178 1.139.532 1.512.374.355.915.532 1.624.532.691 0 1.27-.14 1.736-.42.467-.299.831-.644 1.092-1.036.28-.392.476-.765.588-1.12.112-.373.168-.635.168-.784Zm13.864-6.524c-.933 0-1.717.205-2.352.616a5.17 5.17 0 0 0-1.512 1.54V21H32.61V6.468h3.08l.112 2.38h.056c.392-.765.98-1.4 1.764-1.904.803-.504 1.82-.756 3.052-.756 1.419 0 2.576.383 3.472 1.148.896.765 1.344 1.932 1.344 3.5V21h-3.248v-9.828c0-.84-.224-1.428-.672-1.764-.448-.355-1.064-.532-1.848-.532Zm8.371 4.844c0-1.699.299-3.099.896-4.2.616-1.12 1.419-1.95 2.408-2.492a6.529 6.529 0 0 1 3.22-.84c1.064 0 1.979.215 2.744.644a5.156 5.156 0 0 1 1.904 1.792v-7.7h3.248V21h-2.94l-.168-2.66a5.818 5.818 0 0 1-1.904 2.128c-.784.541-1.755.812-2.912.812a6.546 6.546 0 0 1-3.192-.812c-.99-.56-1.792-1.4-2.408-2.52-.597-1.12-.896-2.53-.896-4.228Zm11.2 0c0-1.624-.383-2.837-1.148-3.64-.747-.803-1.68-1.204-2.8-1.204-1.12 0-2.063.41-2.828 1.232-.747.821-1.12 2.025-1.12 3.612 0 1.624.373 2.837 1.12 3.64.747.803 1.69 1.204 2.828 1.204 1.12 0 2.053-.392 2.8-1.176.765-.803 1.148-2.025 1.148-3.668Zm13.924 7.56c-2.65 0-4.639-.663-5.964-1.988-1.325-1.344-1.988-3.201-1.988-5.572 0-1.568.308-2.912.924-4.032.616-1.139 1.465-2.007 2.548-2.604 1.082-.597 2.314-.896 3.696-.896 2.333 0 4.05.756 5.152 2.268 1.12 1.512 1.484 3.565 1.092 6.16H68.624c.13 1.325.57 2.324 1.316 2.996.765.653 1.932.98 3.5.98 1.736 0 3.36-.448 4.872-1.344v2.688c-1.419.896-3.117 1.344-5.096 1.344Zm-.784-12.516c-.952 0-1.764.299-2.436.896-.653.579-1.083 1.437-1.288 2.576h6.86c.037-1.12-.215-1.979-.756-2.576s-1.335-.896-2.38-.896Zm7.812-2.296h3.668l3.22 4.788 3.108-4.788h3.164L88.7 13.496 93.712 21h-3.696l-3.556-5.32L82.932 21H79.74l5.124-7.532-4.62-7ZM101.687.924h12.768v2.94h-9.38v5.88h7.952v2.912h-7.952V21h-3.388V.924Zm21.222 20.356c-1.363 0-2.595-.29-3.696-.868-1.083-.597-1.941-1.456-2.576-2.576-.616-1.12-.924-2.492-.924-4.116 0-1.605.308-2.968.924-4.088.635-1.12 1.493-1.97 2.576-2.548 1.101-.597 2.333-.896 3.696-.896s2.585.299 3.668.896c1.101.579 1.969 1.428 2.604 2.548s.952 2.483.952 4.088c0 1.624-.317 2.996-.952 4.116a6.526 6.526 0 0 1-2.604 2.576c-1.083.579-2.305.868-3.668.868Zm0-2.716c1.12 0 2.044-.392 2.772-1.176.747-.784 1.12-2.007 1.12-3.668 0-1.643-.373-2.856-1.12-3.64-.728-.803-1.652-1.204-2.772-1.204-1.12 0-2.053.401-2.8 1.204-.728.784-1.092 1.997-1.092 3.64 0 1.661.364 2.884 1.092 3.668.747.784 1.68 1.176 2.8 1.176Zm18.034-8.96c-1.102 0-2.072.187-2.912.56-.84.373-1.475.915-1.904 1.624V21h-3.248V6.468h2.968l.224 3.052h.056c.485-.97 1.138-1.736 1.96-2.296a6.069 6.069 0 0 1 2.856-1.036v3.416Zm11.754 1.428c0-.821-.206-1.381-.616-1.68-.411-.317-.962-.476-1.652-.476-.878 0-1.596.205-2.156.616a5.312 5.312 0 0 0-1.4 1.54V21h-3.248V6.468h2.968l.224 2.38h.056c.392-.747.961-1.372 1.708-1.876.746-.523 1.717-.784 2.912-.784 1.064 0 1.96.252 2.688.756.746.504 1.26 1.27 1.54 2.296a4.986 4.986 0 0 1 1.848-2.212c.821-.56 1.82-.84 2.996-.84 1.325 0 2.398.383 3.22 1.148.84.765 1.26 1.923 1.26 3.472V21h-3.276v-9.744c0-.821-.215-1.419-.644-1.792-.411-.392-.962-.588-1.652-.588-.878 0-1.596.233-2.156.7a6.192 6.192 0 0 0-1.372 1.708V21h-3.248v-9.968Zm20.599 10.248c-1.046 0-2.063-.15-3.052-.448-.971-.299-1.755-.7-2.352-1.204v-2.576c.578.523 1.344.943 2.296 1.26.97.299 1.969.448 2.996.448 1.978 0 2.968-.607 2.968-1.82 0-.373-.094-.672-.28-.896-.168-.243-.486-.439-.953-.588-.466-.168-1.138-.336-2.015-.504-1.811-.317-3.099-.803-3.864-1.456-.766-.653-1.148-1.615-1.148-2.884 0-1.381.522-2.464 1.568-3.248 1.045-.784 2.501-1.176 4.368-1.176.877 0 1.726.103 2.548.308.84.187 1.502.43 1.988.728V9.8c-1.046-.728-2.511-1.092-4.396-1.092-1.064 0-1.839.14-2.324.42-.486.261-.728.681-.728 1.26 0 .336.074.607.224.812.149.187.448.355.896.504.466.15 1.166.308 2.1.476 1.829.336 3.126.859 3.892 1.568.784.69 1.176 1.67 1.176 2.94 0 1.437-.523 2.567-1.568 3.388-1.046.803-2.492 1.204-4.34 1.204Z"/></svg>