<svg xmlns="http://www.w3.org/2000/svg" width="281" height="44" fill="none" class="svg replaced-svg"><path fill="#005A9C" fill-rule="evenodd" d="M46.304 0h2.003c.794.066 1.575.197 2.363.329-2.034 3.069-4.062 6.137-6.114 9.194 1.308-2.327 2.697-4.606 4.024-6.92-2.94-.27-6.009.346-8.452 1.991-1.315.873-2.201 2.19-3.082 3.446-2.456 3.649-4.607 7.477-7.001 11.162-1.712 2.644-3.485 5.27-5.668 7.579-1.085 1.094-2.27 2.201-3.776 2.715-1.321.371-2.704.365-4.062.515 1.315-.24 2.728-.18 3.938-.802 1.866-1.023 3.206-2.71 4.47-4.343 4.509-6.125 7.547-13.106 11.578-19.512-4.762-3.17-10.889-4.35-16.532-3.087-4.682 1.005-8.911 3.667-11.894 7.274a9.342 9.342 0 0 0-4.458.562c1.916-2.751 4.44-5.114 7.416-6.79C15.1 1.006 19.92 0 24.6.456c4.378.394 8.601 2.111 12.006 4.791C38.566 1.956 42.522.311 46.304 0Z" clip-rule="evenodd"/><path fill="#005A9C" fill-rule="evenodd" d="M1.68 13.523C.016 17.4-.442 21.754.44 25.87c.842 4.205 3.062 8.123 6.188 11.156 5.816 5.91 15.385 7.902 23.26 5.06 3.82-1.387 7.373-3.63 9.89-6.759-3.881 1.693-8.271 2.178-12.476 1.55-7.596-1.131-14.839-5.492-18.56-12.072-1.531-2.787-2.74-6.101-1.692-9.242.57-1.513 1.339-3.278 3.082-3.816-1.526-.55-3.17-.94-4.806-.694-1.52.21-2.983 1.106-3.647 2.47Z" clip-rule="evenodd"/><path fill="#005A9C" fill-rule="evenodd" d="M44.197 14.542c-1.252.143-2.548.437-3.559 1.196-1.736 1.256-3.15 2.86-4.527 4.463-2.27 2.74-4.663 5.377-7.044 8.027-1.135 1.227-2.406 2.447-4.062 2.985-2.152.688-4.477.652-6.685.233 1.433.892 2.865 1.801 4.422 2.489 2.79.34 5.605-.497 7.937-1.95 3.584-2.142 6.207-5.468 9.854-7.525 1.19-.748 2.492-1.376 3.919-1.556 2.17-2.626 4.229-5.33 6.275-8.04-2.151-.34-4.353-.55-6.53-.322Z" clip-rule="evenodd"/><path fill="#FD4236" fill-rule="evenodd" d="M44.485 22.911c2.114-.31 4.285.126 6.22.963-2.413 3.099-4.843 6.203-7.64 8.997-2.32 2.363-5.81 3.2-9.079 3.32-3.844.09-7.738-.652-11.217-2.25 2.79.342 5.605-.496 7.937-1.95 3.584-2.14 6.207-5.467 9.854-7.524 1.196-.748 2.499-1.382 3.925-1.556Z" clip-rule="evenodd"/><path fill="#005A9C" fill-rule="evenodd" d="M60.727 40V0h1v40h-1ZM75.153.007C80.63 0 86.11.003 91.584.003l-.666 4.967h-5.565L83.4 18.742h-6.766L78.587 4.97c-2.287-.004-4.573.003-6.86-.004 1.129-1.656 2.29-3.3 3.426-4.96Zm18.48.014c-.578 4.863-1.154 9.729-1.73 14.592-.15 1.381-.398 2.755-.597 4.13h6.844c.173-1.175.339-2.353.512-3.527 2.196-.004 4.393.007 6.589-.007 1.989-.028 3.975-1.398 4.231-3.258.395-2.931.793-5.862 1.181-8.796.176-1.14-.553-2.315-1.7-2.78-.632-.289-1.35-.358-2.054-.344L93.634.021Zm6.473 4.952h3.565c-.24 1.564-.474 3.127-.714 4.688a.618.618 0 0 1-.632.582c-1 .02-1.997 0-2.997.003.263-1.756.507-3.516.778-5.273Zm15.645-3.947c.229-.66.989-1.047 1.726-1.023 3.249.004 6.502-.003 9.752.004.624-.035 1.297.348 1.309.968.722 5.923 1.436 11.847 2.154 17.767h-6.938c-.124-1.085-.245-2.17-.369-3.258-2.196.018-4.396.049-6.596.07-.399 1.05-.76 2.117-1.177 3.164-.764-.072-1.535-.014-2.298-.03-1.534.013-3.065-.028-4.596.02 2.317-5.903 4.694-11.789 7.033-17.682Zm5.092 4.615c-.703 1.719-1.407 3.44-2.106 5.16h4.084c-.203-1.72-.417-3.438-.624-5.16h-1.354ZM135.081.003h6.834c-.339 2.35-.67 4.702-1.005 7.05 1.287.004 2.573 0 3.859.004.342-2.352.669-4.705 1.008-7.057 2.403.003 4.81-.003 7.213.003-.876 6.244-1.741 12.492-2.617 18.736h-7.206c.312-2.221.632-4.443.944-6.664h-3.862c-.316 2.221-.632 4.443-.944 6.664h-6.834c.869-6.24 1.742-12.488 2.61-18.736Zm39.575 0c2.275.004 4.55 0 6.826 0-.331 2.353-.67 4.702-1.001 7.054h3.863c.338-2.352.665-4.705 1.008-7.057 2.403.003 4.806 0 7.209.003-.873 6.248-1.741 12.492-2.614 18.74h-7.209c.319-2.222.632-4.443.947-6.661h-3.866l-.947 6.664h-6.834c.877-6.248 1.745-12.499 2.618-18.743Zm68.153 0c6.754 0 13.505-.003 20.259 0l-3.291 4.967h-4.881c-.658 4.59-1.305 9.181-1.956 13.772-2.256.004-4.513 0-6.766 0 .647-4.59 1.302-9.181 1.949-13.772h-5.984c.222-1.653.444-3.31.67-4.967Zm21.342 0c-.876 6.234-1.756 12.464-2.599 18.701 1.027-.044 2.057-.003 3.088-.017 3.52.021 7.044-.038 10.568.031 1.436-.103 2.835-.847 3.538-2.015.444-.702.459-1.535.583-2.32.35-2.432.662-4.87 1.035-7.299v-.578c-.102-.971-.79-1.853-1.753-2.263-.921-.434-1.986-.348-2.982-.351h-5.209c.192-1.295.388-2.59.579-3.885-2.282-.004-4.565-.004-6.848-.004Zm4.881 13.79.723-4.928h3.542c-.233 1.446-.399 2.903-.703 4.336-.072.22-.117.613-.455.582-1.034.024-2.069.004-3.107.01ZM154.547 4.157c-.493 3.361-.948 6.726-1.433 10.091-.154.857-.086 1.77.388 2.538.71 1.226 2.2 1.936 3.681 2.032h8.293c2.279-.255 4.468-1.732 5.002-3.837.225-1.112.304-2.242.473-3.36h-6.806c-.102.609-.204 1.218-.298 1.828-1.293.007-2.583-.004-3.873.007.402-2.817.865-5.628 1.263-8.445 1.313.014 2.625.017 3.938.028-.098.61-.192 1.222-.29 1.835h6.792c.139-1.153.328-2.307.452-3.464.086-.84-.241-1.73-.948-2.284C170.154.313 168.74.08 167.42.083c-2.501.01-5.005-.014-7.506.01-2.494.072-4.968 1.746-5.367 4.064Zm40.3-4.074c-.868 6.244-1.741 12.488-2.61 18.732h16.706c.222-1.636.444-3.276.662-4.911-3.295-.004-6.589 0-9.884 0 .117-.779.237-1.554.358-2.332 3.287-.007 6.57-.031 9.853-.031l.598-4.243c-3.287.003-6.578.03-9.865.03.117-.777.237-1.552.358-2.33h9.868c.222-1.64.444-3.276.662-4.915h-16.706Zm18.661 2.097c.753-1.316 2.377-2.115 3.983-2.087 6.123.003 12.241-.003 18.36.003 1.102.014 2.294-.096 3.287.438 1.068.51 1.685 1.65 1.512 2.734-.384 2.897-.775 5.79-1.162 8.683-.218 1.873-2.196 3.282-4.193 3.323-2.216.014-4.431 0-6.642.004-.169 1.178-.346 2.355-.511 3.533h-6.856c.203-1.178.364-2.362.549-3.544h-6.284c-.647 0-1.305-.075-1.888-.344-.944-.406-1.663-1.264-1.753-2.225-.056-.661.109-1.316.188-1.973.305-2.208.613-4.416.918-6.623.082-.648.139-1.333.492-1.922Zm5.446 8.125h3.531c.305-1.753.561-3.513.76-5.277h-3.561c-.245 1.76-.489 3.517-.73 5.277Zm10.365.01c1.023-.007 2.046.014 3.068-.007.328.02.55-.258.553-.537.241-1.578.478-3.152.719-4.726h-3.569c-.26 1.754-.516 3.513-.771 5.27Z" clip-rule="evenodd"/><path fill="#005A9C" d="M109.001 28.71h-3.353l-1.844 5.743h5.7l-.503-5.742Zm.965 11.066-.21-2.389h-6.916l-.755 2.39h-2.85l4.234-13.12a1.207 1.207 0 0 1 1.131-.839h6.162c.503 0 .922.378.922.839l1.174 13.12h-2.892ZM117.121 39.818h-2.892l5.156-13.203c.21-.461.629-.797 1.132-.797h4.317a.87.87 0 0 1 .88.797l2.138 13.203h-2.934l-1.803-10.898h-1.676l-4.318 10.898ZM96.793 29.13c.042-.21-.084-.377-.294-.377h-6.077l-.462 3.772h6.078c.21 0 .378-.126.378-.335l.377-3.06Zm2.473 3.772c-.168 1.425-1.467 2.599-2.892 2.599h-6.79l-.546 4.317h-2.934l1.719-14h9.766c1.425 0 2.431 1.132 2.264 2.557l-.587 4.527ZM74.661 34.285l-2.934-8.467h3.27l2.054 5.994h2.263l3.521-5.994h3.27l-5.03 8.467v.042c-.168.252-3.354 5.491-3.354 5.491H74.62l3.102-5.03h-2.43c-.336-.041-.546-.21-.63-.503Z"/></svg>