<?xml version="1.0" encoding="UTF-8"?> <svg xmlns="http://www.w3.org/2000/svg" width="463" height="180" viewBox="0 0 463 180" fill="none"> <path d="M286.34 52.9399H192.72V143.46H204.1V64.2899H286.34V52.9399Z" fill="white"></path> <path d="M397.3 75.4902V98.3502H380.12V75.4902H368.95V132.11H357.57V75.4902H266.69V132.11H255.31V75.4902H215.58V86.8502H243.87V98.3502H215.58V143.46H277.85V120.9H306.51V86.8502H346.29V98.3502H317.63V143.46H380.12V109.5H397.3V143.46H408.57V86.8502H425.53V143.46H437.02V86.8502H454.1V75.4902H397.3ZM243.88 132.1H235.39H226.9V109.5H235.39H243.88V132.1ZM294.98 109.5H286.45H277.86V86.8502H286.45H294.98V109.5ZM346.3 132.1H337.61H328.97V109.5H337.61H346.3V132.1Z" fill="white"></path> <path d="M360.31 52.9399H289.29V64.2899H360.31V52.9399Z" fill="white"></path> <path d="M400.04 52.9399H363.11V64.2899H400.04V52.9399Z" fill="white"></path> <path d="M445.61 52.9399H431.22V64.2899H445.61V52.9399Z" fill="white"></path> <path d="M454.09 52.9399H448.55V64.2899H454.09V52.9399Z" fill="white"></path> <path d="M428.48 52.9399H403.04V64.2899H428.48V52.9399Z" fill="white"></path> <path d="M455.38 98.2002C451.66 98.2002 448.4 101.42 448.4 105.36C448.4 109.09 451.66 112.36 455.38 112.36C459.36 112.36 462.62 109.09 462.62 105.36C462.62 101.47 459.36 98.2002 455.38 98.2002ZM455.38 110.93C452.53 110.93 450 108.37 450 105.36C450 102.13 452.4 99.6302 455.38 99.6302C458.37 99.6302 460.81 102.2 460.81 105.36C460.81 108.37 458.48 110.93 455.38 110.93Z" fill="white"></path> <path d="M457.2 105.36C457.55 105.15 458.29 104.79 458.29 103.72C458.29 102.84 457.82 101.77 456.01 101.77H452.91V108.72H454.57V106.06H454.92C455.08 106.06 455.24 106.11 455.39 106.11C457.21 106.32 455.8 107.75 456.73 108.71H458.49C458.13 108.35 458.29 108.25 458.13 107.19C458.12 106.58 458.12 105.72 457.2 105.36ZM455.38 104.79H454.56V103H455.28C455.28 103 456.73 102.78 456.73 103.72C456.72 104.64 455.74 104.79 455.38 104.79Z" fill="white"></path> <path d="M195.62 146.27V149.14H209.74V69.8698H459.83V55.7998H456.99V67.1098H206.95V146.27H195.62Z" fill="white"></path> <path d="M218.32 146.27V149.14H283.66V126.47H312.1V92.52H343.34V89.71H309.21V123.61H280.86V146.27H218.32Z" fill="white"></path> <path d="M229.65 129.29V112.36H240.98V115.13H232.49V129.29H229.65Z" fill="white"></path> <path d="M240.99 89.71H218.33V92.52H240.99V89.71Z" fill="white"></path> <path d="M260.9 78.46H258.11V129.29H260.9V78.46Z" fill="white"></path> <path d="M280.86 89.71V106.68H283.66V92.52H292.19V89.71H280.86Z" fill="white"></path> <path d="M331.91 129.29V112.36H343.34V115.13H334.81V129.29H331.91Z" fill="white"></path> <path d="M363.16 78.46H360.36V129.29H363.16V78.46Z" fill="white"></path> <path d="M385.9 78.46H383.12V95.39H385.9V78.46Z" fill="white"></path> <path d="M394.45 112.36H383.12V146.27H320.59V149.14H385.91V115.13H394.45V112.36Z" fill="white"></path> <path d="M400.14 146.27V149.14H414.36V92.52H422.84V89.71H411.52V146.27H400.14Z" fill="white"></path> <path d="M428.54 146.27H439.92V89.71H456.99V78.46H459.83V92.52H442.76V149.14H428.54V146.27Z" fill="white"></path> <path d="M84.6398 51.0801C67.8798 51.0801 54.2998 64.6701 54.2998 81.4201C54.2998 98.1801 67.8898 111.77 84.6498 111.77C101.41 111.77 114.99 98.1901 114.99 81.4201C114.98 64.6801 101.4 51.0801 84.6398 51.0801ZM58.4598 80.9701C58.4598 80.9701 57.8098 63.3701 75.1398 56.5301C65.8198 65.3701 62.6498 67.7101 58.4598 80.9701Z" fill="white"></path> <path d="M11.9799 72.6602C30.9799 97.2502 56.5199 112.33 84.6399 112.33C112.76 112.33 138.3 97.2502 157.3 72.6602H167.42V148.69H42.0799C118.6 141.9 154.15 87.9902 158.2 77.5702L162.97 77.6501H157.96C157.96 77.6501 131.6 116.83 83.1099 116.83C34.6199 116.83 10.8899 77.6501 10.8899 77.6501C7.98986 77.3701 5.34986 77.9202 5.34986 77.9202V148.69H1.85986V72.6602H11.9799Z" fill="white"></path> <path d="M1.75988 161.87V173.06L1.67988 174.87H1.73988L2.56988 173.36L9.68988 161.87H11.2699V176.77H9.87988V165.57L9.95988 163.76H9.89988L9.15989 165.16L1.95988 176.77H0.379883V161.87H1.75988Z" fill="white"></path> <path d="M16.87 161.87V168.44H24.55V161.87H25.94V176.77H24.55V169.65H16.87V176.77H15.49V161.87H16.87Z" fill="white"></path> <path d="M37.74 160.97V162.73H38.39C42.56 162.73 44.88 165.95 44.88 169.18C44.88 172.42 42.56 175.63 38.39 175.63H37.74V177.44H36.35V175.63H35.7C31.53 175.63 29.21 172.42 29.21 169.18C29.21 165.95 31.53 162.73 35.7 162.73H36.35V160.97H37.74ZM36.35 163.95H35.7C32.83 163.95 30.7 165.85 30.7 169.19C30.7 172.54 32.83 174.43 35.7 174.43H36.35V163.95V163.95ZM37.74 174.42H38.39C41.25 174.42 43.39 172.53 43.39 169.18C43.39 165.84 41.26 163.94 38.39 163.94H37.74V174.42Z" fill="white"></path> <path d="M53.88 161.69C58.39 161.69 60.56 165.33 60.56 169.33C60.56 174.25 57.63 176.93 53.88 176.93C50.13 176.93 47.2 174.26 47.2 169.33C47.2 165.33 49.37 161.69 53.88 161.69ZM53.88 175.72C56.45 175.72 59.06 173.8 59.06 169.34C59.06 164.87 56.45 162.91 53.88 162.91C51.31 162.91 48.7 164.87 48.7 169.34C48.7 173.8 51.31 175.72 53.88 175.72Z" fill="white"></path> <path d="M67.6598 161.87C70.3998 161.87 72.0898 163.61 72.0898 166.16C72.0898 168.72 70.4298 170.46 67.6598 170.46H65.2198V176.76H63.8298V161.86H67.6598V161.87ZM65.2198 169.25H67.3898C68.1898 169.25 70.5898 169.1 70.5898 166.16C70.5898 163.09 67.7598 163.08 67.3898 163.08H65.2198V169.25V169.25Z" fill="white"></path> <path d="M82.8298 175.42L83.4498 173.44L88.3598 161.87H90.5498V176.77H89.1598V165.23L89.1998 163.21H89.1098L88.3998 165.16L83.5098 176.77H82.0798L77.1898 165.16L76.4698 163.21H76.3898L76.4298 165.23V176.77H75.0398V161.87H77.2298L82.1398 173.44L82.7498 175.42H82.8298Z" fill="white"></path> <path d="M100.64 161.87L106.86 176.77H105.36L103.65 172.66H96.11L94.47 176.77H92.98L98.83 161.87H100.64ZM99.69 163.25L99.23 164.65L96.55 171.44H103.15L100.28 164.65L99.75 163.25H99.69Z" fill="white"></path> <path d="M110.67 161.87V175.55H118.51V161.87H119.9V175.55H121.65V180H120.26V176.77H109.28V161.87H110.67Z" fill="white"></path> <path d="M126 161.87V173.06L125.91 174.87H125.97L126.8 173.36L133.92 161.87H135.5V176.77H134.11V165.57L134.19 163.76H134.13L133.39 165.16L126.18 176.77H124.6V161.87H126Z" fill="white"></path> <path d="M145.45 161.69C149.96 161.69 152.13 165.33 152.13 169.33C152.13 174.25 149.2 176.93 145.45 176.93C141.7 176.93 138.77 174.26 138.77 169.33C138.76 165.33 140.94 161.69 145.45 161.69ZM145.45 175.72C148.02 175.72 150.63 173.8 150.63 169.34C150.63 164.87 148.02 162.91 145.45 162.91C142.88 162.91 140.26 164.87 140.26 169.34C140.26 173.8 142.87 175.72 145.45 175.72Z" fill="white"></path> <path d="M156.78 161.87V168.44H164.46V161.87H165.84V176.77H164.46V169.65H156.78V176.77H155.39V161.87H156.78Z" fill="white"></path> <path d="M171.45 161.87V168.44H179.12V161.87H180.51V176.77H179.12V169.65H171.45V176.77H170.06V161.87H171.45Z" fill="white"></path> <path d="M190.46 161.69C194.97 161.69 197.14 165.33 197.14 169.33C197.14 174.25 194.21 176.93 190.46 176.93C186.71 176.93 183.78 174.26 183.78 169.33C183.78 165.33 185.95 161.69 190.46 161.69ZM190.46 175.72C193.03 175.72 195.64 173.8 195.64 169.34C195.64 164.87 193.03 162.91 190.46 162.91C187.89 162.91 185.27 164.87 185.27 169.34C185.27 173.8 187.88 175.72 190.46 175.72Z" fill="white"></path> <path d="M205.04 169.05H200.41V170.18H205.04V169.05Z" fill="white"></path> <path d="M219.73 161.87V176.77H218.34V163.08H210.65V176.77H209.26V161.87H219.73Z" fill="white"></path> <path d="M227.78 161.87C230.52 161.87 232.2 163.61 232.2 166.16C232.2 168.72 230.54 170.46 227.78 170.46H225.34V176.76H223.95V161.86H227.78V161.87ZM225.34 169.25H227.51C228.31 169.25 230.71 169.1 230.71 166.16C230.71 163.09 227.88 163.08 227.51 163.08H225.34V169.25Z" fill="white"></path> <path d="M241.03 161.87L247.25 176.77H245.75L244.05 172.66H236.5L234.86 176.77H233.36L239.22 161.87H241.03ZM240.09 163.25L239.62 164.65L236.94 171.44H243.54L240.67 164.65L240.15 163.25H240.09Z" fill="white"></path> <path d="M253.62 161.87C256.69 161.87 257.94 163.59 257.94 165.61C257.94 167.01 257.31 168.33 255.38 168.98V169.04C257.15 169.38 258.36 170.8 258.36 172.57C258.36 176.73 254.19 176.77 253.49 176.77H249.68V161.87H253.62ZM251.07 168.46H253.43C255.39 168.46 256.45 167.25 256.45 165.63C256.45 163.82 255.1 163.08 253.48 163.08H251.08V168.46H251.07ZM251.07 175.55H253.3C254.55 175.55 256.86 175.32 256.86 172.59C256.86 170.74 255.43 169.68 253.45 169.68H251.07V175.55Z" fill="white"></path> <path d="M267.57 161.69C272.08 161.69 274.25 165.33 274.25 169.33C274.25 174.25 271.32 176.93 267.57 176.93C263.82 176.93 260.88 174.26 260.88 169.33C260.88 165.33 263.06 161.69 267.57 161.69ZM267.57 175.72C270.14 175.72 272.75 173.8 272.75 169.34C272.75 164.87 270.13 162.91 267.57 162.91C265 162.91 262.38 164.87 262.38 169.34C262.38 173.8 264.99 175.72 267.57 175.72Z" fill="white"></path> <path d="M281.45 161.87C284.53 161.87 285.77 163.59 285.77 165.61C285.77 167.01 285.14 168.33 283.22 168.98V169.04C284.99 169.38 286.19 170.8 286.19 172.57C286.19 176.73 282.02 176.77 281.33 176.77H277.51V161.87H281.45ZM278.9 168.46H281.26C283.22 168.46 284.28 167.25 284.28 165.63C284.28 163.82 282.93 163.08 281.31 163.08H278.91V168.46H278.9ZM278.9 175.55H281.13C282.38 175.55 284.69 175.32 284.69 172.59C284.69 170.74 283.26 169.68 281.28 169.68H278.9V175.55Z" fill="white"></path> <path d="M295.41 161.69C299.92 161.69 302.09 165.33 302.09 169.33C302.09 174.25 299.16 176.93 295.41 176.93C291.66 176.93 288.73 174.26 288.73 169.33C288.72 165.33 290.9 161.69 295.41 161.69ZM295.41 175.72C297.98 175.72 300.59 173.8 300.59 169.34C300.59 164.87 297.98 162.91 295.41 162.91C292.83 162.91 290.22 164.87 290.22 169.34C290.22 173.8 292.83 175.72 295.41 175.72Z" fill="white"></path> <path d="M312.52 161.87V163.08H306.74V168.46H312.25V169.67H306.74V175.55H312.92V176.77H305.35V161.87H312.52Z" fill="white"></path> <path d="M326.72 161.69C331.23 161.69 333.4 165.33 333.4 169.33C333.4 174.25 330.47 176.93 326.72 176.93C322.97 176.93 320.04 174.26 320.04 169.33C320.04 165.33 322.21 161.69 326.72 161.69ZM326.72 175.72C329.29 175.72 331.9 173.8 331.9 169.34C331.9 164.87 329.29 162.91 326.72 162.91C324.14 162.91 321.53 164.87 321.53 169.34C321.53 173.8 324.14 175.72 326.72 175.72Z" fill="white"></path> <path d="M344.55 161.87V163.08H338.06V168.38H340.59C344.91 168.38 345.4 171.34 345.4 172.55C345.4 175.28 343.44 176.77 340.49 176.77H336.68V161.87H344.55ZM338.06 175.55H340.21C343.26 175.55 343.9 173.86 343.9 172.55C343.9 171.13 343.18 169.59 340.23 169.59H338.06V175.55V175.55Z" fill="white"></path> <path d="M355.93 161.87V163.08H350.16V168.46H355.66V169.67H350.16V175.55H356.33V176.77H348.77V161.87H355.93Z" fill="white"></path> <path d="M369.62 176.36C369.03 176.55 367.43 176.94 365.53 176.94C360.47 176.94 358.53 172.91 358.53 169.55C358.53 166.03 360.31 161.69 365.7 161.69C367.09 161.69 368.27 161.82 369.47 162.27L369.34 163.55C368.31 163.12 367.02 162.91 365.82 162.91C362.28 162.91 360.03 165.76 360.03 169.57C360.03 172.96 362.22 175.72 365.74 175.72C367.09 175.72 368.5 175.47 369.62 175.02V176.36Z" fill="white"></path> <path d="M382.84 161.87V176.77H381.45V163.08H373.76V176.77H372.37V161.87H382.84Z" fill="white"></path> <path d="M394.22 161.87V163.08H388.44V168.46H393.95V169.67H388.44V175.55H394.62V176.77H387.05V161.87H394.22Z" fill="white"></path> <path d="M398.33 161.87V166.8C398.33 169.52 401.03 169.48 401.91 169.48C402.84 169.48 403.77 169.41 404.7 169.29L405.54 169.19V161.87H406.93V176.77H405.54V170.4L404.7 170.49C403.71 170.59 402.74 170.7 401.74 170.7C397.31 170.7 396.94 168.17 396.94 166.83V161.87H398.33V161.87Z" fill="white"></path> <path d="M418.3 161.87V163.08H412.53V168.46H418.03V169.67H412.53V175.55H418.71V176.77H411.14V161.87H418.3Z" fill="white"></path> <path d="M423.26 161.87V168.44H430.93V161.87H432.32V176.77H430.93V169.65H423.26V176.77H421.86V161.87H423.26Z" fill="white"></path> <path d="M437.92 161.87V173.06L437.84 174.87H437.9L438.72 173.36L445.85 161.87H447.43V176.77H446.04V165.57L446.13 163.76H446.06L445.32 165.16L438.12 176.77H436.53V161.87H437.92Z" fill="white"></path> <path d="M458.8 161.87V163.08H453.03V168.46H458.54V169.67H453.03V175.55H459.21V176.77H451.64V161.87H458.8Z" fill="white"></path> <path d="M3.83979 0.27002L8.7598 10.92H8.94979L13.5698 0.27002H16.1898L8.99979 16.47C8.58979 17.39 8.02979 18.23 7.37979 18.71C6.88979 19.09 6.10979 19.47 4.99979 19.47C4.23979 19.47 3.34979 19.28 2.75979 19.09L3.05979 16.74C3.51979 16.93 4.16979 17.09 4.67979 17.09C5.35979 17.09 5.75979 16.85 5.94979 16.71C6.21979 16.52 6.67979 15.93 6.81979 15.57L7.4398 14.03L0.789795 0.27002H3.83979Z" fill="white"></path> <path d="M17.9499 0.27002H23.0599C24.6799 0.27002 26.7099 0.460019 28.1399 1.57002C29.2199 2.41002 29.6799 3.54002 29.6799 5.03002C29.6799 5.84002 29.5399 6.98002 28.7299 7.92002C28.0299 8.76002 26.8099 9.33002 25.7799 9.54002V9.59002C27.0199 9.67002 28.1599 10.18 28.8899 10.89C29.6499 11.62 30.1599 12.76 30.1599 14.13C30.1599 15.94 29.4299 17.08 28.6999 17.7C27.1299 19.05 24.4799 19.19 22.9699 19.19H17.9399V0.27002H17.9499ZM20.6499 8.36002H22.1399C23.3299 8.36002 25.2799 8.36002 26.2499 7.41002C26.9299 6.76002 26.9799 5.87002 26.9799 5.41002C26.9799 4.49002 26.7399 3.73002 26.0099 3.19002C25.3299 2.68002 24.3599 2.49002 23.4999 2.49002H20.6599V8.36002H20.6499ZM20.6499 16.98H22.6799C23.8399 16.98 25.6299 16.9 26.5699 15.93C26.9499 15.52 27.2999 14.88 27.2999 13.85C27.2999 12.63 26.8699 11.71 25.6799 11.12C24.7099 10.63 23.5199 10.58 22.4099 10.58H20.6499V16.98Z" fill="white"></path> <path d="M33.5398 0.27002H44.1098V2.65002H36.2398V8.19002H43.4098V10.57H36.2398V16.82H44.1098V19.2H33.5398V0.27002Z" fill="white"></path> <path d="M47.5999 0.27002H52.5499C53.9799 0.27002 56.1699 0.430021 57.7399 1.65002C58.6599 2.35002 59.6299 3.62002 59.6299 5.87002C59.6299 7.57002 59.0299 8.84002 58.3599 9.63002C56.7399 11.52 54.1399 11.63 52.9499 11.63H50.2999V19.2H47.5999V0.27002ZM50.2999 9.25002H52.9799C54.0099 9.25002 55.1699 8.93002 55.8499 8.30002C56.2799 7.89002 56.7699 7.14002 56.7699 5.97002C56.7699 4.83002 56.3399 4.05002 55.5299 3.46002C54.5599 2.76002 53.4499 2.65002 52.6099 2.65002H50.3099V9.25002H50.2999Z" fill="white"></path> <path d="M62.25 0.27002H72.82V2.65002H64.95V8.19002H72.12V10.57H64.95V16.82H72.82V19.2H62.25V0.27002V0.27002Z" fill="white"></path> <path d="M76.6099 0.27002H79.3099V8.19002H88.3399V0.27002H91.0399V19.2H88.3399V10.57H79.3099V19.2H76.6099V0.27002Z" fill="white"></path> <path d="M95.45 0.27002H98.1499V8.19002H107.18V0.27002H109.88V19.2H107.18V10.57H98.1499V19.2H95.45V0.27002Z" fill="white"></path> <path d="M129.02 2.87C130.43 4.47 131.35 6.85 131.35 9.74C131.35 12.69 130.38 15.09 129.02 16.63C127.83 18.01 125.72 19.47 122.26 19.47C118.8 19.47 116.69 18.01 115.5 16.63C114.15 15.09 113.18 12.68 113.18 9.74C113.18 6.85 114.1 4.47 115.5 2.87C117.04 1.09 119.23 0 122.26 0C125.29 0 127.48 1.08 129.02 2.87ZM117.64 4.54C116.67 5.78 116.04 7.78 116.04 9.73C116.04 11.33 116.47 13.43 117.64 14.92C118.56 16.11 119.99 17.08 122.26 17.08C124.53 17.08 125.96 16.11 126.88 14.92C128.04 13.43 128.48 11.32 128.48 9.73C128.48 7.78 127.86 5.78 126.88 4.54C126.01 3.43 124.47 2.38 122.26 2.38C120.05 2.38 118.51 3.43 117.64 4.54Z" fill="white"></path> <path d="M147.24 3.42977C146.05 2.72977 144.7 2.37977 143.35 2.37977C141.67 2.37977 140 2.88977 138.73 3.88977C137.22 5.07977 136.11 7.10977 136.11 9.72977C136.11 12.0298 136.95 13.6798 137.89 14.7598C139.19 16.2698 141.05 17.0898 143.62 17.0898C144.54 17.0898 145.84 16.8998 147.32 16.1998L147.48 18.7998C145.91 19.3898 144.64 19.4798 143.53 19.4798C141.02 19.4798 138.04 18.9698 135.82 16.6898C134.41 15.2298 133.22 12.7998 133.22 9.70977C133.22 7.73977 133.71 4.40977 136.73 2.08977C138.68 0.599767 141.11 0.00976562 143.33 0.00976562C145.39 0.00976562 146.57 0.419767 147.44 0.819767L147.24 3.42977Z" fill="white"></path> <path d="M154.19 2.65002H148.32V0.27002H162.76V2.65002H156.89V19.2H154.19V2.65002Z" fill="white"></path> <path d="M164.92 0.27002H167.62V7.90002H169.08C170.73 7.90002 173.16 7.85002 174.84 9.09002C176.06 9.98002 176.98 11.6 176.98 13.61C176.98 15.67 176.11 16.99 175.33 17.69C173.82 19.04 171.71 19.2 169.79 19.2H164.92V0.27002V0.27002ZM167.62 16.82H169.49C170.54 16.82 172.17 16.82 173.14 16.01C173.52 15.69 174.11 14.96 174.11 13.58C174.11 12.34 173.6 11.61 173.16 11.2C172.11 10.23 170.51 10.28 169.54 10.28H167.62V16.82V16.82Z" fill="white"></path> <path d="M186.6 0.27002H191.71C193.33 0.27002 195.36 0.460019 196.79 1.57002C197.87 2.41002 198.33 3.54002 198.33 5.03002C198.33 5.84002 198.19 6.98002 197.38 7.92002C196.68 8.76002 195.46 9.33002 194.43 9.54002V9.59002C195.67 9.67002 196.81 10.18 197.54 10.89C198.3 11.62 198.81 12.76 198.81 14.13C198.81 15.94 198.08 17.08 197.35 17.7C195.78 19.05 193.13 19.19 191.62 19.19H186.59V0.27002H186.6ZM189.3 8.36002H190.79C191.98 8.36002 193.93 8.36002 194.9 7.41002C195.58 6.76002 195.63 5.87002 195.63 5.41002C195.63 4.49002 195.39 3.73002 194.66 3.19002C193.98 2.68002 193.01 2.49002 192.15 2.49002H189.31V8.36002H189.3ZM189.3 16.98H191.33C192.49 16.98 194.28 16.9 195.22 15.93C195.6 15.52 195.95 14.88 195.95 13.85C195.95 12.63 195.52 11.71 194.33 11.12C193.36 10.63 192.17 10.58 191.06 10.58H189.3V16.98V16.98Z" fill="white"></path> <path d="M209.1 0.27002H211.8V8.60002L219.86 0.27002H223.46L214.59 9.22002L224.16 19.2H220.21L211.8 9.93002V19.2H209.1V0.27002Z" fill="white"></path> <path d="M231.62 0.27002H234.46L242.44 19.2H239.49L237.57 14.41H228.32L226.4 19.2H223.56L231.62 0.27002ZM232.94 2.81002L229.18 12.19H236.7L232.94 2.81002Z" fill="white"></path> <path d="M255.41 8.60002H255.6L262.39 0.27002H265.58L258.2 9.22002L266.26 19.2H262.74L255.6 9.93002H255.41V19.2H252.71V9.93002H252.52L245.38 19.2H241.87L249.93 9.22002L242.55 0.27002H245.74L252.53 8.60002H252.72V0.27002H255.42V8.60002H255.41Z" fill="white"></path> <path d="M267.65 16.82C268.95 14.6 269.46 12.63 269.68 11.6C269.92 10.44 270.17 8.63002 270.27 5.11002L270.4 0.27002H281.32V16.82H283.48V23.42H280.83V19.2H268.7V23.42H266.05V16.82H267.65V16.82ZM272.81 2.65002L272.65 6.65002C272.57 8.52002 272.51 10.08 272.06 12.22C271.68 13.95 271.19 15.33 270.3 16.82H278.63V2.65002H272.81Z" fill="white"></path> <path d="M300.63 2.87C302.04 4.47 302.96 6.85 302.96 9.74C302.96 12.69 301.99 15.09 300.63 16.63C299.44 18.01 297.33 19.47 293.87 19.47C290.41 19.47 288.3 18.01 287.11 16.63C285.76 15.09 284.79 12.68 284.79 9.74C284.79 6.85 285.71 4.47 287.11 2.87C288.65 1.09 290.84 0 293.87 0C296.9 0 299.09 1.08 300.63 2.87ZM289.25 4.54C288.28 5.78 287.65 7.78 287.65 9.73C287.65 11.33 288.08 13.43 289.25 14.92C290.17 16.11 291.6 17.08 293.87 17.08C296.14 17.08 297.57 16.11 298.49 14.92C299.65 13.43 300.09 11.32 300.09 9.73C300.09 7.78 299.47 5.78 298.49 4.54C297.62 3.43 296.08 2.38 293.87 2.38C291.65 2.38 290.11 3.43 289.25 4.54Z" fill="white"></path> <path d="M306.25 0.27002H310.71L316.63 16.01L322.44 0.27002H326.9V19.2H324.2V2.81002H324.15L317.9 19.2H315.25L309 2.81002H308.95V19.2H306.25V0.27002Z" fill="white"></path> <path d="M338.08 0.27002H343.03C344.46 0.27002 346.65 0.430021 348.22 1.65002C349.14 2.35002 350.11 3.62002 350.11 5.87002C350.11 7.57002 349.52 8.84002 348.84 9.63002C347.22 11.52 344.62 11.63 343.43 11.63H340.78V19.2H338.08V0.27002ZM340.78 9.25002H343.46C344.49 9.25002 345.65 8.93002 346.33 8.30002C346.76 7.89002 347.25 7.14002 347.25 5.97002C347.25 4.83002 346.82 4.05002 346.01 3.46002C345.04 2.76002 343.93 2.65002 343.09 2.65002H340.79V9.25002H340.78Z" fill="white"></path> <path d="M352.73 0.27002H363.3V2.65002H355.43V8.19002H362.6V10.57H355.43V16.82H363.3V19.2H352.73V0.27002Z" fill="white"></path> <path d="M369.79 0.27002V16.82H375.41V0.27002H378.11V16.82H383.73V0.27002H386.43V19.2H367.07V0.27002H369.79Z" fill="white"></path> <path d="M390.85 0.27002H401.42V2.65002H393.55V8.19002H400.72V10.57H393.55V16.82H401.42V19.2H390.85V0.27002Z" fill="white"></path> <path d="M405.2 0.27002H407.9V8.19002H416.93V0.27002H419.63V19.2H416.93V10.57H407.9V19.2H405.2V0.27002Z" fill="white"></path> <path d="M424.04 0.27002H426.74V13.17L426.66 15.52H426.8C427.45 14.22 427.83 13.63 428.5 12.55L436.07 0.27002H439.1V19.2H436.4V6.30002L436.48 3.95002H436.34C435.64 5.44002 435.2 6.00002 434.64 6.92002L427.07 19.2H424.04V0.27002Z" fill="white"></path> <path d="M443.5 0.27002H446.2V13.17L446.12 15.52H446.26C446.91 14.22 447.29 13.63 447.96 12.55L455.53 0.27002H458.56V19.2H455.86V6.30002L455.94 3.95002H455.8C455.1 5.44002 454.66 6.00002 454.1 6.92002L446.53 19.2H443.5V0.27002V0.27002Z" fill="white"></path> </svg> 