<?xml version="1.0" encoding="UTF-8"?>
<!DOCTYPE svg PUBLIC "-//W3C//DTD SVG 1.1//EN" "http://www.w3.org/Graphics/SVG/1.1/DTD/svg11.dtd">
<!-- Creator: CorelDRAW 2018 (64-Bit) -->
<svg xmlns="http://www.w3.org/2000/svg" xml:space="preserve" width="37.1093mm" height="12.385mm" version="1.1" style="shape-rendering:geometricPrecision; text-rendering:geometricPrecision; image-rendering:optimizeQuality; fill-rule:evenodd; clip-rule:evenodd"
viewBox="0 0 3710.94 1238.5"
 xmlns:xlink="http://www.w3.org/1999/xlink">
 <defs>
  <style type="text/css">
   <![CDATA[
    .fil1 {fill:#8F3865}
    .fil0 {fill:#333333;fill-rule:nonzero}
   ]]>
  </style>
 </defs>
 <g id="Слой_x0020_1">
  <metadata id="CorelCorpID_0Corel-Layer"/>
  <g id="_1040297180592">
   <path class="fil0" d="M3710.94 883.45l-96.91 0 0 218.38 -82.55 0 0 -218.38 -96.94 0 0 -68.17 276.4 0 0 68.17zm-610.35 -68.17l82.55 0 0 111.84 124.63 0 0 -111.84 83.09 0 0 286.55 -83.09 0 0 -107.05 -124.63 0 0 107.05 -82.55 0 0 -286.55zm-216.78 234.89c14.2,0 26.82,-3.3 37.83,-9.87 11.01,-6.56 18.81,-16.25 23.43,-29.01l0 -29.31 -56.98 0c-34.1,0 -51.13,11.19 -51.13,33.57 0,10.65 4.16,19.07 12.49,25.3 8.35,6.2 19.81,9.32 34.36,9.32zm6.41 -239.15c44.38,0 78.45,10.57 102.25,31.68 23.77,21.14 35.69,53 35.69,95.61l0 163.52 -77.77 0 0 -35.69c-15.62,26.62 -44.73,39.95 -87.36,39.95 -22,0 -41.08,-3.74 -57.25,-11.18 -16.13,-7.47 -28.49,-17.76 -37,-30.89 -8.53,-13.14 -12.78,-28.05 -12.78,-44.75 0,-26.62 10.03,-47.57 30.08,-62.84 20.07,-15.28 51.05,-22.91 92.95,-22.91l66.04 0c0,-18.11 -5.51,-32.03 -16.52,-41.82 -10.99,-9.75 -27.52,-14.63 -49.52,-14.63 -15.28,0 -30.29,2.4 -45,7.18 -14.76,4.79 -27.25,11.27 -37.58,19.43l-29.8 -58.04c15.62,-11.01 34.35,-19.53 56.17,-25.56 21.84,-6.04 44.32,-9.06 67.4,-9.06zm-489.47 4.26l82.55 0 0 170.42 139.54 -170.42 76.16 0 0 286.55 -82.57 0 0 -170.45 -139 170.45 -76.68 0 0 -286.55zm-215.21 222.62c21.33,0 38.82,-7.18 52.47,-21.55 13.67,-14.39 20.51,-33.65 20.51,-57.8 0,-24.14 -6.84,-43.4 -20.51,-57.79 -13.65,-14.37 -31.14,-21.57 -52.47,-21.57 -21.3,0 -38.78,7.2 -52.45,21.57 -13.67,14.39 -20.51,33.65 -20.51,57.79 0,24.15 6.84,43.41 20.51,57.8 13.67,14.37 31.15,21.55 52.45,21.55zm14.4 -226.88c26.63,0 50.87,6.12 72.69,18.37 21.84,12.25 38.98,29.48 51.39,51.68 12.45,22.17 18.65,48.01 18.65,77.48 0,29.48 -6.2,55.31 -18.65,77.51 -12.41,22.18 -29.55,39.41 -51.39,51.66 -21.82,12.23 -46.06,18.37 -72.69,18.37 -36.59,0 -65.34,-11.54 -86.3,-34.62l0 133.68 -83.09 0 0 -389.87 79.37 0 0 33.02c20.58,-24.86 50.6,-37.28 90.02,-37.28zm-362.72 145.41l-59.12 -142.75 -59.12 142.75 118.24 0zm27.16 65.5l-173.1 0 -33.01 79.9 -88.43 0 166.2 -372.84 85.21 0 166.7 372.84 -90.55 0 -33.02 -79.9z"/>
   <path class="fil1" d="M640.64 1238.5c-289.96,-0.02 -579.93,-64.71 -635.52,-121.98 -4.3,-4.41 -5.98,-10.17 -4.7,-16.22 129.84,-616.72 570.22,-1100.12 640.22,-1100.3 70.01,0.18 510.38,483.58 640.23,1100.3 1.27,6.05 -0.39,11.81 -4.7,16.22 -55.59,57.27 -345.57,121.96 -635.53,121.98zm-363.15 -178.18c105.97,20.34 235.17,34.23 363.15,34.23 127.98,0 257.17,-13.89 363.17,-34.23 45.88,-8.8 84.5,-17.22 113.33,-24.61 -50.1,-185.33 -128.6,-355.93 -212.02,-499.31 -139.05,-238.95 -251.5,-358.27 -264.48,-358.3 -12.98,0.03 -125.46,119.35 -264.47,358.3 -83.42,143.38 -161.91,313.97 -212.01,499.31 28.8,7.39 67.42,15.81 113.33,24.61z"/>
   <path class="fil0" d="M1670.53 474.27l-40.04 0 0 90.88 -39.43 0 0 -215.61 39.43 0 0 90.23 41.27 0 61.92 -90.23 42.5 0 -73.61 104.42 76.38 111.19 -45.27 0 -63.15 -90.88zm202.68 93.03c-16.64,0 -31.62,-3.61 -44.97,-10.78 -13.34,-7.18 -23.77,-17.2 -31.27,-30.03 -7.5,-12.85 -11.24,-27.36 -11.24,-43.58 0,-16.22 3.74,-30.71 11.24,-43.44 7.5,-12.72 17.93,-22.68 31.27,-29.88 13.35,-7.17 28.33,-10.77 44.97,-10.77 16.82,0 31.91,3.6 45.26,10.77 13.37,7.2 23.78,17.16 31.25,29.88 7.51,12.73 11.25,27.22 11.25,43.44 0,16.22 -3.74,30.73 -11.25,43.58 -7.47,12.83 -17.88,22.85 -31.25,30.03 -13.35,7.17 -28.44,10.78 -45.26,10.78zm0 -32.96c14.15,0 25.85,-4.73 35.08,-14.19 9.26,-9.42 13.86,-21.85 13.86,-37.24 0,-15.4 -4.6,-27.83 -13.86,-37.28 -9.23,-9.45 -20.93,-14.16 -35.08,-14.16 -14.17,0 -25.82,4.71 -34.96,14.16 -9.13,9.45 -13.71,21.88 -13.71,37.28 0,15.39 4.58,27.82 13.71,37.24 9.14,9.46 20.79,14.19 34.96,14.19zm287.34 30.81l0 -109.05 -55.43 91.79 -16.62 0 -54.53 -92.1 0 109.36 -35.1 0 0 -164.48 40.35 0 58.52 102.87 61.29 -102.87 36.05 0 0.3 164.48 -34.83 0zm244.28 -164.48l0 164.48 -38.18 0 0 -131.84 -81.02 0 0 131.84 -38.5 0 0 -164.48 157.7 0zm113.35 -1.85c24.23,0 42.75,5.79 55.58,17.4 12.86,11.61 19.24,29.09 19.24,52.52l0 96.41 -36.33 0 0 -20.03c-4.72,7.18 -11.44,12.68 -20.17,16.49 -8.73,3.78 -19.25,5.69 -31.56,5.69 -12.33,0 -23.11,-2.1 -32.34,-6.31 -9.26,-4.21 -16.39,-10.08 -21.42,-17.57 -5.04,-7.49 -7.55,-15.96 -7.55,-25.4 0,-14.8 5.5,-26.64 16.47,-35.59 11.02,-8.92 28.3,-13.39 51.91,-13.39l42.51 0 0 -2.48c0,-11.48 -3.44,-20.31 -10.32,-26.47 -6.89,-6.16 -17.09,-9.24 -30.65,-9.24 -9.21,0 -18.32,1.44 -27.26,4.32 -8.92,2.87 -16.47,6.88 -22.64,12.01l-15.09 -28.04c8.63,-6.57 18.99,-11.6 31.12,-15.08 12.11,-3.49 24.94,-5.24 38.5,-5.24zm-5.25 140.43c9.66,0 18.22,-2.19 25.72,-6.61 7.51,-4.41 12.78,-10.74 15.87,-18.93l0 -19.1 -39.74 0c-22.17,0 -33.27,7.3 -33.27,21.87 0,7 2.79,12.51 8.34,16.64 5.53,4.1 13.23,6.13 23.08,6.13zm127.84 -138.58l38.48 0 0 66.84 82.87 0 0 -66.84 38.51 0 0 164.48 -38.51 0 0 -64.99 -82.87 0 0 64.99 -38.48 0 0 -164.48zm211.59 0l38.51 0 0 108.42 90.86 -108.42 35.12 0 0 164.48 -38.51 0 0 -108.42 -90.54 108.42 -35.44 0 0 -164.48zm216.23 0l38.5 0 0 108.42 90.86 -108.42 35.11 0 0 164.48 -38.5 0 0 -108.42 -90.54 108.42 -35.43 0 0 -164.48zm79.77 -19.41c-16.64,0 -29.31,-3.86 -38.04,-11.54 -8.72,-7.71 -13.18,-18.97 -13.4,-33.74l25.56 0c0.21,7.39 2.53,13.24 6.94,17.56 4.41,4.29 10.62,6.47 18.63,6.47 7.8,0 14,-2.18 18.63,-6.47 4.63,-4.32 7.04,-10.17 7.25,-17.56l26.18 0c-0.22,14.77 -4.71,26.03 -13.56,33.74 -8.83,7.68 -21.57,11.54 -38.19,11.54z"/>
   <path class="fil0" d="M1737.37 33.87l-106.88 0 0.32 181.72 -39.44 0 0 -215.59 146.32 0 -0.32 33.87zm96.73 15.41c16.02,0 30.31,3.49 42.96,10.47 12.59,6.99 22.52,16.83 29.72,29.56 7.17,12.74 10.77,27.43 10.77,44.06 0,16.61 -3.6,31.36 -10.77,44.18 -7.2,12.84 -17.13,22.75 -29.72,29.74 -12.65,6.97 -26.94,10.48 -42.96,10.48 -22.19,0 -39.75,-7.4 -52.69,-22.18l0 79.77 -38.5 0 0 -224.23 36.65 0 0 21.56c6.37,-7.81 14.23,-13.65 23.57,-17.55 9.34,-3.92 19.66,-5.86 30.97,-5.86zm-4.33 135.53c14.16,0 25.82,-4.73 34.95,-14.17 9.13,-9.46 13.72,-21.87 13.72,-37.27 0,-15.41 -4.59,-27.82 -13.72,-37.28 -9.13,-9.44 -20.79,-14.17 -34.95,-14.17 -9.24,0 -17.55,2.11 -24.94,6.3 -7.41,4.22 -13.23,10.24 -17.56,18.04 -4.32,7.82 -6.48,16.83 -6.48,27.11 0,10.26 2.16,19.3 6.48,27.1 4.33,7.79 10.15,13.82 17.56,18.02 7.39,4.2 15.7,6.32 24.94,6.32zm276.59 -133.68l-77.01 177.74c-7.21,17.84 -15.93,30.41 -26.2,37.71 -10.23,7.31 -22.66,10.93 -37.26,10.93 -8.19,0 -16.31,-1.34 -24.33,-4.01 -8.01,-2.65 -14.57,-6.35 -19.71,-11.08l15.4 -28.35c3.71,3.51 8.07,6.28 13.09,8.34 5.05,2.06 10.12,3.06 15.26,3.06 6.77,0 12.37,-1.73 16.79,-5.24 4.4,-3.47 8.47,-9.32 12.15,-17.55l2.79 -6.46 -71.79 -165.09 40.06 0 51.75 121.65 52.03 -121.65 36.98 0zm184.5 0l0 164.46 -38.21 0 0 -131.8 -80.99 0 0 131.8 -38.51 0 0 -164.46 157.71 0zm209.75 0l0 164.46 -38.2 0 0 -131.8 -81 0 0 131.8 -38.5 0 0 -164.46 157.7 0zm113.36 -1.85c24.23,0 42.75,5.81 55.61,17.39 12.82,11.6 19.22,29.1 19.22,52.53l0 96.39 -36.34 0 0 -20c-4.73,7.17 -11.44,12.67 -20.18,16.48 -8.72,3.79 -19.25,5.7 -31.57,5.7 -12.3,0 -23.08,-2.12 -32.34,-6.34 -9.24,-4.19 -16.37,-10.06 -21.38,-17.54 -5.06,-7.49 -7.57,-15.98 -7.57,-25.42 0,-14.78 5.51,-26.63 16.48,-35.57 10.97,-8.94 28.29,-13.4 51.9,-13.4l42.5 0 0 -2.46c0,-11.49 -3.44,-20.33 -10.31,-26.49 -6.88,-6.16 -17.09,-9.24 -30.65,-9.24 -9.25,0 -18.33,1.43 -27.26,4.31 -8.94,2.87 -16.46,6.89 -22.62,12.02l-15.1 -28.04c8.62,-6.55 18.98,-11.58 31.1,-15.08 12.1,-3.5 24.95,-5.24 38.51,-5.24zm-5.24 140.45c9.65,0 18.21,-2.22 25.71,-6.62 7.51,-4.42 12.8,-10.73 15.86,-18.94l0 -19.1 -39.72 0c-22.17,0 -33.27,7.27 -33.27,21.87 0,6.98 2.77,12.54 8.3,16.63 5.55,4.11 13.27,6.16 23.12,6.16z"/>
  </g>
 </g>
</svg>
